0
SECTION
2
HEADER
9
$INSUNITS
70
4
9
$ACADVER
1
AC1014
9
$HANDSEED
5
FFFF
0
ENDSEC
0
SECTION
2
TABLES
0
TABLE
2
VPORT
5
8
100
AcDbSymbolTable
0
ENDTAB
0
TABLE
2
LTYPE
5
5
100
AcDbSymbolTable
70
2
0
LTYPE
5
14
100
AcDbSymbolTableRecord
100
AcDbLinetypeTableRecord
2
BYBLOCK
70
0
0
LTYPE
5
15
100
AcDbSymbolTableRecord
100
AcDbLinetypeTableRecord
2
BYLAYER
70
0
0
ENDTAB
0
TABLE
2
LAYER
5
2
100
AcDbSymbolTable
70
3
0
LAYER
5
50
100
AcDbSymbolTableRecord
100
AcDbLayerTableRecord
2
0
70
0
6
CONTINUOUS
0
LAYER
5
51
100
AcDbSymbolTableRecord
100
AcDbLayerTableRecord
2
CUTOUTS
70
0
62
1
6
CONTINUOUS
0
LAYER
5
52
100
AcDbSymbolTableRecord
100
AcDbLayerTableRecord
2
PERIMETER
70
0
62
5
6
CONTINUOUS
0
ENDTAB
0
TABLE
2
STYLE
5
3
100
AcDbSymbolTable
70
1
0
STYLE
5
11
100
AcDbSymbolTableRecord
100
AcDbTextStyleTableRecord
2
STANDARD
70
0
0
ENDTAB
0
TABLE
2
VIEW
5
6
100
AcDbSymbolTable
0
ENDTAB
0
TABLE
2
UCS
5
7
100
AcDbSymbolTable
0
ENDTAB
0
TABLE
2
APPID
5
9
100
AcDbSymbolTable
70
1
0
APPID
5
12
100
AcDbSymbolTableRecord
100
AcDbRegAppTableRecord
2
ACAD
70
0
0
ENDTAB
0
TABLE
2
DIMSTYLE
5
A
100
AcDbSymbolTable
0
ENDTAB
0
TABLE
2
BLOCK_RECORD
5
1
100
AcDbSymbolTable
70
2
0
BLOCK_RECORD
5
1F
100
AcDbSymbolTableRecord
100
AcDbBlockTableRecord
2
*MODEL_SPACE
0
BLOCK_RECORD
5
1B
100
AcDbSymbolTableRecord
100
AcDbBlockTableRecord
2
*PAPER_SPACE
0
ENDTAB
0
ENDSEC
0
SECTION
2
BLOCKS
0
BLOCK
5
20
100
AcDbEntity
100
AcDbBlockBegin
2
*MODEL_SPACE
0
ENDBLK
5
21
100
AcDbEntity
100
AcDbBlockEnd
0
BLOCK
5
1C
100
AcDbEntity
100
AcDbBlockBegin
2
*PAPER_SPACE
0
ENDBLK
5
1D
100
AcDbEntity
100
AcDbBlockEnd
0
ENDSEC
0
SECTION
2
ENTITIES
0
LINE
5
100
100
AcDbEntity
8
CUTOUTS
100
AcDbLine
10
100.65724999999999
20
-21.575999999999979
30
0
11
116.0365
21
-21.575999999999944
31
0
0
ARC
5
101
100
AcDbEntity
8
CUTOUTS
100
AcDbCircle
10
116.0365
20
-22.075999999999951
30
0
40
0.50000000000000711
210
-0
220
0
230
1
100
AcDbArc
50
0
51
90
0
LINE
5
102
100
AcDbEntity
8
CUTOUTS
100
AcDbLine
10
116.5365
20
-22.075999999999986
30
0
11
116.5365
21
-35.073999999999998
31
0
0
ARC
5
103
100
AcDbEntity
8
CUTOUTS
100
AcDbCircle
10
116.0365
20
-35.073999999999941
30
0
40
0.50000000000002487
210
-0
220
0
230
1
100
AcDbArc
50
270
51
360
0
LINE
5
104
100
AcDbEntity
8
CUTOUTS
100
AcDbLine
10
116.0365
20
-35.57399999999997
30
0
11
100.65725000000002
21
-35.57399999999997
31
0
0
ARC
5
105
100
AcDbEntity
8
CUTOUTS
100
AcDbCircle
10
100.65724999999995
20
-35.074000000000034
30
0
40
0.49999999999993605
210
0
220
0
230
1
100
AcDbArc
50
180
51
270.00000000000813
0
LINE
5
106
100
AcDbEntity
8
CUTOUTS
100
AcDbLine
10
100.15725000000002
20
-35.073999999999998
30
0
11
100.15724999999998
21
-22.075999999999986
31
0
0
ARC
5
107
100
AcDbEntity
8
CUTOUTS
100
AcDbCircle
10
100.65725000000006
20
-22.076000000000057
30
0
40
0.50000000000007816
210
0
220
0
230
1
100
AcDbArc
50
90.000000000008143
51
180
0
ARC
5
108
100
AcDbEntity
8
CUTOUTS
100
AcDbCircle
10
63.707750000000004
20
-34.073999999999998
30
0
40
0.49999999999997158
210
0
220
0
230
1
100
AcDbArc
50
180
51
270
0
LINE
5
109
100
AcDbEntity
8
CUTOUTS
100
AcDbLine
10
69.705750000000023
20
-34.573999999999991
30
0
11
63.707750000000004
21
-34.573999999999991
31
0
0
ARC
5
10A
100
AcDbEntity
8
CUTOUTS
100
AcDbCircle
10
69.705750000000023
20
-34.073999999999927
30
0
40
0.5000000000000604
210
-0
220
0
230
1
100
AcDbArc
50
270
51
360
0
LINE
5
10B
100
AcDbEntity
8
CUTOUTS
100
AcDbLine
10
70.205749999999995
20
-20.075999999999958
30
0
11
70.205750000000023
21
-34.073999999999948
31
0
0
ARC
5
10C
100
AcDbEntity
8
CUTOUTS
100
AcDbCircle
10
69.705750000000023
20
-20.075999999999947
30
0
40
0.49999999999997158
210
-0
220
0
230
1
100
AcDbArc
50
0
51
90.000000000004889
0
LINE
5
10D
100
AcDbEntity
8
CUTOUTS
100
AcDbLine
10
63.707750000000033
20
-19.575999999999986
30
0
11
69.705749999999981
21
-19.575999999999986
31
0
0
ARC
5
10E
100
AcDbEntity
8
CUTOUTS
100
AcDbCircle
10
63.707750000000104
20
-20.076000000000008
30
0
40
0.50000000000002487
210
0
220
0
230
1
100
AcDbArc
50
90.000000000008143
51
180
0
LINE
5
10F
100
AcDbEntity
8
CUTOUTS
100
AcDbLine
10
63.207750000000033
20
-34.073999999999984
30
0
11
63.207750000000061
21
-20.075999999999993
31
0
0
LINE
5
110
100
AcDbEntity
8
CUTOUTS
100
AcDbLine
10
-88.751000000000019
20
-35.57399999999997
30
0
11
-120.79900000000001
21
-35.573999999999984
31
0
0
ARC
5
111
100
AcDbEntity
8
CUTOUTS
100
AcDbCircle
10
-120.79900000000004
20
-35.074000000000012
30
0
40
0.49999999999997158
210
0
220
0
230
1
100
AcDbArc
50
180
51
270.00000000000324
0
LINE
5
112
100
AcDbEntity
8
CUTOUTS
100
AcDbLine
10
-121.29900000000001
20
-35.073999999999998
30
0
11
-121.29900000000005
21
-22.075999999999986
31
0
0
ARC
5
113
100
AcDbEntity
8
CUTOUTS
100
AcDbCircle
10
-120.79900000000002
20
-22.075999999999976
30
0
40
0.49999999999999822
210
0
220
-0
230
1
100
AcDbArc
50
90
51
180
0
LINE
5
114
100
AcDbEntity
8
CUTOUTS
100
AcDbLine
10
-120.79900000000002
20
-21.575999999999979
30
0
11
-120.21200000000002
21
-21.575999999999979
31
0
0
LINE
5
115
100
AcDbEntity
8
CUTOUTS
100
AcDbLine
10
-120.21200000000002
20
-21.575999999999979
30
0
11
-120.21200000000006
21
-20.075999999999993
31
0
0
ARC
5
116
100
AcDbEntity
8
CUTOUTS
100
AcDbCircle
10
-119.71200000000003
20
-20.075999999999983
30
0
40
0.49999999999999822
210
0
220
-0
230
1
100
AcDbArc
50
90
51
180
0
LINE
5
117
100
AcDbEntity
8
CUTOUTS
100
AcDbLine
10
-119.71200000000003
20
-19.575999999999986
30
0
11
-113.714
21
-19.575999999999986
31
0
0
ARC
5
118
100
AcDbEntity
8
CUTOUTS
100
AcDbCircle
10
-113.71400000000001
20
-20.075999999999983
30
0
40
0.49999999999998934
210
-0
220
0
230
1
100
AcDbArc
50
0
51
90
0
LINE
5
119
100
AcDbEntity
8
CUTOUTS
100
AcDbLine
10
-113.21400000000003
20
-20.075999999999993
30
0
11
-113.21400000000003
21
-21.575999999999979
31
0
0
LINE
5
11A
100
AcDbEntity
8
CUTOUTS
100
AcDbLine
10
-113.21400000000003
20
-21.575999999999979
30
0
11
-96.335999999999999
21
-21.575999999999979
31
0
0
LINE
5
11B
100
AcDbEntity
8
CUTOUTS
100
AcDbLine
10
-96.335999999999999
20
-21.575999999999979
30
0
11
-96.335999999999999
21
-20.075999999999993
31
0
0
ARC
5
11C
100
AcDbEntity
8
CUTOUTS
100
AcDbCircle
10
-95.836000000000027
20
-20.075999999999972
30
0
40
0.49999999999998934
210
0
220
-0
230
1
100
AcDbArc
50
89.99999999999838
51
180
0
LINE
5
11D
100
AcDbEntity
8
CUTOUTS
100
AcDbLine
10
-95.836000000000013
20
-19.575999999999986
30
0
11
-89.838000000000008
21
-19.575999999999986
31
0
0
ARC
5
11E
100
AcDbEntity
8
CUTOUTS
100
AcDbCircle
10
-89.838000000000008
20
-20.075999999999972
30
0
40
0.49999999999998934
210
-0
220
0
230
1
100
AcDbArc
50
0
51
90
0
LINE
5
11F
100
AcDbEntity
8
CUTOUTS
100
AcDbLine
10
-89.338000000000022
20
-20.075999999999993
30
0
11
-89.338000000000036
21
-21.575999999999979
31
0
0
LINE
5
120
100
AcDbEntity
8
CUTOUTS
100
AcDbLine
10
-89.338000000000036
20
-21.575999999999979
30
0
11
-88.751000000000019
21
-21.576000000000015
31
0
0
ARC
5
121
100
AcDbEntity
8
CUTOUTS
100
AcDbCircle
10
-88.751000000000047
20
-22.076000000000001
30
0
40
0.50000000000000711
210
0
220
-0
230
1
100
AcDbArc
50
0
51
89.999999999996746
0
LINE
5
122
100
AcDbEntity
8
CUTOUTS
100
AcDbLine
10
-88.251000000000047
20
-22.075999999999986
30
0
11
-88.251000000000047
21
-35.073999999999998
31
0
0
ARC
5
123
100
AcDbEntity
8
CUTOUTS
100
AcDbCircle
10
-88.751000000000005
20
-35.073999999999998
30
0
40
0.49999999999997158
210
-0
220
0
230
1
100
AcDbArc
50
-90
51
0
0
ARC
5
124
100
AcDbEntity
8
CUTOUTS
100
AcDbCircle
10
39.831750000000014
20
-20.076000000000018
30
0
40
0.50000000000003375
210
0
220
-0
230
1
100
AcDbArc
50
90
51
180
0
LINE
5
125
100
AcDbEntity
8
CUTOUTS
100
AcDbLine
10
39.831750000000014
20
-19.575999999999986
30
0
11
45.829749999999962
21
-19.576000000000022
31
0
0
ARC
5
126
100
AcDbEntity
8
CUTOUTS
100
AcDbCircle
10
45.829750000000033
20
-20.076000000000001
30
0
40
0.49999999999997158
210
0
220
-0
230
1
100
AcDbArc
50
0
51
90.000000000008143
0
LINE
5
127
100
AcDbEntity
8
CUTOUTS
100
AcDbLine
10
46.329750000000004
20
-20.075999999999993
30
0
11
46.329749999999962
21
-26.551000000000002
31
0
0
ARC
5
128
100
AcDbEntity
8
CUTOUTS
100
AcDbCircle
10
46.829749999999933
20
-26.551000000000037
30
0
40
0.49999999999997158
210
0
220
0
230
1
100
AcDbArc
50
180
51
270.00000000000489
0
LINE
5
129
100
AcDbEntity
8
CUTOUTS
100
AcDbLine
10
46.829749999999976
20
-27.051000000000009
30
0
11
47.269749999999974
21
-27.051000000000023
31
0
0
ARC
5
12A
100
AcDbEntity
8
CUTOUTS
100
AcDbCircle
10
47.269749999999974
20
-26.551000000000016
30
0
40
0.50000000000000711
210
-0
220
0
230
1
100
AcDbArc
50
-90
51
0
0
LINE
5
12B
100
AcDbEntity
8
CUTOUTS
100
AcDbLine
10
47.769749999999988
20
-26.551000000000002
30
0
11
47.769749999999988
21
-22.075999999999986
31
0
0
ARC
5
12C
100
AcDbEntity
8
CUTOUTS
100
AcDbCircle
10
48.26975000000003
20
-22.076000000000057
30
0
40
0.50000000000007816
210
0
220
0
230
1
100
AcDbArc
50
90.000000000008143
51
180
0
LINE
5
12D
100
AcDbEntity
8
CUTOUTS
100
AcDbLine
10
48.269749999999959
20
-21.575999999999979
30
0
11
61.267750000000007
21
-21.576000000000015
31
0
0
ARC
5
12E
100
AcDbEntity
8
CUTOUTS
100
AcDbCircle
10
61.267750000000078
20
-22.075999999999993
30
0
40
0.49999999999997158
210
0
220
-0
230
1
100
AcDbArc
50
0
51
90.000000000008143
0
LINE
5
12F
100
AcDbEntity
8
CUTOUTS
100
AcDbLine
10
61.767750000000049
20
-22.075999999999986
30
0
11
61.767749999999978
21
-35.073999999999998
31
0
0
ARC
5
130
100
AcDbEntity
8
CUTOUTS
100
AcDbCircle
10
61.267749999999936
20
-35.073999999999906
30
0
40
0.5000000000000604
210
-0
220
0
230
1
100
AcDbArc
50
270.00000000000813
51
360
0
LINE
5
131
100
AcDbEntity
8
CUTOUTS
100
AcDbLine
10
61.267750000000007
20
-35.57399999999997
30
0
11
48.269749999999959
21
-35.573999999999934
31
0
0
ARC
5
132
100
AcDbEntity
8
CUTOUTS
100
AcDbCircle
10
48.269749999999917
20
-35.073999999999998
30
0
40
0.49999999999993605
210
0
220
0
230
1
100
AcDbArc
50
180
51
270.00000000000489
0
LINE
5
133
100
AcDbEntity
8
CUTOUTS
100
AcDbLine
10
47.769749999999988
20
-35.073999999999998
30
0
11
47.769749999999988
21
-29.551000000000009
31
0
0
ARC
5
134
100
AcDbEntity
8
CUTOUTS
100
AcDbCircle
10
47.269750000000016
20
-29.550999999999988
30
0
40
0.49999999999997158
210
-0
220
0
230
1
100
AcDbArc
50
0
51
89.999999999996746
0
LINE
5
135
100
AcDbEntity
8
CUTOUTS
100
AcDbLine
10
47.269750000000045
20
-29.051000000000016
30
0
11
46.829749999999976
21
-29.051000000000016
31
0
0
ARC
5
136
100
AcDbEntity
8
CUTOUTS
100
AcDbCircle
10
46.829749999999976
20
-29.551000000000023
30
0
40
0.50000000000000711
210
0
220
-0
230
1
100
AcDbArc
50
90
51
180
0
LINE
5
137
100
AcDbEntity
8
CUTOUTS
100
AcDbLine
10
46.329749999999962
20
-29.551000000000023
30
0
11
46.329749999999962
21
-34.073999999999948
31
0
0
ARC
5
138
100
AcDbEntity
8
CUTOUTS
100
AcDbCircle
10
45.829749999999891
20
-34.073999999999948
30
0
40
0.50000000000004263
210
-0
220
0
230
1
100
AcDbArc
50
-89.999999999991857
51
0
0
LINE
5
139
100
AcDbEntity
8
CUTOUTS
100
AcDbLine
10
45.829749999999962
20
-34.573999999999991
30
0
11
42.717749999999995
21
-34.573999999999991
31
0
0
LINE
5
13A
100
AcDbEntity
8
CUTOUTS
100
AcDbLine
10
42.717749999999995
20
-34.573999999999991
30
0
11
42.717749999999967
21
-35.073999999999998
31
0
0
ARC
5
13B
100
AcDbEntity
8
CUTOUTS
100
AcDbCircle
10
42.217749999999924
20
-35.073999999999927
30
0
40
0.50000000000004263
210
-0
220
0
230
1
100
AcDbArc
50
270.00000000000324
51
360
0
LINE
5
13C
100
AcDbEntity
8
CUTOUTS
100
AcDbLine
10
42.217749999999953
20
-35.57399999999997
30
0
11
29.21974999999998
21
-35.574000000000005
31
0
0
ARC
5
13D
100
AcDbEntity
8
CUTOUTS
100
AcDbCircle
10
29.21974999999998
20
-35.074000000000034
30
0
40
0.49999999999997158
210
0
220
0
230
1
100
AcDbArc
50
180
51
270
0
LINE
5
13E
100
AcDbEntity
8
CUTOUTS
100
AcDbLine
10
28.719750000000008
20
-35.074000000000034
30
0
11
28.719749999999973
21
-22.076000000000022
31
0
0
ARC
5
13F
100
AcDbEntity
8
CUTOUTS
100
AcDbCircle
10
29.219749999999944
20
-22.076000000000001
30
0
40
0.49999999999998934
210
0
220
-0
230
1
100
AcDbArc
50
89.999999999995936
51
180
0
LINE
5
140
100
AcDbEntity
8
CUTOUTS
100
AcDbLine
10
29.21974999999998
20
-21.576000000000015
30
0
11
39.33175
21
-21.575999999999979
31
0
0
LINE
5
141
100
AcDbEntity
8
CUTOUTS
100
AcDbLine
10
39.33175
20
-21.575999999999979
30
0
11
39.331749999999971
21
-20.075999999999993
31
0
0
ARC
5
142
100
AcDbEntity
8
CUTOUTS
100
AcDbCircle
10
22.080750000000062
20
-20.075999999999922
30
0
40
0.49999999999993605
210
-0
220
0
230
1
100
AcDbArc
50
0
51
90.000000000012221
0
LINE
5
143
100
AcDbEntity
8
CUTOUTS
100
AcDbLine
10
16.08274999999999
20
-19.575999999999986
30
0
11
22.080749999999956
21
-19.575999999999986
31
0
0
ARC
5
144
100
AcDbEntity
8
CUTOUTS
100
AcDbCircle
10
16.082749999999972
20
-20.075999999999983
30
0
40
0.49999999999999822
210
0
220
-0
230
1
100
AcDbArc
50
89.999999999997954
51
180
0
LINE
5
145
100
AcDbEntity
8
CUTOUTS
100
AcDbLine
10
15.582749999999983
20
-34.073999999999984
30
0
11
15.582749999999965
21
-20.075999999999993
31
0
0
ARC
5
146
100
AcDbEntity
8
CUTOUTS
100
AcDbCircle
10
16.082750000000008
20
-34.073999999999963
30
0
40
0.50000000000002487
210
0
220
0
230
1
100
AcDbArc
50
180
51
269.99999999999795
0
LINE
5
147
100
AcDbEntity
8
CUTOUTS
100
AcDbLine
10
22.080749999999956
20
-34.573999999999991
30
0
11
16.08274999999999
21
-34.573999999999991
31
0
0
ARC
5
148
100
AcDbEntity
8
CUTOUTS
100
AcDbCircle
10
22.080749999999956
20
-34.073999999999948
30
0
40
0.50000000000004263
210
-0
220
0
230
1
100
AcDbArc
50
270
51
360
0
LINE
5
149
100
AcDbEntity
8
CUTOUTS
100
AcDbLine
10
22.580749999999998
20
-20.075999999999993
30
0
11
22.580749999999998
21
-34.073999999999984
31
0
0
ARC
5
14A
100
AcDbEntity
8
CUTOUTS
100
AcDbCircle
10
-7.7932499999999827
20
-34.073999999999963
30
0
40
0.50000000000002487
210
0
220
0
230
1
100
AcDbArc
50
180
51
269.99999999999795
0
LINE
5
14B
100
AcDbEntity
8
CUTOUTS
100
AcDbLine
10
-1.7952500000000171
20
-34.573999999999991
30
0
11
-7.7932500000000005
21
-34.573999999999991
31
0
0
ARC
5
14C
100
AcDbEntity
8
CUTOUTS
100
AcDbCircle
10
-1.7952499999999816
20
-34.073999999999998
30
0
40
0.49999999999998934
210
0
220
0
230
1
100
AcDbArc
50
-90.000000000004079
51
0
0
LINE
5
14D
100
AcDbEntity
8
CUTOUTS
100
AcDbLine
10
-1.29525000000001
20
-20.075999999999993
30
0
11
-1.2952499999999922
21
-34.073999999999984
31
0
0
ARC
5
14E
100
AcDbEntity
8
CUTOUTS
100
AcDbCircle
10
-1.7952500000000349
20
-20.076000000000001
30
0
40
0.50000000000002487
210
0
220
-0
230
1
100
AcDbArc
50
0
51
89.999999999997954
0
LINE
5
14F
100
AcDbEntity
8
CUTOUTS
100
AcDbLine
10
-7.7932500000000005
20
-19.575999999999986
30
0
11
-1.7952500000000171
21
-19.575999999999986
31
0
0
ARC
5
150
100
AcDbEntity
8
CUTOUTS
100
AcDbCircle
10
-7.7932500000000182
20
-20.075999999999983
30
0
40
0.49999999999999822
210
0
220
-0
230
1
100
AcDbArc
50
89.999999999997954
51
180
0
LINE
5
151
100
AcDbEntity
8
CUTOUTS
100
AcDbLine
10
-8.2932500000000076
20
-34.073999999999984
30
0
11
-8.2932500000000253
21
-20.075999999999993
31
0
0
LINE
5
152
100
AcDbEntity
8
CUTOUTS
100
AcDbLine
10
-107.30100000000004
20
-3.0260000000000087
30
0
11
-107.30100000000006
21
-16.023999999999987
31
0
0
ARC
5
153
100
AcDbEntity
8
CUTOUTS
100
AcDbCircle
10
-107.80100000000003
20
-16.023999999999994
30
0
40
0.49999999999999822
210
-0
220
0
230
1
100
AcDbArc
50
-90
51
0
0
LINE
5
154
100
AcDbEntity
8
CUTOUTS
100
AcDbLine
10
-107.80100000000003
20
-16.523999999999994
30
0
11
-120.79900000000001
21
-16.523999999999958
31
0
0
ARC
5
155
100
AcDbEntity
8
CUTOUTS
100
AcDbCircle
10
-120.79900000000001
20
-16.023999999999976
30
0
40
0.50000000000000711
210
0
220
0
230
1
100
AcDbArc
50
180
51
270.00000000000324
0
LINE
5
156
100
AcDbEntity
8
CUTOUTS
100
AcDbLine
10
-121.29900000000001
20
-16.023999999999987
30
0
11
-121.29900000000004
21
-3.0260000000000087
31
0
0
ARC
5
157
100
AcDbEntity
8
CUTOUTS
100
AcDbCircle
10
-120.79900000000002
20
-3.0259999999999998
30
0
40
0.49999999999999822
210
0
220
-0
230
1
100
AcDbArc
50
90
51
180
0
LINE
5
158
100
AcDbEntity
8
CUTOUTS
100
AcDbLine
10
-120.79900000000002
20
-2.5260000000000016
30
0
11
-107.80100000000003
21
-2.5260000000000016
31
0
0
ARC
5
159
100
AcDbEntity
8
CUTOUTS
100
AcDbCircle
10
-107.80100000000004
20
-3.0260000000000176
30
0
40
0.50000000000000711
210
0
220
-0
230
1
100
AcDbArc
50
0
51
89.99999999999838
0
ARC
5
15A
100
AcDbEntity
8
CUTOUTS
100
AcDbCircle
10
-39.836499999999987
20
-35.073999999999977
30
0
40
0.50000000000002487
210
0
220
0
230
1
100
AcDbArc
50
180
51
269.99999999999756
0
LINE
5
15B
100
AcDbEntity
8
CUTOUTS
100
AcDbLine
10
-24.457250000000013
20
-35.57399999999997
30
0
11
-39.836500000000008
21
-35.574000000000005
31
0
0
ARC
5
15C
100
AcDbEntity
8
CUTOUTS
100
AcDbCircle
10
-24.457250000000013
20
-35.073999999999998
30
0
40
0.49999999999997158
210
-0
220
0
230
1
100
AcDbArc
50
-90
51
0
0
LINE
5
15D
100
AcDbEntity
8
CUTOUTS
100
AcDbLine
10
-23.957250000000005
20
-22.075999999999986
30
0
11
-23.957250000000041
21
-35.073999999999998
31
0
0
ARC
5
15E
100
AcDbEntity
8
CUTOUTS
100
AcDbCircle
10
-24.457250000000013
20
-22.076000000000001
30
0
40
0.50000000000000711
210
0
220
-0
230
1
100
AcDbArc
50
0
51
90
0
LINE
5
15F
100
AcDbEntity
8
CUTOUTS
100
AcDbLine
10
-39.836500000000008
20
-21.575999999999979
30
0
11
-24.457250000000013
21
-21.575999999999993
31
0
0
ARC
5
160
100
AcDbEntity
8
CUTOUTS
100
AcDbCircle
10
-39.836500000000029
20
-22.076000000000022
30
0
40
0.50000000000004263
210
0
220
-0
230
1
100
AcDbArc
50
89.999999999997556
51
180
0
LINE
5
161
100
AcDbEntity
8
CUTOUTS
100
AcDbLine
10
-40.336500000000015
20
-35.073999999999998
30
0
11
-40.336500000000015
21
-22.076000000000022
31
0
0
ARC
5
162
100
AcDbEntity
8
CUTOUTS
100
AcDbCircle
10
-11.282249999999969
20
-34.073999999999998
30
0
40
0.49999999999998934
210
0
220
0
230
1
100
AcDbArc
50
-90.000000000004079
51
0
0
LINE
5
163
100
AcDbEntity
8
CUTOUTS
100
AcDbLine
10
-10.782249999999998
20
-20.075999999999993
30
0
11
-10.78224999999998
21
-34.073999999999984
31
0
0
ARC
5
164
100
AcDbEntity
8
CUTOUTS
100
AcDbCircle
10
-11.282250000000023
20
-20.076000000000001
30
0
40
0.50000000000002487
210
0
220
-0
230
1
100
AcDbArc
50
0
51
89.999999999997954
0
LINE
5
165
100
AcDbEntity
8
CUTOUTS
100
AcDbLine
10
-17.280250000000006
20
-19.575999999999986
30
0
11
-11.282250000000005
21
-19.575999999999986
31
0
0
ARC
5
166
100
AcDbEntity
8
CUTOUTS
100
AcDbCircle
10
-17.280250000000006
20
-20.075999999999983
30
0
40
0.49999999999999822
210
0
220
-0
230
1
100
AcDbArc
50
90
51
180
0
LINE
5
167
100
AcDbEntity
8
CUTOUTS
100
AcDbLine
10
-17.780250000000013
20
-34.073999999999984
30
0
11
-17.780249999999977
21
-20.075999999999993
31
0
0
ARC
5
168
100
AcDbEntity
8
CUTOUTS
100
AcDbCircle
10
-17.280249999999988
20
-34.073999999999984
30
0
40
0.50000000000002487
210
0
220
0
230
1
100
AcDbArc
50
180
51
269.99999999999795
0
LINE
5
169
100
AcDbEntity
8
CUTOUTS
100
AcDbLine
10
-11.282250000000005
20
-34.573999999999991
30
0
11
-17.280250000000006
21
-34.574000000000005
31
0
0
ARC
5
16A
100
AcDbEntity
8
CUTOUTS
100
AcDbCircle
10
137.46775000000005
20
-16.023999999999958
30
0
40
0.50000000000003375
210
-0
220
0
230
1
100
AcDbArc
50
270
51
360
0
LINE
5
16B
100
AcDbEntity
8
CUTOUTS
100
AcDbLine
10
137.96775000000002
20
-3.0260000000000087
30
0
11
137.96775000000008
21
-16.023999999999987
31
0
0
ARC
5
16C
100
AcDbEntity
8
CUTOUTS
100
AcDbCircle
10
137.46775000000011
20
-3.025999999999911
30
0
40
0.49999999999990052
210
-0
220
0
230
1
100
AcDbArc
50
0
51
90.000000000006523
0
LINE
5
16D
100
AcDbEntity
8
CUTOUTS
100
AcDbLine
10
124.46975
20
-2.5260000000000016
30
0
11
137.46775000000005
21
-2.5260000000000016
31
0
0
ARC
5
16E
100
AcDbEntity
8
CUTOUTS
100
AcDbCircle
10
124.46975000000003
20
-3.0260000000000797
30
0
40
0.50000000000007816
210
0
220
0
230
1
100
AcDbArc
50
90.000000000003254
51
180
0
LINE
5
16F
100
AcDbEntity
8
CUTOUTS
100
AcDbLine
10
123.96974999999999
20
-16.024000000000022
30
0
11
123.96974999999996
21
-3.0260000000000442
31
0
0
ARC
5
170
100
AcDbEntity
8
CUTOUTS
100
AcDbCircle
10
124.46974999999993
20
-16.024000000000047
30
0
40
0.49999999999993605
210
0
220
0
230
1
100
AcDbArc
50
180
51
270.00000000000813
0
LINE
5
171
100
AcDbEntity
8
CUTOUTS
100
AcDbLine
10
137.46775000000005
20
-16.523999999999994
30
0
11
124.46975
21
-16.523999999999994
31
0
0
LINE
5
172
100
AcDbEntity
8
CUTOUTS
100
AcDbLine
10
-58.886499999999998
20
-21.576000000000015
30
0
11
-45.888500000000008
21
-21.575999999999979
31
0
0
ARC
5
173
100
AcDbEntity
8
CUTOUTS
100
AcDbCircle
10
-45.888500000000022
20
-22.075999999999993
30
0
40
0.50000000000002487
210
0
220
-0
230
1
100
AcDbArc
50
0
51
89.99999999999838
0
LINE
5
174
100
AcDbEntity
8
CUTOUTS
100
AcDbLine
10
-45.388500000000001
20
-22.075999999999986
30
0
11
-45.388500000000022
21
-35.073999999999998
31
0
0
ARC
5
175
100
AcDbEntity
8
CUTOUTS
100
AcDbCircle
10
-45.888499999999993
20
-35.073999999999998
30
0
40
0.49999999999997158
210
0
220
0
230
1
100
AcDbArc
50
-90.000000000001634
51
0
0
LINE
5
176
100
AcDbEntity
8
CUTOUTS
100
AcDbLine
10
-45.888500000000008
20
-35.57399999999997
30
0
11
-58.886499999999998
21
-35.573999999999984
31
0
0
ARC
5
177
100
AcDbEntity
8
CUTOUTS
100
AcDbCircle
10
-58.886499999999984
20
-35.073999999999963
30
0
40
0.50000000000002487
210
0
220
0
230
1
100
AcDbArc
50
180
51
269.99999999999835
0
LINE
5
178
100
AcDbEntity
8
CUTOUTS
100
AcDbLine
10
-59.386500000000012
20
-35.073999999999963
30
0
11
-59.386500000000012
21
-22.075999999999986
31
0
0
ARC
5
179
100
AcDbEntity
8
CUTOUTS
100
AcDbCircle
10
-58.886499999999998
20
-22.075999999999976
30
0
40
0.4999999999999627
210
0
220
-0
230
1
100
AcDbArc
50
90
51
180
0
ARC
5
17A
100
AcDbEntity
8
CUTOUTS
100
AcDbCircle
10
-139.84900000000005
20
-35.074000000000012
30
0
40
0.49999999999995381
210
0
220
0
230
1
100
AcDbArc
50
180
51
270
0
LINE
5
17B
100
AcDbEntity
8
CUTOUTS
100
AcDbLine
10
-126.85100000000006
20
-35.57399999999997
30
0
11
-139.84900000000005
21
-35.57399999999997
31
0
0
ARC
5
17C
100
AcDbEntity
8
CUTOUTS
100
AcDbCircle
10
-126.851
20
-35.074000000000012
30
0
40
0.49999999999995381
210
0
220
0
230
1
100
AcDbArc
50
-90.000000000006523
51
0
0
LINE
5
17D
100
AcDbEntity
8
CUTOUTS
100
AcDbLine
10
-126.35100000000006
20
-22.075999999999986
30
0
11
-126.351
21
-35.073999999999998
31
0
0
ARC
5
17E
100
AcDbEntity
8
CUTOUTS
100
AcDbCircle
10
-126.85100000000006
20
-22.075999999999976
30
0
40
0.50000000000000711
210
-0
220
0
230
1
100
AcDbArc
50
0
51
90
0
LINE
5
17F
100
AcDbEntity
8
CUTOUTS
100
AcDbLine
10
-139.84900000000005
20
-21.575999999999979
30
0
11
-126.85100000000004
21
-21.575999999999979
31
0
0
ARC
5
180
100
AcDbEntity
8
CUTOUTS
100
AcDbCircle
10
-139.84900000000005
20
-22.075999999999976
30
0
40
0.49999999999999822
210
0
220
-0
230
1
100
AcDbArc
50
90
51
180
0
LINE
5
181
100
AcDbEntity
8
CUTOUTS
100
AcDbLine
10
-140.34899999999999
20
-35.073999999999998
30
0
11
-140.34900000000005
21
-22.075999999999986
31
0
0
ARC
5
182
100
AcDbEntity
8
CUTOUTS
100
AcDbCircle
10
116.0365
20
-16.023999999999958
30
0
40
0.50000000000003375
210
-0
220
0
230
1
100
AcDbArc
50
270
51
360
0
LINE
5
183
100
AcDbEntity
8
CUTOUTS
100
AcDbLine
10
116.5365
20
-3.0260000000000087
30
0
11
116.53650000000005
21
-16.023999999999987
31
0
0
ARC
5
184
100
AcDbEntity
8
CUTOUTS
100
AcDbCircle
10
116.0365
20
-3.0259999999999465
30
0
40
0.50000000000000711
210
-0
220
0
230
1
100
AcDbArc
50
0
51
90.000000000001634
0
LINE
5
185
100
AcDbEntity
8
CUTOUTS
100
AcDbLine
10
103.03850000000003
20
-2.5260000000000016
30
0
11
116.0365
21
-2.5259999999999394
31
0
0
ARC
5
186
100
AcDbEntity
8
CUTOUTS
100
AcDbCircle
10
103.03850000000003
20
-3.0260000000000353
30
0
40
0.50000000000003375
210
0
220
-0
230
1
100
AcDbArc
50
90
51
180
0
LINE
5
187
100
AcDbEntity
8
CUTOUTS
100
AcDbLine
10
102.53849999999998
20
-16.023999999999987
30
0
11
102.53849999999998
21
-3.0260000000000087
31
0
0
ARC
5
188
100
AcDbEntity
8
CUTOUTS
100
AcDbCircle
10
103.03849999999996
20
-16.024000000000022
30
0
40
0.49999999999997158
210
0
220
0
230
1
100
AcDbArc
50
180
51
270.00000000000813
0
LINE
5
189
100
AcDbEntity
8
CUTOUTS
100
AcDbLine
10
116.0365
20
-16.523999999999994
30
0
11
103.03850000000003
21
-16.523999999999994
31
0
0
LINE
5
18A
100
AcDbEntity
8
CUTOUTS
100
AcDbLine
10
-66.819750000000028
20
-22.075999999999986
30
0
11
-66.819750000000028
21
-35.073999999999998
31
0
0
ARC
5
18B
100
AcDbEntity
8
CUTOUTS
100
AcDbCircle
10
-67.319750000000013
20
-35.073999999999998
30
0
40
0.49999999999997158
210
0
220
0
230
1
100
AcDbArc
50
-90.000000000001634
51
0
0
LINE
5
18C
100
AcDbEntity
8
CUTOUTS
100
AcDbLine
10
-67.319750000000028
20
-35.57399999999997
30
0
11
-80.317749999999975
21
-35.574000000000019
31
0
0
ARC
5
18D
100
AcDbEntity
8
CUTOUTS
100
AcDbCircle
10
-80.317749999999961
20
-35.073999999999998
30
0
40
0.50000000000004263
210
0
220
0
230
1
100
AcDbArc
50
180
51
269.99999999999835
0
LINE
5
18E
100
AcDbEntity
8
CUTOUTS
100
AcDbLine
10
-80.817750000000004
20
-35.073999999999998
30
0
11
-80.81774999999999
21
-22.075999999999986
31
0
0
ARC
5
18F
100
AcDbEntity
8
CUTOUTS
100
AcDbCircle
10
-80.31774999999999
20
-22.075999999999965
30
0
40
0.49999999999998934
210
0
220
-0
230
1
100
AcDbArc
50
89.99999999999838
51
180
0
LINE
5
190
100
AcDbEntity
8
CUTOUTS
100
AcDbLine
10
-80.317749999999975
20
-21.575999999999979
30
0
11
-67.319749999999999
21
-21.575999999999979
31
0
0
ARC
5
191
100
AcDbEntity
8
CUTOUTS
100
AcDbCircle
10
-67.319750000000028
20
-22.075999999999993
30
0
40
0.50000000000000711
210
0
220
-0
230
1
100
AcDbArc
50
0
51
89.999999999996746
0
LINE
5
192
100
AcDbEntity
8
CUTOUTS
100
AcDbLine
10
45.888499999999993
20
-2.5260000000000016
30
0
11
58.886500000000041
21
-2.5259999999999661
31
0
0
ARC
5
193
100
AcDbEntity
8
CUTOUTS
100
AcDbCircle
10
58.886500000000112
20
-3.025999999999911
30
0
40
0.49999999999993605
210
-0
220
0
230
1
100
AcDbArc
50
0
51
90.000000000008143
0
LINE
5
194
100
AcDbEntity
8
CUTOUTS
100
AcDbLine
10
59.386500000000041
20
-3.0259999999999376
30
0
11
59.386500000000041
21
-16.023999999999951
31
0
0
ARC
5
195
100
AcDbEntity
8
CUTOUTS
100
AcDbCircle
10
58.886499999999998
20
-16.023999999999916
30
0
40
0.50000000000007816
210
-0
220
0
230
1
100
AcDbArc
50
270.00000000000489
51
360
0
LINE
5
196
100
AcDbEntity
8
CUTOUTS
100
AcDbLine
10
58.886500000000041
20
-16.523999999999994
30
0
11
45.888499999999993
21
-16.523999999999958
31
0
0
ARC
5
197
100
AcDbEntity
8
CUTOUTS
100
AcDbCircle
10
45.888499999999922
20
-16.024000000000029
30
0
40
0.49999999999993605
210
0
220
0
230
1
100
AcDbArc
50
180
51
270.00000000000813
0
LINE
5
198
100
AcDbEntity
8
CUTOUTS
100
AcDbLine
10
45.388499999999979
20
-16.023999999999987
30
0
11
45.388499999999951
21
-3.0260000000000442
31
0
0
ARC
5
199
100
AcDbEntity
8
CUTOUTS
100
AcDbCircle
10
45.888500000000022
20
-3.0260000000000797
30
0
40
0.50000000000007816
210
0
220
0
230
1
100
AcDbArc
50
90.000000000003254
51
180
0
ARC
5
19A
100
AcDbEntity
8
CUTOUTS
100
AcDbCircle
10
96.986499999999921
20
-16.023999999999916
30
0
40
0.50000000000007816
210
-0
220
0
230
1
100
AcDbArc
50
270.00000000000813
51
360
0
LINE
5
19B
100
AcDbEntity
8
CUTOUTS
100
AcDbLine
10
97.486500000000035
20
-3.0260000000000087
30
0
11
97.486499999999992
21
-16.023999999999987
31
0
0
ARC
5
19C
100
AcDbEntity
8
CUTOUTS
100
AcDbCircle
10
96.986500000000063
20
-3.0259999999999732
30
0
40
0.49999999999997158
210
-0
220
0
230
1
100
AcDbArc
50
0
51
90.000000000008143
0
LINE
5
19D
100
AcDbEntity
8
CUTOUTS
100
AcDbLine
10
83.988500000000016
20
-2.5260000000000016
30
0
11
96.986499999999992
21
-2.5260000000000016
31
0
0
ARC
5
19E
100
AcDbEntity
8
CUTOUTS
100
AcDbCircle
10
83.988500000000016
20
-3.0260000000000353
30
0
40
0.50000000000003375
210
0
220
-0
230
1
100
AcDbArc
50
90
51
180
0
LINE
5
19F
100
AcDbEntity
8
CUTOUTS
100
AcDbLine
10
83.488500000000002
20
-16.023999999999987
30
0
11
83.488499999999974
21
-3.0260000000000087
31
0
0
ARC
5
1A0
100
AcDbEntity
8
CUTOUTS
100
AcDbCircle
10
83.988499999999974
20
-16.024000000000036
30
0
40
0.49999999999997158
210
0
220
0
230
1
100
AcDbArc
50
180
51
270
0
LINE
5
1A1
100
AcDbEntity
8
CUTOUTS
100
AcDbLine
10
96.986499999999992
20
-16.523999999999994
30
0
11
83.988499999999974
21
-16.524000000000008
31
0
0
ARC
5
1A2
100
AcDbEntity
8
CUTOUTS
100
AcDbCircle
10
-30.31150000000002
20
-3.0259999999999998
30
0
40
0.49999999999999822
210
0
220
-0
230
1
100
AcDbArc
50
89.999999999997954
51
180
0
LINE
5
1A3
100
AcDbEntity
8
CUTOUTS
100
AcDbLine
10
-30.811500000000009
20
-16.023999999999987
30
0
11
-30.811500000000027
21
-3.0260000000000087
31
0
0
ARC
5
1A4
100
AcDbEntity
8
CUTOUTS
100
AcDbCircle
10
-30.311499999999985
20
-16.023999999999976
30
0
40
0.50000000000002487
210
0
220
0
230
1
100
AcDbArc
50
180
51
269.99999999999795
0
LINE
5
1A5
100
AcDbEntity
8
CUTOUTS
100
AcDbLine
10
-17.313500000000008
20
-16.523999999999994
30
0
11
-30.311500000000002
21
-16.523999999999994
31
0
0
ARC
5
1A6
100
AcDbEntity
8
CUTOUTS
100
AcDbCircle
10
-17.313500000000008
20
-16.023999999999994
30
0
40
0.49999999999999822
210
-0
220
0
230
1
100
AcDbArc
50
-90
51
0
0
LINE
5
1A7
100
AcDbEntity
8
CUTOUTS
100
AcDbLine
10
-16.813500000000001
20
-3.0260000000000087
30
0
11
-16.813500000000001
21
-16.023999999999987
31
0
0
ARC
5
1A8
100
AcDbEntity
8
CUTOUTS
100
AcDbCircle
10
-17.313500000000026
20
-3.0260000000000087
30
0
40
0.50000000000002487
210
0
220
-0
230
1
100
AcDbArc
50
0
51
89.999999999997954
0
LINE
5
1A9
100
AcDbEntity
8
CUTOUTS
100
AcDbLine
10
-30.311500000000002
20
-2.5260000000000016
30
0
11
-17.313500000000008
21
-2.5259999999999838
31
0
0
ARC
5
1AA
100
AcDbEntity
8
CUTOUTS
100
AcDbCircle
10
-49.361500000000035
20
-3.0259999999999998
30
0
40
0.49999999999999822
210
0
220
-0
230
1
100
AcDbArc
50
90
51
180
0
LINE
5
1AB
100
AcDbEntity
8
CUTOUTS
100
AcDbLine
10
-49.861500000000021
20
-16.023999999999987
30
0
11
-49.861500000000035
21
-3.0260000000000087
31
0
0
ARC
5
1AC
100
AcDbEntity
8
CUTOUTS
100
AcDbCircle
10
-49.361500000000049
20
-16.023999999999994
30
0
40
0.49999999999997158
210
0
220
0
230
1
100
AcDbArc
50
180
51
270.00000000000159
0
LINE
5
1AD
100
AcDbEntity
8
CUTOUTS
100
AcDbLine
10
-36.363500000000002
20
-16.523999999999994
30
0
11
-49.361500000000035
21
-16.523999999999972
31
0
0
ARC
5
1AE
100
AcDbEntity
8
CUTOUTS
100
AcDbCircle
10
-36.363499999999988
20
-16.023999999999994
30
0
40
0.49999999999999822
210
0
220
0
230
1
100
AcDbArc
50
-90.000000000001634
51
0
0
LINE
5
1AF
100
AcDbEntity
8
CUTOUTS
100
AcDbLine
10
-35.863499999999995
20
-3.0259999999999732
30
0
11
-35.863499999999995
21
-16.023999999999987
31
0
0
ARC
5
1B0
100
AcDbEntity
8
CUTOUTS
100
AcDbCircle
10
-36.363500000000016
20
-3.025999999999982
30
0
40
0.50000000000002487
210
0
220
-0
230
1
100
AcDbArc
50
0
51
89.99999999999838
0
LINE
5
1B1
100
AcDbEntity
8
CUTOUTS
100
AcDbLine
10
-49.361500000000035
20
-2.5260000000000016
30
0
11
-36.363500000000002
21
-2.5259999999999661
31
0
0
LINE
5
1B2
100
AcDbEntity
8
CUTOUTS
100
AcDbLine
10
77.936499999999981
20
-16.523999999999994
30
0
11
64.938500000000033
21
-16.523999999999958
31
0
0
ARC
5
1B3
100
AcDbEntity
8
CUTOUTS
100
AcDbCircle
10
64.938500000000005
20
-16.023999999999994
30
0
40
0.49999999999997158
210
0
220
0
230
1
100
AcDbArc
50
180
51
270.00000000000324
0
LINE
5
1B4
100
AcDbEntity
8
CUTOUTS
100
AcDbLine
10
64.438500000000033
20
-16.023999999999987
30
0
11
64.438500000000033
21
-3.0260000000000087
31
0
0
ARC
5
1B5
100
AcDbEntity
8
CUTOUTS
100
AcDbCircle
10
64.938500000000033
20
-3.0260000000000264
30
0
40
0.50000000000002487
210
0
220
0
230
1
100
AcDbArc
50
90.000000000003254
51
180
0
LINE
5
1B6
100
AcDbEntity
8
CUTOUTS
100
AcDbLine
10
64.938500000000005
20
-2.5260000000000016
30
0
11
77.936499999999981
21
-2.5260000000000105
31
0
0
ARC
5
1B7
100
AcDbEntity
8
CUTOUTS
100
AcDbCircle
10
77.936500000000052
20
-3.025999999999982
30
0
40
0.49999999999997158
210
0
220
-0
230
1
100
AcDbArc
50
0
51
90.000000000008143
0
LINE
5
1B8
100
AcDbEntity
8
CUTOUTS
100
AcDbLine
10
78.436500000000024
20
-3.0259999999999732
30
0
11
78.436499999999981
21
-16.023999999999916
31
0
0
ARC
5
1B9
100
AcDbEntity
8
CUTOUTS
100
AcDbCircle
10
77.93649999999991
20
-16.023999999999923
30
0
40
0.50000000000006928
210
-0
220
0
230
1
100
AcDbArc
50
-89.999999999991857
51
0
0
ARC
5
1BA
100
AcDbEntity
8
CUTOUTS
100
AcDbCircle
10
-88.751000000000005
20
-16.024000000000001
30
0
40
0.49999999999998934
210
0
220
0
230
1
100
AcDbArc
50
-90.000000000001634
51
0
0
LINE
5
1BB
100
AcDbEntity
8
CUTOUTS
100
AcDbLine
10
-88.251000000000047
20
-3.0260000000000087
30
0
11
-88.251000000000047
21
-16.023999999999987
31
0
0
ARC
5
1BC
100
AcDbEntity
8
CUTOUTS
100
AcDbCircle
10
-88.751000000000005
20
-3.0259999999999554
30
0
40
0.49999999999997158
210
-0
220
0
230
1
100
AcDbArc
50
0
51
90.000000000001634
0
LINE
5
1BD
100
AcDbEntity
8
CUTOUTS
100
AcDbLine
10
-101.74900000000001
20
-2.5260000000000016
30
0
11
-88.751000000000033
21
-2.5259999999999927
31
0
0
ARC
5
1BE
100
AcDbEntity
8
CUTOUTS
100
AcDbCircle
10
-101.749
20
-3.025999999999982
30
0
40
0.49999999999998046
210
0
220
0
230
1
100
AcDbArc
50
90.000000000001634
51
180
0
LINE
5
1BF
100
AcDbEntity
8
CUTOUTS
100
AcDbLine
10
-102.24900000000004
20
-16.023999999999987
30
0
11
-102.24899999999997
21
-3.0260000000000087
31
0
0
ARC
5
1C0
100
AcDbEntity
8
CUTOUTS
100
AcDbCircle
10
-101.74900000000001
20
-16.023999999999976
30
0
40
0.50000000000004263
210
0
220
0
230
1
100
AcDbArc
50
180
51
270
0
LINE
5
1C1
100
AcDbEntity
8
CUTOUTS
100
AcDbLine
10
-88.751000000000019
20
-16.523999999999994
30
0
11
-101.749
21
-16.523999999999994
31
0
0
ARC
5
1C2
100
AcDbEntity
8
CUTOUTS
100
AcDbCircle
10
-62.557249999999996
20
-16.023999999999994
30
0
40
0.49999999999999822
210
-0
220
0
230
1
100
AcDbArc
50
-90
51
0
0
LINE
5
1C3
100
AcDbEntity
8
CUTOUTS
100
AcDbLine
10
-62.05725000000001
20
-3.0260000000000087
30
0
11
-62.057249999999996
21
-16.023999999999987
31
0
0
ARC
5
1C4
100
AcDbEntity
8
CUTOUTS
100
AcDbCircle
10
-62.557249999999996
20
-3.0259999999999909
30
0
40
0.49999999999998934
210
-0
220
0
230
1
100
AcDbArc
50
0
51
90
0
LINE
5
1C5
100
AcDbEntity
8
CUTOUTS
100
AcDbLine
10
-75.555250000000015
20
-2.5260000000000016
30
0
11
-62.557249999999996
21
-2.5260000000000016
31
0
0
ARC
5
1C6
100
AcDbEntity
8
CUTOUTS
100
AcDbCircle
10
-75.555250000000029
20
-3.0259999999999643
30
0
40
0.4999999999999627
210
0
220
-0
230
1
100
AcDbArc
50
89.99999999999838
51
180
0
LINE
5
1C7
100
AcDbEntity
8
CUTOUTS
100
AcDbLine
10
-76.055250000000015
20
-16.023999999999987
30
0
11
-76.055250000000015
21
-3.0259999999999732
31
0
0
ARC
5
1C8
100
AcDbEntity
8
CUTOUTS
100
AcDbCircle
10
-75.555250000000015
20
-16.023999999999976
30
0
40
0.49999999999999822
210
0
220
0
230
1
100
AcDbArc
50
180
51
270
0
LINE
5
1C9
100
AcDbEntity
8
CUTOUTS
100
AcDbLine
10
-62.557249999999996
20
-16.523999999999994
30
0
11
-75.555250000000015
21
-16.523999999999972
31
0
0
ARC
5
1CA
100
AcDbEntity
8
CUTOUTS
100
AcDbCircle
10
39.8365000000001
20
-3.025999999999911
30
0
40
0.49999999999993605
210
-0
220
0
230
1
100
AcDbArc
50
0
51
90.000000000008143
0
LINE
5
1CB
100
AcDbEntity
8
CUTOUTS
100
AcDbLine
10
26.838500000000014
20
-2.5260000000000016
30
0
11
39.836500000000029
21
-2.5259999999999661
31
0
0
ARC
5
1CC
100
AcDbEntity
8
CUTOUTS
100
AcDbCircle
10
26.838500000000085
20
-3.0260000000000264
30
0
40
0.50000000000002487
210
0
220
0
230
1
100
AcDbArc
50
90.000000000008143
51
180
0
LINE
5
1CD
100
AcDbEntity
8
CUTOUTS
100
AcDbLine
10
26.338499999999971
20
-16.023999999999987
30
0
11
26.338500000000042
21
-3.0260000000000087
31
0
0
ARC
5
1CE
100
AcDbEntity
8
CUTOUTS
100
AcDbCircle
10
26.838499999999943
20
-16.023999999999976
30
0
40
0.49999999999997158
210
0
220
0
230
1
100
AcDbArc
50
180
51
270.00000000000813
0
LINE
5
1CF
100
AcDbEntity
8
CUTOUTS
100
AcDbLine
10
39.836500000000029
20
-16.523999999999994
30
0
11
26.838500000000014
21
-16.523999999999958
31
0
0
ARC
5
1D0
100
AcDbEntity
8
CUTOUTS
100
AcDbCircle
10
39.836499999999987
20
-16.023999999999916
30
0
40
0.50000000000007816
210
-0
220
0
230
1
100
AcDbArc
50
270.00000000000489
51
360
0
LINE
5
1D1
100
AcDbEntity
8
CUTOUTS
100
AcDbLine
10
40.336500000000029
20
-3.0259999999999376
30
0
11
40.336500000000029
21
-16.023999999999951
31
0
0
LINE
5
1D2
100
AcDbEntity
8
CUTOUTS
100
AcDbLine
10
1.736500000000003
20
-16.523999999999994
30
0
11
-11.261500000000026
21
-16.523999999999994
31
0
0
ARC
5
1D3
100
AcDbEntity
8
CUTOUTS
100
AcDbCircle
10
-11.261500000000009
20
-16.023999999999976
30
0
40
0.50000000000002487
210
0
220
0
230
1
100
AcDbArc
50
180
51
269.99999999999795
0
LINE
5
1D4
100
AcDbEntity
8
CUTOUTS
100
AcDbLine
10
-11.761500000000034
20
-16.023999999999987
30
0
11
-11.761500000000051
21
-3.0260000000000087
31
0
0
ARC
5
1D5
100
AcDbEntity
8
CUTOUTS
100
AcDbCircle
10
-11.261500000000044
20
-3.0259999999999998
30
0
40
0.49999999999999822
210
0
220
-0
230
1
100
AcDbArc
50
89.999999999997954
51
180
0
LINE
5
1D6
100
AcDbEntity
8
CUTOUTS
100
AcDbLine
10
-11.261500000000026
20
-2.5260000000000016
30
0
11
1.736500000000003
21
-2.5259999999999838
31
0
0
ARC
5
1D7
100
AcDbEntity
8
CUTOUTS
100
AcDbCircle
10
1.7364999999999853
20
-3.0260000000000087
30
0
40
0.50000000000002487
210
0
220
-0
230
1
100
AcDbArc
50
0
51
89.999999999997954
0
LINE
5
1D8
100
AcDbEntity
8
CUTOUTS
100
AcDbLine
10
2.2365000000000101
20
-3.0260000000000087
30
0
11
2.2364999999999924
21
-16.023999999999987
31
0
0
ARC
5
1D9
100
AcDbEntity
8
CUTOUTS
100
AcDbCircle
10
1.736500000000003
20
-16.023999999999994
30
0
40
0.49999999999999822
210
-0
220
0
230
1
100
AcDbArc
50
-90
51
0
0
LINE
5
1DA
100
AcDbEntity
8
CUTOUTS
100
AcDbLine
10
30.311499999999985
20
2.5260000000000193
30
0
11
17.313500000000008
21
2.5260000000000016
31
0
0
ARC
5
1DB
100
AcDbEntity
8
CUTOUTS
100
AcDbCircle
10
17.313500000000008
20
3.0260000000000353
30
0
40
0.50000000000002487
210
0
220
0
230
1
100
AcDbArc
50
180
51
270
0
LINE
5
1DC
100
AcDbEntity
8
CUTOUTS
100
AcDbLine
10
16.813499999999983
20
3.0260000000000264
30
0
11
16.813500000000001
21
16.024000000000001
31
0
0
ARC
5
1DD
100
AcDbEntity
8
CUTOUTS
100
AcDbCircle
10
17.313500000000008
20
16.024000000000012
30
0
40
0.49999999999999822
210
0
220
-0
230
1
100
AcDbArc
50
90
51
180
0
LINE
5
1DE
100
AcDbEntity
8
CUTOUTS
100
AcDbLine
10
17.313500000000008
20
16.524000000000008
30
0
11
30.311499999999985
21
16.524000000000001
31
0
0
ARC
5
1DF
100
AcDbEntity
8
CUTOUTS
100
AcDbCircle
10
30.311500000000056
20
16.024000000000029
30
0
40
0.49999999999997158
210
0
220
-0
230
1
100
AcDbArc
50
0
51
90.000000000008143
0
LINE
5
1E0
100
AcDbEntity
8
CUTOUTS
100
AcDbLine
10
30.811500000000027
20
16.024000000000036
30
0
11
30.811500000000027
21
3.0260000000000264
31
0
0
ARC
5
1E1
100
AcDbEntity
8
CUTOUTS
100
AcDbCircle
10
30.31150000000002
20
3.0260000000000087
30
0
40
0.49999999999998934
210
0
220
0
230
1
100
AcDbArc
50
-90.000000000004079
51
0
0
ARC
5
1E2
100
AcDbEntity
8
CUTOUTS
100
AcDbCircle
10
106.5115
20
3.0260000000000531
30
0
40
0.50000000000003375
210
-0
220
0
230
1
100
AcDbArc
50
270
51
360
0
LINE
5
1E3
100
AcDbEntity
8
CUTOUTS
100
AcDbLine
10
107.01150000000004
20
16.024000000000022
30
0
11
107.01150000000004
21
3.0260000000000264
31
0
0
ARC
5
1E4
100
AcDbEntity
8
CUTOUTS
100
AcDbCircle
10
106.51149999999996
20
16.023999999999987
30
0
40
0.50000000000007816
210
0
220
-0
230
1
100
AcDbArc
50
0
51
89.999999999995111
0
LINE
5
1E5
100
AcDbEntity
8
CUTOUTS
100
AcDbLine
10
93.513500000000022
20
16.524000000000008
30
0
11
106.5115
21
16.524000000000029
31
0
0
ARC
5
1E6
100
AcDbEntity
8
CUTOUTS
100
AcDbCircle
10
93.513500000000022
20
16.024000000000012
30
0
40
0.49999999999999822
210
0
220
-0
230
1
100
AcDbArc
50
90
51
180
0
LINE
5
1E7
100
AcDbEntity
8
CUTOUTS
100
AcDbLine
10
93.013499999999979
20
3.0259999999999909
30
0
11
93.013499999999979
21
16.023999999999987
31
0
0
ARC
5
1E8
100
AcDbEntity
8
CUTOUTS
100
AcDbCircle
10
93.513499999999951
20
3.0259999999999998
30
0
40
0.49999999999997158
210
0
220
0
230
1
100
AcDbArc
50
180
51
270.00000000000813
0
LINE
5
1E9
100
AcDbEntity
8
CUTOUTS
100
AcDbLine
10
106.5115
20
2.5260000000000193
30
0
11
93.513500000000022
21
2.5260000000000193
31
0
0
LINE
5
1EA
100
AcDbEntity
8
CUTOUTS
100
AcDbLine
10
137.46775000000005
20
-35.57399999999997
30
0
11
124.46974999999996
21
-35.574000000000019
31
0
0
ARC
5
1EB
100
AcDbEntity
8
CUTOUTS
100
AcDbCircle
10
124.46974999999996
20
-35.074000000000012
30
0
40
0.50000000000000711
210
0
220
0
230
1
100
AcDbArc
50
180
51
270
0
LINE
5
1EC
100
AcDbEntity
8
CUTOUTS
100
AcDbLine
10
123.96974999999996
20
-35.073999999999998
30
0
11
123.96974999999999
21
-22.075999999999986
31
0
0
ARC
5
1ED
100
AcDbEntity
8
CUTOUTS
100
AcDbCircle
10
124.46975
20
-22.076000000000029
30
0
40
0.50000000000001599
210
0
220
-0
230
1
100
AcDbArc
50
90
51
180
0
LINE
5
1EE
100
AcDbEntity
8
CUTOUTS
100
AcDbLine
10
124.46975
20
-21.576000000000015
30
0
11
137.46775000000005
21
-21.575999999999979
31
0
0
ARC
5
1EF
100
AcDbEntity
8
CUTOUTS
100
AcDbCircle
10
137.46775000000008
20
-22.075999999999965
30
0
40
0.49999999999993605
210
-0
220
0
230
1
100
AcDbArc
50
0
51
90.000000000003254
0
LINE
5
1F0
100
AcDbEntity
8
CUTOUTS
100
AcDbLine
10
137.96775000000002
20
-22.075999999999986
30
0
11
137.96775000000005
21
-35.073999999999998
31
0
0
ARC
5
1F1
100
AcDbEntity
8
CUTOUTS
100
AcDbCircle
10
137.46775000000005
20
-35.073999999999941
30
0
40
0.50000000000002487
210
-0
220
0
230
1
100
AcDbArc
50
270
51
360
0
LINE
5
1F2
100
AcDbEntity
8
CUTOUTS
100
AcDbLine
10
-88.251000000000047
20
35.074000000000012
30
0
11
-88.251000000000047
21
22.076000000000001
31
0
0
ARC
5
1F3
100
AcDbEntity
8
CUTOUTS
100
AcDbCircle
10
-88.751000000000033
20
22.076000000000015
30
0
40
0.50000000000000266
210
-0
220
0
230
1
100
AcDbArc
50
270
51
360
0
LINE
5
1F4
100
AcDbEntity
8
CUTOUTS
100
AcDbLine
10
-88.751000000000033
20
21.576000000000015
30
0
11
-101.749
21
21.575999999999993
31
0
0
ARC
5
1F5
100
AcDbEntity
8
CUTOUTS
100
AcDbCircle
10
-101.74900000000001
20
22.076000000000001
30
0
40
0.50000000000000711
210
0
220
0
230
1
100
AcDbArc
50
180
51
270.00000000000159
0
LINE
5
1F6
100
AcDbEntity
8
CUTOUTS
100
AcDbLine
10
-102.24900000000002
20
22.076000000000001
30
0
11
-102.24900000000002
21
35.074000000000012
31
0
0
ARC
5
1F7
100
AcDbEntity
8
CUTOUTS
100
AcDbCircle
10
-101.74900000000001
20
35.074000000000012
30
0
40
0.50000000000000711
210
0
220
-0
230
1
100
AcDbArc
50
90
51
180
0
LINE
5
1F8
100
AcDbEntity
8
CUTOUTS
100
AcDbLine
10
-101.74900000000001
20
35.574000000000019
30
0
11
-88.751000000000019
21
35.574000000000005
31
0
0
ARC
5
1F9
100
AcDbEntity
8
CUTOUTS
100
AcDbCircle
10
-88.751000000000033
20
35.073999999999998
30
0
40
0.50000000000000711
210
0
220
-0
230
1
100
AcDbArc
50
0
51
89.99999999999838
0
ARC
5
1FA
100
AcDbEntity
8
CUTOUTS
100
AcDbCircle
10
63.64899999999993
20
22.076000000000079
30
0
40
0.50000000000006484
210
-0
220
0
230
1
100
AcDbArc
50
270.00000000000813
51
360
0
LINE
5
1FB
100
AcDbEntity
8
CUTOUTS
100
AcDbLine
10
64.149000000000015
20
35.074000000000012
30
0
11
64.149000000000015
21
22.076000000000001
31
0
0
ARC
5
1FC
100
AcDbEntity
8
CUTOUTS
100
AcDbCircle
10
63.649000000000001
20
35.074000000000026
30
0
40
0.50000000000000711
210
-0
220
0
230
1
100
AcDbArc
50
0
51
90
0
LINE
5
1FD
100
AcDbEntity
8
CUTOUTS
100
AcDbLine
10
50.650999999999996
20
35.574000000000019
30
0
11
63.649000000000001
21
35.574000000000019
31
0
0
ARC
5
1FE
100
AcDbEntity
8
CUTOUTS
100
AcDbCircle
10
50.650999999999996
20
35.073999999999977
30
0
40
0.50000000000004263
210
0
220
-0
230
1
100
AcDbArc
50
90
51
180
0
LINE
5
1FF
100
AcDbEntity
8
CUTOUTS
100
AcDbLine
10
50.150999999999954
20
22.075999999999965
30
0
11
50.150999999999954
21
35.074000000000012
31
0
0
ARC
5
200
100
AcDbEntity
8
CUTOUTS
100
AcDbCircle
10
50.650999999999925
20
22.075999999999986
30
0
40
0.49999999999997158
210
0
220
0
230
1
100
AcDbArc
50
180
51
270.00000000000813
0
LINE
5
201
100
AcDbEntity
8
CUTOUTS
100
AcDbLine
10
63.649000000000001
20
21.576000000000015
30
0
11
50.650999999999996
21
21.575999999999993
31
0
0
ARC
5
202
100
AcDbEntity
8
CUTOUTS
100
AcDbCircle
10
-44.599000000000011
20
22.076000000000022
30
0
40
0.49999999999998934
210
0
220
0
230
1
100
AcDbArc
50
180
51
270.00000000000244
0
LINE
5
203
100
AcDbEntity
8
CUTOUTS
100
AcDbLine
10
-31.600999999999999
20
21.576000000000015
30
0
11
-44.59899999999999
21
21.576000000000029
31
0
0
ARC
5
204
100
AcDbEntity
8
CUTOUTS
100
AcDbCircle
10
-31.600999999999999
20
22.076000000000022
30
0
40
0.50000000000000711
210
-0
220
0
230
1
100
AcDbArc
50
270
51
360
0
LINE
5
205
100
AcDbEntity
8
CUTOUTS
100
AcDbLine
10
-31.100999999999992
20
35.074000000000012
30
0
11
-31.100999999999974
21
22.076000000000001
31
0
0
ARC
5
206
100
AcDbEntity
8
CUTOUTS
100
AcDbCircle
10
-31.601000000000017
20
35.073999999999991
30
0
40
0.50000000000002487
210
0
220
-0
230
1
100
AcDbArc
50
0
51
89.999999999997954
0
LINE
5
207
100
AcDbEntity
8
CUTOUTS
100
AcDbLine
10
-44.59899999999999
20
35.574000000000019
30
0
11
-31.600999999999999
21
35.574000000000019
31
0
0
ARC
5
208
100
AcDbEntity
8
CUTOUTS
100
AcDbCircle
10
-44.599000000000011
20
35.074000000000005
30
0
40
0.50000000000001599
210
0
220
-0
230
1
100
AcDbArc
50
89.999999999997556
51
180
0
LINE
5
209
100
AcDbEntity
8
CUTOUTS
100
AcDbLine
10
-45.099000000000004
20
22.076000000000001
30
0
11
-45.099000000000032
21
35.074000000000012
31
0
0
LINE
5
20A
100
AcDbEntity
8
CUTOUTS
100
AcDbLine
10
89.217750000000024
20
-20.075999999999993
30
0
11
89.217749999999981
21
-21.575999999999979
31
0
0
LINE
5
20B
100
AcDbEntity
8
CUTOUTS
100
AcDbLine
10
89.217749999999981
20
-21.575999999999979
30
0
11
94.605250000000026
21
-21.575999999999979
31
0
0
ARC
5
20C
100
AcDbEntity
8
CUTOUTS
100
AcDbCircle
10
94.605250000000026
20
-22.075999999999976
30
0
40
0.49999999999997158
210
-0
220
0
230
1
100
AcDbArc
50
0
51
89.99999999999838
0
LINE
5
20D
100
AcDbEntity
8
CUTOUTS
100
AcDbLine
10
95.105249999999998
20
-22.075999999999986
30
0
11
95.105250000000026
21
-35.073999999999998
31
0
0
ARC
5
20E
100
AcDbEntity
8
CUTOUTS
100
AcDbCircle
10
94.605250000000026
20
-35.073999999999941
30
0
40
0.50000000000002487
210
-0
220
0
230
1
100
AcDbArc
50
270
51
360
0
LINE
5
20F
100
AcDbEntity
8
CUTOUTS
100
AcDbLine
10
94.605250000000026
20
-35.57399999999997
30
0
11
81.607249999999979
21
-35.57399999999997
31
0
0
ARC
5
210
100
AcDbEntity
8
CUTOUTS
100
AcDbCircle
10
81.607249999999937
20
-35.073999999999998
30
0
40
0.49999999999993605
210
0
220
0
230
1
100
AcDbArc
50
180
51
270.00000000000489
0
LINE
5
211
100
AcDbEntity
8
CUTOUTS
100
AcDbLine
10
81.107250000000008
20
-35.073999999999998
30
0
11
81.107249999999965
21
-22.076000000000057
31
0
0
ARC
5
212
100
AcDbEntity
8
CUTOUTS
100
AcDbCircle
10
81.60725000000005
20
-22.076000000000047
30
0
40
0.50000000000006928
210
0
220
0
230
1
100
AcDbArc
50
90.000000000008143
51
180
0
LINE
5
213
100
AcDbEntity
8
CUTOUTS
100
AcDbLine
10
81.607249999999979
20
-21.575999999999979
30
0
11
82.219749999999991
21
-21.575999999999979
31
0
0
LINE
5
214
100
AcDbEntity
8
CUTOUTS
100
AcDbLine
10
82.219749999999991
20
-21.575999999999979
30
0
11
82.219749999999991
21
-20.076000000000029
31
0
0
ARC
5
215
100
AcDbEntity
8
CUTOUTS
100
AcDbCircle
10
82.719750000000062
20
-20.076000000000064
30
0
40
0.50000000000007816
210
0
220
0
230
1
100
AcDbArc
50
90.000000000003254
51
180
0
LINE
5
216
100
AcDbEntity
8
CUTOUTS
100
AcDbLine
10
82.719750000000033
20
-19.575999999999986
30
0
11
88.717749999999981
21
-19.576000000000022
31
0
0
ARC
5
217
100
AcDbEntity
8
CUTOUTS
100
AcDbCircle
10
88.717750000000052
20
-20.076000000000001
30
0
40
0.49999999999997158
210
0
220
-0
230
1
100
AcDbArc
50
0
51
90.000000000008143
0
LINE
5
218
100
AcDbEntity
8
CUTOUTS
100
AcDbLine
10
26.049000000000024
20
35.074000000000048
30
0
11
26.049000000000024
21
22.076000000000036
31
0
0
ARC
5
219
100
AcDbEntity
8
CUTOUTS
100
AcDbCircle
10
25.548999999999982
20
22.076000000000057
30
0
40
0.50000000000004263
210
-0
220
0
230
1
100
AcDbArc
50
270
51
360
0
LINE
5
21A
100
AcDbEntity
8
CUTOUTS
100
AcDbLine
10
25.548999999999982
20
21.576000000000015
30
0
11
12.551000000000005
21
21.576000000000015
31
0
0
ARC
5
21B
100
AcDbEntity
8
CUTOUTS
100
AcDbCircle
10
12.551000000000005
20
22.076000000000015
30
0
40
0.50000000000000711
210
0
220
0
230
1
100
AcDbArc
50
180
51
270
0
LINE
5
21C
100
AcDbEntity
8
CUTOUTS
100
AcDbLine
10
12.050999999999998
20
22.076000000000001
30
0
11
12.050999999999998
21
35.074000000000012
31
0
0
ARC
5
21D
100
AcDbEntity
8
CUTOUTS
100
AcDbCircle
10
12.551000000000005
20
35.074000000000005
30
0
40
0.50000000000001599
210
0
220
-0
230
1
100
AcDbArc
50
90
51
180
0
LINE
5
21E
100
AcDbEntity
8
CUTOUTS
100
AcDbLine
10
12.551000000000005
20
35.574000000000019
30
0
11
25.548999999999982
21
35.574000000000019
31
0
0
ARC
5
21F
100
AcDbEntity
8
CUTOUTS
100
AcDbCircle
10
25.549000000000053
20
35.074000000000034
30
0
40
0.49999999999997158
210
0
220
-0
230
1
100
AcDbArc
50
0
51
90.000000000008143
0
LINE
5
220
100
AcDbEntity
8
CUTOUTS
100
AcDbLine
10
82.698999999999984
20
21.576000000000015
30
0
11
69.701000000000008
21
21.575999999999993
31
0
0
ARC
5
221
100
AcDbEntity
8
CUTOUTS
100
AcDbCircle
10
69.700999999999937
20
22.075999999999961
30
0
40
0.49999999999997158
210
0
220
0
230
1
100
AcDbArc
50
180
51
270.00000000000813
0
LINE
5
222
100
AcDbEntity
8
CUTOUTS
100
AcDbLine
10
69.200999999999965
20
22.076000000000001
30
0
11
69.200999999999993
21
35.073999999999977
31
0
0
ARC
5
223
100
AcDbEntity
8
CUTOUTS
100
AcDbCircle
10
69.701000000000036
20
35.073999999999963
30
0
40
0.5000000000000604
210
0
220
0
230
1
100
AcDbArc
50
90.000000000003254
51
180
0
LINE
5
224
100
AcDbEntity
8
CUTOUTS
100
AcDbLine
10
69.701000000000008
20
35.574000000000019
30
0
11
82.698999999999984
21
35.574000000000055
31
0
0
ARC
5
225
100
AcDbEntity
8
CUTOUTS
100
AcDbCircle
10
82.698999999999941
20
35.073999999999998
30
0
40
0.50000000000007816
210
0
220
-0
230
1
100
AcDbArc
50
0
51
89.999999999995111
0
LINE
5
226
100
AcDbEntity
8
CUTOUTS
100
AcDbLine
10
83.199000000000026
20
35.074000000000012
30
0
11
83.199000000000026
21
22.076000000000057
31
0
0
ARC
5
227
100
AcDbEntity
8
CUTOUTS
100
AcDbCircle
10
82.698999999999941
20
22.076000000000072
30
0
40
0.5000000000000604
210
-0
220
0
230
1
100
AcDbArc
50
270.00000000000489
51
360
0
ARC
5
228
100
AcDbEntity
8
CUTOUTS
100
AcDbCircle
10
-39.836499999999987
20
3.0260000000000353
30
0
40
0.50000000000002487
210
0
220
0
230
1
100
AcDbArc
50
180
51
269.99999999999511
0
LINE
5
229
100
AcDbEntity
8
CUTOUTS
100
AcDbLine
10
-26.838499999999996
20
2.5260000000000193
30
0
11
-39.836500000000029
21
2.5260000000000105
31
0
0
ARC
5
22A
100
AcDbEntity
8
CUTOUTS
100
AcDbCircle
10
-26.838499999999978
20
3.0260000000000176
30
0
40
0.49999999999999822
210
0
220
0
230
1
100
AcDbArc
50
-90.000000000002032
51
0
0
LINE
5
22B
100
AcDbEntity
8
CUTOUTS
100
AcDbLine
10
-26.338499999999989
20
16.024000000000001
30
0
11
-26.338499999999971
21
3.0260000000000264
31
0
0
ARC
5
22C
100
AcDbEntity
8
CUTOUTS
100
AcDbCircle
10
-26.838500000000014
20
16.023999999999994
30
0
40
0.50000000000002487
210
0
220
-0
230
1
100
AcDbArc
50
0
51
89.999999999997954
0
LINE
5
22D
100
AcDbEntity
8
CUTOUTS
100
AcDbLine
10
-39.836500000000008
20
16.524000000000008
30
0
11
-26.838499999999996
21
16.524000000000008
31
0
0
ARC
5
22E
100
AcDbEntity
8
CUTOUTS
100
AcDbCircle
10
-39.836500000000029
20
16.024000000000012
30
0
40
0.49999999999999822
210
0
220
-0
230
1
100
AcDbArc
50
89.999999999997556
51
180
0
LINE
5
22F
100
AcDbEntity
8
CUTOUTS
100
AcDbLine
10
-40.336500000000015
20
3.0260000000000264
30
0
11
-40.336500000000029
21
16.024000000000001
31
0
0
ARC
5
230
100
AcDbEntity
8
CUTOUTS
100
AcDbCircle
10
-120.79900000000002
20
22.076000000000011
30
0
40
0.50000000000000711
210
0
220
0
230
1
100
AcDbArc
50
180
51
270
0
LINE
5
231
100
AcDbEntity
8
CUTOUTS
100
AcDbLine
10
-107.80100000000003
20
21.576000000000015
30
0
11
-120.79900000000001
21
21.575999999999993
31
0
0
ARC
5
232
100
AcDbEntity
8
CUTOUTS
100
AcDbCircle
10
-107.80100000000003
20
22.076000000000015
30
0
40
0.50000000000000266
210
-0
220
0
230
1
100
AcDbArc
50
270
51
360
0
LINE
5
233
100
AcDbEntity
8
CUTOUTS
100
AcDbLine
10
-107.30100000000002
20
35.074000000000012
30
0
11
-107.30100000000002
21
22.076000000000001
31
0
0
ARC
5
234
100
AcDbEntity
8
CUTOUTS
100
AcDbCircle
10
-107.80100000000003
20
35.074000000000019
30
0
40
0.50000000000000711
210
-0
220
0
230
1
100
AcDbArc
50
0
51
90.000000000001634
0
LINE
5
235
100
AcDbEntity
8
CUTOUTS
100
AcDbLine
10
-120.79900000000002
20
35.574000000000019
30
0
11
-107.80100000000003
21
35.574000000000019
31
0
0
ARC
5
236
100
AcDbEntity
8
CUTOUTS
100
AcDbCircle
10
-120.79900000000002
20
35.074000000000012
30
0
40
0.50000000000001155
210
0
220
-0
230
1
100
AcDbArc
50
90
51
180
0
LINE
5
237
100
AcDbEntity
8
CUTOUTS
100
AcDbLine
10
-121.29900000000001
20
22.076000000000001
30
0
11
-121.29900000000005
21
35.074000000000012
31
0
0
LINE
5
238
100
AcDbEntity
8
CUTOUTS
100
AcDbLine
10
-50.151000000000025
20
35.073999999999998
30
0
11
-50.151000000000025
21
22.076000000000001
31
0
0
ARC
5
239
100
AcDbEntity
8
CUTOUTS
100
AcDbCircle
10
-50.651000000000025
20
22.076000000000015
30
0
40
0.50000000000000266
210
-0
220
0
230
1
100
AcDbArc
50
270
51
360
0
LINE
5
23A
100
AcDbEntity
8
CUTOUTS
100
AcDbLine
10
-50.651000000000025
20
21.576000000000015
30
0
11
-63.649000000000001
21
21.576000000000015
31
0
0
ARC
5
23B
100
AcDbEntity
8
CUTOUTS
100
AcDbCircle
10
-63.649000000000022
20
22.076000000000008
30
0
40
0.49999999999999822
210
0
220
0
230
1
100
AcDbArc
50
180
51
270.0000000000008
0
LINE
5
23C
100
AcDbEntity
8
CUTOUTS
100
AcDbLine
10
-64.149000000000015
20
22.076000000000001
30
0
11
-64.149000000000015
21
35.074000000000012
31
0
0
ARC
5
23D
100
AcDbEntity
8
CUTOUTS
100
AcDbCircle
10
-63.649000000000029
20
35.074000000000012
30
0
40
0.50000000000000711
210
0
220
-0
230
1
100
AcDbArc
50
89.99999999999919
51
180
0
LINE
5
23E
100
AcDbEntity
8
CUTOUTS
100
AcDbLine
10
-63.649000000000022
20
35.574000000000019
30
0
11
-50.651000000000025
21
35.574000000000019
31
0
0
ARC
5
23F
100
AcDbEntity
8
CUTOUTS
100
AcDbCircle
10
-50.651000000000046
20
35.073999999999998
30
0
40
0.50000000000002487
210
0
220
-0
230
1
100
AcDbArc
50
0
51
89.999999999997556
0
LINE
5
240
100
AcDbEntity
8
CUTOUTS
100
AcDbLine
10
-121.29900000000001
20
3.0260000000000264
30
0
11
-121.29900000000005
21
16.024000000000001
31
0
0
ARC
5
241
100
AcDbEntity
8
CUTOUTS
100
AcDbCircle
10
-120.79900000000002
20
16.024000000000012
30
0
40
0.49999999999999822
210
0
220
-0
230
1
100
AcDbArc
50
90
51
180
0
LINE
5
242
100
AcDbEntity
8
CUTOUTS
100
AcDbLine
10
-120.79900000000002
20
16.524000000000008
30
0
11
-107.80100000000003
21
16.524000000000008
31
0
0
ARC
5
243
100
AcDbEntity
8
CUTOUTS
100
AcDbCircle
10
-107.80100000000003
20
16.024000000000001
30
0
40
0.50000000000000711
210
0
220
-0
230
1
100
AcDbArc
50
0
51
90
0
LINE
5
244
100
AcDbEntity
8
CUTOUTS
100
AcDbLine
10
-107.30100000000002
20
16.024000000000001
30
0
11
-107.30100000000004
21
3.0260000000000264
31
0
0
ARC
5
245
100
AcDbEntity
8
CUTOUTS
100
AcDbCircle
10
-107.80100000000003
20
3.0260000000000176
30
0
40
0.49999999999999822
210
-0
220
0
230
1
100
AcDbArc
50
-90
51
0
0
LINE
5
246
100
AcDbEntity
8
CUTOUTS
100
AcDbLine
10
-107.80100000000003
20
2.5260000000000193
30
0
11
-120.79900000000001
21
2.5260000000000371
31
0
0
ARC
5
247
100
AcDbEntity
8
CUTOUTS
100
AcDbCircle
10
-120.79900000000001
20
3.0260000000000353
30
0
40
0.50000000000000711
210
0
220
0
230
1
100
AcDbArc
50
180
51
270.00000000000324
0
LINE
5
248
100
AcDbEntity
8
CUTOUTS
100
AcDbLine
10
49.361500000000035
20
2.5260000000000193
30
0
11
36.363499999999988
21
2.5260000000000193
31
0
0
ARC
5
249
100
AcDbEntity
8
CUTOUTS
100
AcDbCircle
10
36.363499999999874
20
3.0259999999999554
30
0
40
0.49999999999990052
210
0
220
0
230
1
100
AcDbArc
50
180
51
270.00000000001302
0
LINE
5
24A
100
AcDbEntity
8
CUTOUTS
100
AcDbLine
10
35.863499999999974
20
3.0259999999999909
30
0
11
35.863499999999974
21
16.024000000000001
31
0
0
ARC
5
24B
100
AcDbEntity
8
CUTOUTS
100
AcDbCircle
10
36.363499999999988
20
16.024000000000022
30
0
40
0.49999999999998934
210
0
220
-0
230
1
100
AcDbArc
50
90
51
180
0
LINE
5
24C
100
AcDbEntity
8
CUTOUTS
100
AcDbLine
10
36.363499999999988
20
16.524000000000008
30
0
11
49.361500000000035
21
16.524000000000008
31
0
0
ARC
5
24D
100
AcDbEntity
8
CUTOUTS
100
AcDbCircle
10
49.361500000000063
20
16.024000000000047
30
0
40
0.49999999999993605
210
-0
220
0
230
1
100
AcDbArc
50
0
51
90.000000000003254
0
LINE
5
24E
100
AcDbEntity
8
CUTOUTS
100
AcDbLine
10
49.861500000000007
20
16.024000000000036
30
0
11
49.861500000000035
21
3.0260000000000264
31
0
0
ARC
5
24F
100
AcDbEntity
8
CUTOUTS
100
AcDbCircle
10
49.361500000000063
20
3.0259999999999909
30
0
40
0.49999999999997158
210
0
220
0
230
1
100
AcDbArc
50
-90.000000000003254
51
0
0
ARC
5
250
100
AcDbEntity
8
CUTOUTS
100
AcDbCircle
10
-88.751000000000033
20
16.024000000000029
30
0
40
0.49999999999997158
210
-0
220
0
230
1
100
AcDbArc
50
0
51
89.99999999999838
0
LINE
5
251
100
AcDbEntity
8
CUTOUTS
100
AcDbLine
10
-101.74900000000001
20
16.524000000000008
30
0
11
-88.751000000000019
21
16.524000000000008
31
0
0
ARC
5
252
100
AcDbEntity
8
CUTOUTS
100
AcDbCircle
10
-101.749
20
16.024000000000001
30
0
40
0.50000000000000711
210
0
220
0
230
1
100
AcDbArc
50
90.000000000001634
51
180
0
LINE
5
253
100
AcDbEntity
8
CUTOUTS
100
AcDbLine
10
-102.24900000000002
20
3.0260000000000264
30
0
11
-102.249
21
16.024000000000022
31
0
0
ARC
5
254
100
AcDbEntity
8
CUTOUTS
100
AcDbCircle
10
-101.74900000000002
20
3.0260000000000087
30
0
40
0.49999999999998934
210
0
220
0
230
1
100
AcDbArc
50
180
51
270.00000000000324
0
LINE
5
255
100
AcDbEntity
8
CUTOUTS
100
AcDbLine
10
-88.751000000000033
20
2.5260000000000193
30
0
11
-101.749
21
2.5260000000000193
31
0
0
ARC
5
256
100
AcDbEntity
8
CUTOUTS
100
AcDbCircle
10
-88.751000000000019
20
3.0260000000000087
30
0
40
0.49999999999998934
210
0
220
0
230
1
100
AcDbArc
50
-90.000000000001634
51
0
0
LINE
5
257
100
AcDbEntity
8
CUTOUTS
100
AcDbLine
10
-88.251000000000047
20
16.024000000000001
30
0
11
-88.251000000000033
21
3.0260000000000264
31
0
0
LINE
5
258
100
AcDbEntity
8
CUTOUTS
100
AcDbLine
10
126.85099999999997
20
35.574000000000019
30
0
11
139.84900000000002
21
35.57399999999997
31
0
0
ARC
5
259
100
AcDbEntity
8
CUTOUTS
100
AcDbCircle
10
139.84900000000005
20
35.074000000000034
30
0
40
0.49999999999993605
210
-0
220
0
230
1
100
AcDbArc
50
0
51
90.000000000003254
0
LINE
5
25A
100
AcDbEntity
8
CUTOUTS
100
AcDbLine
10
140.34899999999999
20
35.074000000000012
30
0
11
140.34900000000002
21
22.076000000000001
31
0
0
ARC
5
25B
100
AcDbEntity
8
CUTOUTS
100
AcDbCircle
10
139.84900000000005
20
22.075999999999986
30
0
40
0.49999999999997158
210
0
220
0
230
1
100
AcDbArc
50
-90.000000000003254
51
0
0
LINE
5
25C
100
AcDbEntity
8
CUTOUTS
100
AcDbLine
10
139.84900000000002
20
21.576000000000015
30
0
11
126.85099999999997
21
21.576000000000029
31
0
0
ARC
5
25D
100
AcDbEntity
8
CUTOUTS
100
AcDbCircle
10
126.85099999999993
20
22.075999999999997
30
0
40
0.49999999999993605
210
0
220
0
230
1
100
AcDbArc
50
180
51
270.00000000000489
0
LINE
5
25E
100
AcDbEntity
8
CUTOUTS
100
AcDbLine
10
126.351
20
22.076000000000001
30
0
11
126.35099999999996
21
35.074000000000012
31
0
0
ARC
5
25F
100
AcDbEntity
8
CUTOUTS
100
AcDbCircle
10
126.851
20
35.073999999999955
30
0
40
0.50000000000006484
210
0
220
0
230
1
100
AcDbArc
50
90.000000000003254
51
180
0
ARC
5
260
100
AcDbEntity
8
CUTOUTS
100
AcDbCircle
10
-139.84900000000005
20
3.0260000000000264
30
0
40
0.49999999999998934
210
0
220
0
230
1
100
AcDbArc
50
180
51
270
0
LINE
5
261
100
AcDbEntity
8
CUTOUTS
100
AcDbLine
10
-126.85100000000006
20
2.5260000000000193
30
0
11
-139.84900000000005
21
2.5260000000000371
31
0
0
ARC
5
262
100
AcDbEntity
8
CUTOUTS
100
AcDbCircle
10
-126.851
20
3.0260000000000264
30
0
40
0.50000000000000711
210
0
220
0
230
1
100
AcDbArc
50
-90.000000000006523
51
0
0
LINE
5
263
100
AcDbEntity
8
CUTOUTS
100
AcDbLine
10
-126.35100000000006
20
16.024000000000001
30
0
11
-126.351
21
3.0260000000000264
31
0
0
ARC
5
264
100
AcDbEntity
8
CUTOUTS
100
AcDbCircle
10
-126.85100000000006
20
16.024000000000012
30
0
40
0.50000000000000711
210
-0
220
0
230
1
100
AcDbArc
50
0
51
90
0
LINE
5
265
100
AcDbEntity
8
CUTOUTS
100
AcDbLine
10
-139.84900000000005
20
16.524000000000008
30
0
11
-126.85100000000004
21
16.524000000000008
31
0
0
ARC
5
266
100
AcDbEntity
8
CUTOUTS
100
AcDbCircle
10
-139.84900000000005
20
16.024000000000012
30
0
40
0.49999999999999822
210
0
220
-0
230
1
100
AcDbArc
50
90
51
180
0
LINE
5
267
100
AcDbEntity
8
CUTOUTS
100
AcDbLine
10
-140.34900000000002
20
3.0260000000000264
30
0
11
-140.34900000000005
21
16.024000000000001
31
0
0
LINE
5
268
100
AcDbEntity
8
CUTOUTS
100
AcDbLine
10
102.24900000000004
20
35.074000000000012
30
0
11
102.24900000000004
21
22.076000000000001
31
0
0
ARC
5
269
100
AcDbEntity
8
CUTOUTS
100
AcDbCircle
10
101.749
20
22.076000000000047
30
0
40
0.50000000000003375
210
-0
220
0
230
1
100
AcDbArc
50
270
51
360
0
LINE
5
26A
100
AcDbEntity
8
CUTOUTS
100
AcDbLine
10
101.749
20
21.576000000000015
30
0
11
88.750999999999948
21
21.576000000000029
31
0
0
ARC
5
26B
100
AcDbEntity
8
CUTOUTS
100
AcDbCircle
10
88.750999999999905
20
22.075999999999997
30
0
40
0.49999999999993605
210
0
220
0
230
1
100
AcDbArc
50
180
51
270.00000000000489
0
LINE
5
26C
100
AcDbEntity
8
CUTOUTS
100
AcDbLine
10
88.250999999999976
20
22.076000000000001
30
0
11
88.250999999999934
21
35.074000000000012
31
0
0
ARC
5
26D
100
AcDbEntity
8
CUTOUTS
100
AcDbCircle
10
88.750999999999976
20
35.073999999999955
30
0
40
0.50000000000006484
210
0
220
0
230
1
100
AcDbArc
50
90.000000000003254
51
180
0
LINE
5
26E
100
AcDbEntity
8
CUTOUTS
100
AcDbLine
10
88.750999999999948
20
35.574000000000019
30
0
11
101.74900000000002
21
35.574000000000076
31
0
0
ARC
5
26F
100
AcDbEntity
8
CUTOUTS
100
AcDbCircle
10
101.74899999999995
20
35.073999999999998
30
0
40
0.50000000000007816
210
0
220
-0
230
1
100
AcDbArc
50
0
51
89.999999999991857
0
ARC
5
270
100
AcDbEntity
8
CUTOUTS
100
AcDbCircle
10
11.261499999999991
20
16.023999999999987
30
0
40
0.50000000000002487
210
0
220
-0
230
1
100
AcDbArc
50
0
51
89.999999999997954
0
LINE
5
271
100
AcDbEntity
8
CUTOUTS
100
AcDbLine
10
-1.7365000000000208
20
16.524000000000008
30
0
11
11.261500000000009
21
16.524000000000008
31
0
0
ARC
5
272
100
AcDbEntity
8
CUTOUTS
100
AcDbCircle
10
-1.7365000000000386
20
16.024000000000012
30
0
40
0.49999999999999822
210
0
220
-0
230
1
100
AcDbArc
50
89.999999999997954
51
180
0
LINE
5
273
100
AcDbEntity
8
CUTOUTS
100
AcDbLine
10
-2.2365000000000279
20
3.0260000000000264
30
0
11
-2.2365000000000457
21
16.024000000000001
31
0
0
ARC
5
274
100
AcDbEntity
8
CUTOUTS
100
AcDbCircle
10
-1.736500000000003
20
3.0260000000000353
30
0
40
0.50000000000002487
210
0
220
0
230
1
100
AcDbArc
50
180
51
269.99999999999795
0
LINE
5
275
100
AcDbEntity
8
CUTOUTS
100
AcDbLine
10
11.261500000000009
20
2.5260000000000193
30
0
11
-1.7365000000000208
21
2.5260000000000193
31
0
0
ARC
5
276
100
AcDbEntity
8
CUTOUTS
100
AcDbCircle
10
11.261500000000009
20
3.0260000000000087
30
0
40
0.49999999999998934
210
-0
220
0
230
1
100
AcDbArc
50
-90
51
0
0
LINE
5
277
100
AcDbEntity
8
CUTOUTS
100
AcDbLine
10
11.761500000000016
20
16.023999999999987
30
0
11
11.761499999999998
21
3.0260000000000264
31
0
0
LINE
5
278
100
AcDbEntity
8
CUTOUTS
100
AcDbLine
10
-140.34900000000002
20
-16.023999999999987
30
0
11
-140.34900000000005
21
-3.0260000000000087
31
0
0
ARC
5
279
100
AcDbEntity
8
CUTOUTS
100
AcDbCircle
10
-139.84900000000005
20
-3.0259999999999998
30
0
40
0.49999999999999822
210
0
220
-0
230
1
100
AcDbArc
50
90
51
180
0
LINE
5
27A
100
AcDbEntity
8
CUTOUTS
100
AcDbLine
10
-139.84900000000005
20
-2.5260000000000016
30
0
11
-126.85100000000006
21
-2.5260000000000193
31
0
0
ARC
5
27B
100
AcDbEntity
8
CUTOUTS
100
AcDbCircle
10
-126.851
20
-3.0260000000000087
30
0
40
0.49999999999998934
210
0
220
-0
230
1
100
AcDbArc
50
0
51
90.000000000006523
0
LINE
5
27C
100
AcDbEntity
8
CUTOUTS
100
AcDbLine
10
-126.35100000000001
20
-3.0260000000000087
30
0
11
-126.351
21
-16.023999999999987
31
0
0
ARC
5
27D
100
AcDbEntity
8
CUTOUTS
100
AcDbCircle
10
-126.85099999999998
20
-16.023999999999994
30
0
40
0.49999999999999822
210
-0
220
0
230
1
100
AcDbArc
50
-90
51
0
0
LINE
5
27E
100
AcDbEntity
8
CUTOUTS
100
AcDbLine
10
-126.851
20
-16.523999999999994
30
0
11
-139.84900000000002
21
-16.523999999999958
31
0
0
ARC
5
27F
100
AcDbEntity
8
CUTOUTS
100
AcDbCircle
10
-139.84900000000005
20
-16.023999999999976
30
0
40
0.49999999999998934
210
0
220
0
230
1
100
AcDbArc
50
180
51
270
0
LINE
5
280
100
AcDbEntity
8
CUTOUTS
100
AcDbLine
10
-45.388500000000001
20
16.024000000000001
30
0
11
-45.388500000000001
21
3.0260000000000264
31
0
0
ARC
5
281
100
AcDbEntity
8
CUTOUTS
100
AcDbCircle
10
-45.888499999999993
20
3.0260000000000176
30
0
40
0.49999999999999822
210
0
220
0
230
1
100
AcDbArc
50
-90.000000000003254
51
0
0
LINE
5
282
100
AcDbEntity
8
CUTOUTS
100
AcDbLine
10
-45.888500000000022
20
2.5260000000000193
30
0
11
-58.886499999999998
21
2.5260000000000193
31
0
0
ARC
5
283
100
AcDbEntity
8
CUTOUTS
100
AcDbCircle
10
-58.886499999999984
20
3.0260000000000264
30
0
40
0.50000000000002487
210
0
220
0
230
1
100
AcDbArc
50
180
51
269.99999999999835
0
LINE
5
284
100
AcDbEntity
8
CUTOUTS
100
AcDbLine
10
-59.386500000000012
20
3.0260000000000264
30
0
11
-59.386499999999991
21
16.024000000000001
31
0
0
ARC
5
285
100
AcDbEntity
8
CUTOUTS
100
AcDbCircle
10
-58.886500000000019
20
16.024000000000036
30
0
40
0.49999999999997158
210
0
220
-0
230
1
100
AcDbArc
50
89.999999999997556
51
180
0
LINE
5
286
100
AcDbEntity
8
CUTOUTS
100
AcDbLine
10
-58.886499999999998
20
16.524000000000008
30
0
11
-45.888500000000008
21
16.524000000000008
31
0
0
ARC
5
287
100
AcDbEntity
8
CUTOUTS
100
AcDbCircle
10
-45.888500000000022
20
16.023999999999994
30
0
40
0.50000000000002487
210
0
220
-0
230
1
100
AcDbArc
50
0
51
89.99999999999838
0
ARC
5
288
100
AcDbEntity
8
CUTOUTS
100
AcDbCircle
10
-20.786499999999997
20
3.0260000000000264
30
0
40
0.50000000000002487
210
0
220
0
230
1
100
AcDbArc
50
180
51
269.99999999999795
0
LINE
5
289
100
AcDbEntity
8
CUTOUTS
100
AcDbLine
10
-7.7885000000000026
20
2.5260000000000193
30
0
11
-20.786500000000014
21
2.5260000000000193
31
0
0
ARC
5
28A
100
AcDbEntity
8
CUTOUTS
100
AcDbCircle
10
-7.7885000000000026
20
3.0260000000000087
30
0
40
0.49999999999998934
210
-0
220
0
230
1
100
AcDbArc
50
-90
51
0
0
LINE
5
28B
100
AcDbEntity
8
CUTOUTS
100
AcDbLine
10
-7.2884999999999955
20
16.023999999999987
30
0
11
-7.2885000000000311
21
3.0260000000000264
31
0
0
ARC
5
28C
100
AcDbEntity
8
CUTOUTS
100
AcDbCircle
10
-7.7885000000000204
20
16.023999999999987
30
0
40
0.50000000000002487
210
0
220
-0
230
1
100
AcDbArc
50
0
51
89.999999999997954
0
LINE
5
28D
100
AcDbEntity
8
CUTOUTS
100
AcDbLine
10
-20.786500000000014
20
16.524000000000008
30
0
11
-7.7885000000000026
21
16.524000000000008
31
0
0
ARC
5
28E
100
AcDbEntity
8
CUTOUTS
100
AcDbCircle
10
-20.786500000000032
20
16.024000000000036
30
0
40
0.49999999999997158
210
0
220
-0
230
1
100
AcDbArc
50
89.999999999997954
51
180
0
LINE
5
28F
100
AcDbEntity
8
CUTOUTS
100
AcDbLine
10
-21.286500000000022
20
3.0260000000000264
30
0
11
-21.286500000000004
21
16.024000000000001
31
0
0
ARC
5
290
100
AcDbEntity
8
CUTOUTS
100
AcDbCircle
10
-139.84900000000005
20
22.076000000000008
30
0
40
0.49999999999998934
210
0
220
0
230
1
100
AcDbArc
50
180
51
270.00000000000324
0
LINE
5
291
100
AcDbEntity
8
CUTOUTS
100
AcDbLine
10
-126.85100000000006
20
21.576000000000015
30
0
11
-139.84900000000002
21
21.575999999999993
31
0
0
ARC
5
292
100
AcDbEntity
8
CUTOUTS
100
AcDbCircle
10
-126.85100000000006
20
22.076000000000008
30
0
40
0.49999999999999378
210
-0
220
0
230
1
100
AcDbArc
50
270
51
360
0
LINE
5
293
100
AcDbEntity
8
CUTOUTS
100
AcDbLine
10
-126.35100000000001
20
35.074000000000012
30
0
11
-126.35100000000007
21
22.076000000000001
31
0
0
ARC
5
294
100
AcDbEntity
8
CUTOUTS
100
AcDbCircle
10
-126.85100000000006
20
35.074000000000019
30
0
40
0.50000000000004263
210
-0
220
0
230
1
100
AcDbArc
50
0
51
89.99999999999838
0
LINE
5
295
100
AcDbEntity
8
CUTOUTS
100
AcDbLine
10
-139.84900000000005
20
35.574000000000019
30
0
11
-126.85100000000004
21
35.574000000000055
31
0
0
ARC
5
296
100
AcDbEntity
8
CUTOUTS
100
AcDbCircle
10
-139.84900000000005
20
35.074000000000012
30
0
40
0.50000000000001155
210
0
220
-0
230
1
100
AcDbArc
50
90
51
180
0
LINE
5
297
100
AcDbEntity
8
CUTOUTS
100
AcDbLine
10
-140.34900000000002
20
22.076000000000001
30
0
11
-140.34900000000005
21
35.074000000000012
31
0
0
LINE
5
298
100
AcDbEntity
8
CUTOUTS
100
AcDbLine
10
-66.819750000000013
20
16.024000000000001
30
0
11
-66.819750000000013
21
3.0260000000000264
31
0
0
ARC
5
299
100
AcDbEntity
8
CUTOUTS
100
AcDbCircle
10
-67.319749999999999
20
3.0260000000000087
30
0
40
0.49999999999998934
210
0
220
0
230
1
100
AcDbArc
50
-90.000000000003254
51
0
0
LINE
5
29A
100
AcDbEntity
8
CUTOUTS
100
AcDbLine
10
-67.319750000000028
20
2.5260000000000193
30
0
11
-80.317749999999975
21
2.5260000000000193
31
0
0
ARC
5
29B
100
AcDbEntity
8
CUTOUTS
100
AcDbCircle
10
-80.31774999999999
20
3.0260000000000087
30
0
40
0.49999999999998934
210
0
220
0
230
1
100
AcDbArc
50
180
51
270.00000000000159
0
LINE
5
29C
100
AcDbEntity
8
CUTOUTS
100
AcDbLine
10
-80.81774999999999
20
3.0260000000000264
30
0
11
-80.81774999999999
21
16.024000000000001
31
0
0
ARC
5
29D
100
AcDbEntity
8
CUTOUTS
100
AcDbCircle
10
-80.31774999999999
20
16.024000000000022
30
0
40
0.49999999999998934
210
0
220
-0
230
1
100
AcDbArc
50
89.99999999999838
51
180
0
LINE
5
29E
100
AcDbEntity
8
CUTOUTS
100
AcDbLine
10
-80.317749999999975
20
16.524000000000008
30
0
11
-67.319749999999999
21
16.524000000000008
31
0
0
ARC
5
29F
100
AcDbEntity
8
CUTOUTS
100
AcDbCircle
10
-67.319750000000028
20
16.023999999999994
30
0
40
0.50000000000001599
210
0
220
-0
230
1
100
AcDbArc
50
0
51
89.999999999996746
0
LINE
5
2A0
100
AcDbEntity
8
CUTOUTS
100
AcDbLine
10
45.099000000000004
20
35.074000000000012
30
0
11
45.099000000000032
21
22.076000000000036
31
0
0
ARC
5
2A1
100
AcDbEntity
8
CUTOUTS
100
AcDbCircle
10
44.599000000000032
20
22.076000000000008
30
0
40
0.49999999999999378
210
-0
220
0
230
1
100
AcDbArc
50
-90
51
0
0
LINE
5
2A2
100
AcDbEntity
8
CUTOUTS
100
AcDbLine
10
44.599000000000032
20
21.576000000000015
30
0
11
31.601000000000017
21
21.576000000000029
31
0
0
ARC
5
2A3
100
AcDbEntity
8
CUTOUTS
100
AcDbCircle
10
31.600999999999946
20
22.076000000000022
30
0
40
0.49999999999997158
210
0
220
0
230
1
100
AcDbArc
50
180
51
270.00000000000813
0
LINE
5
2A4
100
AcDbEntity
8
CUTOUTS
100
AcDbLine
10
31.100999999999974
20
22.076000000000001
30
0
11
31.101000000000045
21
35.074000000000012
31
0
0
ARC
5
2A5
100
AcDbEntity
8
CUTOUTS
100
AcDbCircle
10
31.601000000000088
20
35.073999999999984
30
0
40
0.50000000000003375
210
0
220
0
230
1
100
AcDbArc
50
90.000000000008143
51
180
0
LINE
5
2A6
100
AcDbEntity
8
CUTOUTS
100
AcDbLine
10
31.601000000000017
20
35.574000000000019
30
0
11
44.599000000000061
21
35.574000000000005
31
0
0
ARC
5
2A7
100
AcDbEntity
8
CUTOUTS
100
AcDbCircle
10
44.599000000000032
20
35.074000000000034
30
0
40
0.49999999999997158
210
-0
220
0
230
1
100
AcDbArc
50
0
51
89.999999999996746
0
ARC
5
2A8
100
AcDbEntity
8
CUTOUTS
100
AcDbCircle
10
55.413500000000028
20
16.023999999999987
30
0
40
0.50000000000002487
210
0
220
0
230
1
100
AcDbArc
50
90.000000000003254
51
180
0
LINE
5
2A9
100
AcDbEntity
8
CUTOUTS
100
AcDbLine
10
54.913500000000028
20
3.0260000000000264
30
0
11
54.913500000000028
21
16.024000000000001
31
0
0
ARC
5
2AA
100
AcDbEntity
8
CUTOUTS
100
AcDbCircle
10
55.413499999999999
20
3.0260000000000176
30
0
40
0.49999999999997158
210
0
220
0
230
1
100
AcDbArc
50
180
51
270
0
LINE
5
2AB
100
AcDbEntity
8
CUTOUTS
100
AcDbLine
10
68.411499999999975
20
2.5260000000000193
30
0
11
55.413499999999999
21
2.526000000000046
31
0
0
ARC
5
2AC
100
AcDbEntity
8
CUTOUTS
100
AcDbCircle
10
68.411499999999933
20
3.0260000000000975
30
0
40
0.50000000000007816
210
-0
220
0
230
1
100
AcDbArc
50
270.00000000000489
51
360
0
LINE
5
2AD
100
AcDbEntity
8
CUTOUTS
100
AcDbLine
10
68.911500000000018
20
16.024000000000022
30
0
11
68.911500000000018
21
3.026000000000062
31
0
0
ARC
5
2AE
100
AcDbEntity
8
CUTOUTS
100
AcDbCircle
10
68.411499999999933
20
16.023999999999987
30
0
40
0.50000000000007816
210
0
220
-0
230
1
100
AcDbArc
50
0
51
89.999999999995111
0
LINE
5
2AF
100
AcDbEntity
8
CUTOUTS
100
AcDbLine
10
55.413499999999999
20
16.524000000000008
30
0
11
68.411499999999975
21
16.524000000000029
31
0
0
ARC
5
2B0
100
AcDbEntity
8
CUTOUTS
100
AcDbCircle
10
7.7884999999999671
20
-3.0259999999999998
30
0
40
0.49999999999999822
210
0
220
-0
230
1
100
AcDbArc
50
89.999999999997954
51
180
0
LINE
5
2B1
100
AcDbEntity
8
CUTOUTS
100
AcDbLine
10
7.2884999999999778
20
-16.023999999999987
30
0
11
7.28849999999996
21
-3.0260000000000087
31
0
0
ARC
5
2B2
100
AcDbEntity
8
CUTOUTS
100
AcDbCircle
10
7.7885000000000026
20
-16.023999999999976
30
0
40
0.50000000000002487
210
0
220
0
230
1
100
AcDbArc
50
180
51
269.99999999999795
0
LINE
5
2B3
100
AcDbEntity
8
CUTOUTS
100
AcDbLine
10
20.786499999999979
20
-16.523999999999994
30
0
11
7.7884999999999849
21
-16.523999999999994
31
0
0
ARC
5
2B4
100
AcDbEntity
8
CUTOUTS
100
AcDbCircle
10
20.786499999999979
20
-16.023999999999958
30
0
40
0.50000000000003375
210
-0
220
0
230
1
100
AcDbArc
50
270
51
360
0
LINE
5
2B5
100
AcDbEntity
8
CUTOUTS
100
AcDbLine
10
21.286500000000022
20
-3.0259999999999376
30
0
11
21.286500000000022
21
-16.023999999999987
31
0
0
ARC
5
2B6
100
AcDbEntity
8
CUTOUTS
100
AcDbCircle
10
20.78650000000005
20
-3.0259999999999465
30
0
40
0.49999999999997158
210
0
220
-0
230
1
100
AcDbArc
50
0
51
90.000000000008143
0
LINE
5
2B7
100
AcDbEntity
8
CUTOUTS
100
AcDbLine
10
7.7884999999999849
20
-2.5260000000000016
30
0
11
20.786499999999979
21
-2.5259999999999661
31
0
0
ARC
5
2B8
100
AcDbEntity
8
CUTOUTS
100
AcDbCircle
10
87.461499999999987
20
16.024000000000001
30
0
40
0.50000000000004263
210
0
220
-0
230
1
100
AcDbArc
50
0
51
90
0
LINE
5
2B9
100
AcDbEntity
8
CUTOUTS
100
AcDbLine
10
74.46350000000001
20
16.524000000000008
30
0
11
87.461499999999987
21
16.524000000000029
31
0
0
ARC
5
2BA
100
AcDbEntity
8
CUTOUTS
100
AcDbCircle
10
74.463500000000039
20
16.023999999999976
30
0
40
0.50000000000003375
210
0
220
0
230
1
100
AcDbArc
50
90.000000000003254
51
180
0
LINE
5
2BB
100
AcDbEntity
8
CUTOUTS
100
AcDbLine
10
73.963500000000039
20
3.0259999999999909
30
0
11
73.963500000000039
21
16.023999999999965
31
0
0
ARC
5
2BC
100
AcDbEntity
8
CUTOUTS
100
AcDbCircle
10
74.463499999999968
20
3.025999999999982
30
0
40
0.49999999999993605
210
0
220
0
230
1
100
AcDbArc
50
180
51
270.00000000000489
0
LINE
5
2BD
100
AcDbEntity
8
CUTOUTS
100
AcDbLine
10
87.461499999999987
20
2.5260000000000193
30
0
11
74.46350000000001
21
2.526000000000046
31
0
0
ARC
5
2BE
100
AcDbEntity
8
CUTOUTS
100
AcDbCircle
10
87.461499999999987
20
3.0260000000000531
30
0
40
0.50000000000003375
210
-0
220
0
230
1
100
AcDbArc
50
270
51
360
0
LINE
5
2BF
100
AcDbEntity
8
CUTOUTS
100
AcDbLine
10
87.961500000000029
20
16.024000000000001
30
0
11
87.961500000000029
21
3.0260000000000264
31
0
0
LINE
5
2C0
100
AcDbEntity
8
CUTOUTS
100
AcDbLine
10
132.70524999999998
20
2.5260000000000193
30
0
11
119.70725
21
2.5259999999999749
31
0
0
ARC
5
2C1
100
AcDbEntity
8
CUTOUTS
100
AcDbCircle
10
119.70724999999996
20
3.025999999999982
30
0
40
0.50000000000000711
210
0
220
0
230
1
100
AcDbArc
50
180
51
270.00000000000489
0
LINE
5
2C2
100
AcDbEntity
8
CUTOUTS
100
AcDbLine
10
119.20724999999996
20
3.0260000000000264
30
0
11
119.20724999999999
21
16.024000000000001
31
0
0
ARC
5
2C3
100
AcDbEntity
8
CUTOUTS
100
AcDbCircle
10
119.70725
20
16.024000000000022
30
0
40
0.49999999999998934
210
0
220
-0
230
1
100
AcDbArc
50
90
51
180
0
LINE
5
2C4
100
AcDbEntity
8
CUTOUTS
100
AcDbLine
10
119.70725
20
16.524000000000008
30
0
11
132.70524999999998
21
16.524000000000029
31
0
0
ARC
5
2C5
100
AcDbEntity
8
CUTOUTS
100
AcDbCircle
10
132.70524999999995
20
16.023999999999987
30
0
40
0.50000000000007816
210
0
220
-0
230
1
100
AcDbArc
50
0
51
89.999999999996746
0
LINE
5
2C6
100
AcDbEntity
8
CUTOUTS
100
AcDbLine
10
133.20525000000001
20
16.024000000000022
30
0
11
133.20525000000001
21
3.0260000000000264
31
0
0
ARC
5
2C7
100
AcDbEntity
8
CUTOUTS
100
AcDbCircle
10
132.70524999999998
20
3.0260000000000531
30
0
40
0.50000000000003375
210
-0
220
0
230
1
100
AcDbArc
50
270
51
360
0
LINE
5
2C8
100
AcDbEntity
8
CUTOUTS
100
AcDbLine
10
107.30099999999999
20
22.076000000000001
30
0
11
107.30099999999995
21
35.074000000000012
31
0
0
ARC
5
2C9
100
AcDbEntity
8
CUTOUTS
100
AcDbCircle
10
107.80099999999999
20
35.073999999999955
30
0
40
0.50000000000006484
210
0
220
0
230
1
100
AcDbArc
50
90.000000000003254
51
180
0
LINE
5
2CA
100
AcDbEntity
8
CUTOUTS
100
AcDbLine
10
107.80099999999996
20
35.574000000000019
30
0
11
120.79900000000001
21
35.574000000000055
31
0
0
ARC
5
2CB
100
AcDbEntity
8
CUTOUTS
100
AcDbCircle
10
120.79899999999996
20
35.073999999999998
30
0
40
0.50000000000007816
210
0
220
-0
230
1
100
AcDbArc
50
0
51
89.999999999995111
0
LINE
5
2CC
100
AcDbEntity
8
CUTOUTS
100
AcDbLine
10
121.29900000000005
20
35.074000000000012
30
0
11
121.29900000000005
21
22.076000000000001
31
0
0
ARC
5
2CD
100
AcDbEntity
8
CUTOUTS
100
AcDbCircle
10
120.79900000000001
20
22.076000000000047
30
0
40
0.50000000000003375
210
-0
220
0
230
1
100
AcDbArc
50
270
51
360
0
LINE
5
2CE
100
AcDbEntity
8
CUTOUTS
100
AcDbLine
10
120.79900000000001
20
21.576000000000015
30
0
11
107.80099999999996
21
21.576000000000096
31
0
0
ARC
5
2CF
100
AcDbEntity
8
CUTOUTS
100
AcDbCircle
10
107.80099999999989
20
22.075999999999997
30
0
40
0.49999999999990052
210
0
220
0
230
1
100
AcDbArc
50
180
51
270.00000000000813
0
ARC
5
2D0
100
AcDbEntity
8
CUTOUTS
100
AcDbCircle
10
-69.701000000000022
20
35.074000000000012
30
0
40
0.49999999999999822
210
0
220
-0
230
1
100
AcDbArc
50
0
51
89.99999999999838
0
LINE
5
2D1
100
AcDbEntity
8
CUTOUTS
100
AcDbLine
10
-82.698999999999998
20
35.574000000000019
30
0
11
-69.701000000000008
21
35.574000000000012
31
0
0
ARC
5
2D2
100
AcDbEntity
8
CUTOUTS
100
AcDbCircle
10
-82.698999999999998
20
35.074000000000012
30
0
40
0.50000000000000711
210
0
220
-0
230
1
100
AcDbArc
50
90
51
180
0
LINE
5
2D3
100
AcDbEntity
8
CUTOUTS
100
AcDbLine
10
-83.199000000000026
20
22.076000000000001
30
0
11
-83.199000000000026
21
35.074000000000012
31
0
0
ARC
5
2D4
100
AcDbEntity
8
CUTOUTS
100
AcDbCircle
10
-82.698999999999998
20
22.076000000000001
30
0
40
0.50000000000002487
210
0
220
0
230
1
100
AcDbArc
50
180
51
270.00000000000159
0
LINE
5
2D5
100
AcDbEntity
8
CUTOUTS
100
AcDbLine
10
-69.701000000000022
20
21.576000000000015
30
0
11
-82.698999999999984
21
21.575999999999993
31
0
0
ARC
5
2D6
100
AcDbEntity
8
CUTOUTS
100
AcDbCircle
10
-69.701000000000036
20
22.076000000000015
30
0
40
0.50000000000000266
210
-0
220
0
230
1
100
AcDbArc
50
270.00000000000159
51
360
0
LINE
5
2D7
100
AcDbEntity
8
CUTOUTS
100
AcDbLine
10
-69.201000000000022
20
35.074000000000012
30
0
11
-69.201000000000036
21
22.076000000000001
31
0
0
LINE
5
2D8
100
AcDbEntity
8
CUTOUTS
100
AcDbLine
10
6.9989999999999952
20
35.074000000000012
30
0
11
6.9989999999999952
21
22.076000000000001
31
0
0
ARC
5
2D9
100
AcDbEntity
8
CUTOUTS
100
AcDbCircle
10
6.4989999999999881
20
22.076000000000022
30
0
40
0.50000000000000711
210
-0
220
0
230
1
100
AcDbArc
50
270
51
360
0
LINE
5
2DA
100
AcDbEntity
8
CUTOUTS
100
AcDbLine
10
6.4989999999999881
20
21.576000000000015
30
0
11
-6.4990000000000059
21
21.576000000000015
31
0
0
ARC
5
2DB
100
AcDbEntity
8
CUTOUTS
100
AcDbCircle
10
-6.4990000000000059
20
22.076000000000015
30
0
40
0.50000000000000711
210
0
220
0
230
1
100
AcDbArc
50
180
51
270
0
LINE
5
2DC
100
AcDbEntity
8
CUTOUTS
100
AcDbLine
10
-6.999000000000013
20
22.076000000000001
30
0
11
-6.999000000000013
21
35.073999999999998
31
0
0
ARC
5
2DD
100
AcDbEntity
8
CUTOUTS
100
AcDbCircle
10
-6.4989999999999881
20
35.073999999999998
30
0
40
0.50000000000002487
210
0
220
0
230
1
100
AcDbArc
50
90.000000000002032
51
180
0
LINE
5
2DE
100
AcDbEntity
8
CUTOUTS
100
AcDbLine
10
-6.4990000000000059
20
35.574000000000019
30
0
11
6.4989999999999881
21
35.574000000000019
31
0
0
ARC
5
2DF
100
AcDbEntity
8
CUTOUTS
100
AcDbCircle
10
6.4989999999999704
20
35.073999999999991
30
0
40
0.50000000000002487
210
0
220
-0
230
1
100
AcDbArc
50
0
51
89.999999999997954
0
LINE
5
2E0
100
AcDbEntity
8
CUTOUTS
100
AcDbLine
10
-26.049000000000007
20
22.076000000000001
30
0
11
-26.049000000000024
21
35.074000000000012
31
0
0
ARC
5
2E1
100
AcDbEntity
8
CUTOUTS
100
AcDbCircle
10
-25.549000000000017
20
35.074000000000026
30
0
40
0.49999999999999822
210
0
220
-0
230
1
100
AcDbArc
50
89.999999999997954
51
180
0
LINE
5
2E2
100
AcDbEntity
8
CUTOUTS
100
AcDbLine
10
-25.548999999999999
20
35.574000000000019
30
0
11
-12.551000000000023
21
35.574000000000019
31
0
0
ARC
5
2E3
100
AcDbEntity
8
CUTOUTS
100
AcDbCircle
10
-12.551000000000041
20
35.073999999999991
30
0
40
0.50000000000002487
210
0
220
-0
230
1
100
AcDbArc
50
0
51
89.999999999997954
0
LINE
5
2E4
100
AcDbEntity
8
CUTOUTS
100
AcDbLine
10
-12.051000000000016
20
35.074000000000012
30
0
11
-12.050999999999998
21
22.076000000000001
31
0
0
ARC
5
2E5
100
AcDbEntity
8
CUTOUTS
100
AcDbCircle
10
-12.551000000000023
20
22.076000000000022
30
0
40
0.50000000000000711
210
-0
220
0
230
1
100
AcDbArc
50
270
51
360
0
LINE
5
2E6
100
AcDbEntity
8
CUTOUTS
100
AcDbLine
10
-12.551000000000023
20
21.576000000000015
30
0
11
-25.548999999999999
21
21.575999999999993
31
0
0
ARC
5
2E7
100
AcDbEntity
8
CUTOUTS
100
AcDbCircle
10
-25.548999999999982
20
22.076000000000025
30
0
40
0.50000000000002487
210
0
220
0
230
1
100
AcDbArc
50
180
51
269.99999999999795
0
LINE
5
2E8
100
AcDbEntity
8
CUTOUTS
100
AcDbLine
10
0.64474999999998062
20
-21.575999999999979
30
0
11
13.642749999999992
21
-21.575999999999979
31
0
0
ARC
5
2E9
100
AcDbEntity
8
CUTOUTS
100
AcDbCircle
10
13.642749999999975
20
-22.075999999999993
30
0
40
0.50000000000002487
210
0
220
-0
230
1
100
AcDbArc
50
0
51
89.999999999997954
0
LINE
5
2EA
100
AcDbEntity
8
CUTOUTS
100
AcDbLine
10
14.142749999999999
20
-22.075999999999986
30
0
11
14.142750000000017
21
-35.073999999999998
31
0
0
ARC
5
2EB
100
AcDbEntity
8
CUTOUTS
100
AcDbCircle
10
13.64275000000001
20
-35.073999999999998
30
0
40
0.49999999999997158
210
0
220
0
230
1
100
AcDbArc
50
-90.000000000002032
51
0
0
LINE
5
2EC
100
AcDbEntity
8
CUTOUTS
100
AcDbLine
10
13.642749999999992
20
-35.57399999999997
30
0
11
0.64474999999998062
21
-35.574000000000005
31
0
0
ARC
5
2ED
100
AcDbEntity
8
CUTOUTS
100
AcDbCircle
10
0.64474999999999838
20
-35.073999999999977
30
0
40
0.50000000000002487
210
0
220
0
230
1
100
AcDbArc
50
180
51
269.99999999999795
0
LINE
5
2EE
100
AcDbEntity
8
CUTOUTS
100
AcDbLine
10
0.14474999999997351
20
-35.073999999999998
30
0
11
0.14474999999995575
21
-22.075999999999986
31
0
0
ARC
5
2EF
100
AcDbEntity
8
CUTOUTS
100
AcDbCircle
10
0.64474999999998062
20
-22.076000000000011
30
0
40
0.50000000000003375
210
0
220
-0
230
1
100
AcDbArc
50
89.999999999999986
51
180
0
ARC
5
2F0
100
AcDbEntity
8
PERIMETER
100
AcDbCircle
10
-142.375
20
2.14900060908497
30
0
40
0.49999999999998934
210
0
220
0
230
1
100
AcDbArc
50
180
51
270
0
LINE
5
2F1
100
AcDbEntity
8
PERIMETER
100
AcDbLine
10
-142.375
20
1.6490006090849896
30
0
11
-140.47599999999997
21
1.6490006090849629
31
0
0
ARC
5
2F2
100
AcDbEntity
8
PERIMETER
100
AcDbCircle
10
-140.47599999999994
20
0.64900000000000624
30
0
40
0.99999999999999645
210
0
220
0
230
1
100
AcDbArc
50
-90.000000000001634
51
90
0
LINE
5
2F3
100
AcDbEntity
8
PERIMETER
100
AcDbLine
10
-140.47599999999997
20
-0.35099999999999021
30
0
11
-142.37500000000003
21
-0.35099999999999021
31
0
0
ARC
5
2F4
100
AcDbEntity
8
PERIMETER
100
AcDbCircle
10
-142.375
20
-0.85099999999998843
30
0
40
0.49999999999999822
210
0
220
0
230
1
100
AcDbArc
50
90.000000000003254
51
180
0
LINE
5
2F5
100
AcDbEntity
8
PERIMETER
100
AcDbLine
10
-142.875
20
-0.85099999999998843
30
0
11
-142.875
21
-38.100000000000016
31
0
0
LINE
5
2F6
100
AcDbEntity
8
PERIMETER
100
AcDbLine
10
-142.875
20
-38.100000000000016
30
0
11
142.875
21
-38.100000000000016
31
0
0
LINE
5
2F7
100
AcDbEntity
8
PERIMETER
100
AcDbLine
10
142.875
20
-38.100000000000016
30
0
11
142.87500000000003
21
-0.85100000000001508
31
0
0
ARC
5
2F8
100
AcDbEntity
8
PERIMETER
100
AcDbCircle
10
142.37500000000003
20
-0.8510000000000062
30
0
40
0.50000000000000711
210
-0
220
0
230
1
100
AcDbArc
50
0
51
90.000000000003254
0
LINE
5
2F9
100
AcDbEntity
8
PERIMETER
100
AcDbLine
10
142.375
20
-0.35099999999999909
30
0
11
140.47400000000007
21
-0.35100000000001685
31
0
0
ARC
5
2FA
100
AcDbEntity
8
PERIMETER
100
AcDbCircle
10
140.47400000000007
20
0.64900000000000624
30
0
40
1.0000012405216729
210
0
220
-0
230
1
100
AcDbArc
50
90
51
270
0
LINE
5
2FB
100
AcDbEntity
8
PERIMETER
100
AcDbLine
10
140.47400000000007
20
1.6490012405216792
30
0
11
142.375
21
1.6490012405216969
31
0
0
ARC
5
2FC
100
AcDbEntity
8
PERIMETER
100
AcDbCircle
10
142.37500000000003
20
2.1490012405216685
30
0
40
0.49999999999997158
210
0
220
0
230
1
100
AcDbArc
50
-90.000000000003254
51
0
0
LINE
5
2FD
100
AcDbEntity
8
PERIMETER
100
AcDbLine
10
142.875
20
2.1490012405216774
30
0
11
142.875
21
38.100000000000016
31
0
0
LINE
5
2FE
100
AcDbEntity
8
PERIMETER
100
AcDbLine
10
142.875
20
38.100000000000016
30
0
11
-142.875
21
38.100000000000016
31
0
0
LINE
5
2FF
100
AcDbEntity
8
PERIMETER
100
AcDbLine
10
-142.875
20
38.100000000000016
30
0
11
-142.875
21
2.1490006090849523
31
0
0
ENDSEC
0
SECTION
2
OBJECTS
0
DICTIONARY
5
C
100
AcDbDictionary
3
ACAD_GROUP
350
D
3
ACAD_MLINESTYLE
350
17
0
DICTIONARY
5
D
100
AcDbDictionary
0
DICTIONARY
5
1A
330
C
100
AcDbDictionary
0
DICTIONARY
5
17
100
AcDbDictionary
0
ENDSEC
0
EOF
