0
SECTION
2
HEADER
9
$INSUNITS
70
4
9
$ACADVER
1
AC1014
9
$HANDSEED
5
FFFF
0
ENDSEC
0
SECTION
2
TABLES
0
TABLE
2
VPORT
5
8
100
AcDbSymbolTable
0
ENDTAB
0
TABLE
2
LTYPE
5
5
100
AcDbSymbolTable
70
2
0
LTYPE
5
14
100
AcDbSymbolTableRecord
100
AcDbLinetypeTableRecord
2
BYBLOCK
70
0
0
LTYPE
5
15
100
AcDbSymbolTableRecord
100
AcDbLinetypeTableRecord
2
BYLAYER
70
0
0
ENDTAB
0
TABLE
2
LAYER
5
2
100
AcDbSymbolTable
70
3
0
LAYER
5
50
100
AcDbSymbolTableRecord
100
AcDbLayerTableRecord
2
0
70
0
6
CONTINUOUS
0
LAYER
5
51
100
AcDbSymbolTableRecord
100
AcDbLayerTableRecord
2
CUTOUTS
70
0
62
1
6
CONTINUOUS
0
LAYER
5
52
100
AcDbSymbolTableRecord
100
AcDbLayerTableRecord
2
PERIMETER
70
0
62
5
6
CONTINUOUS
0
ENDTAB
0
TABLE
2
STYLE
5
3
100
AcDbSymbolTable
70
1
0
STYLE
5
11
100
AcDbSymbolTableRecord
100
AcDbTextStyleTableRecord
2
STANDARD
70
0
0
ENDTAB
0
TABLE
2
VIEW
5
6
100
AcDbSymbolTable
0
ENDTAB
0
TABLE
2
UCS
5
7
100
AcDbSymbolTable
0
ENDTAB
0
TABLE
2
APPID
5
9
100
AcDbSymbolTable
70
1
0
APPID
5
12
100
AcDbSymbolTableRecord
100
AcDbRegAppTableRecord
2
ACAD
70
0
0
ENDTAB
0
TABLE
2
DIMSTYLE
5
A
100
AcDbSymbolTable
0
ENDTAB
0
TABLE
2
BLOCK_RECORD
5
1
100
AcDbSymbolTable
70
2
0
BLOCK_RECORD
5
1F
100
AcDbSymbolTableRecord
100
AcDbBlockTableRecord
2
*MODEL_SPACE
0
BLOCK_RECORD
5
1B
100
AcDbSymbolTableRecord
100
AcDbBlockTableRecord
2
*PAPER_SPACE
0
ENDTAB
0
ENDSEC
0
SECTION
2
BLOCKS
0
BLOCK
5
20
100
AcDbEntity
100
AcDbBlockBegin
2
*MODEL_SPACE
0
ENDBLK
5
21
100
AcDbEntity
100
AcDbBlockEnd
0
BLOCK
5
1C
100
AcDbEntity
100
AcDbBlockBegin
2
*PAPER_SPACE
0
ENDBLK
5
1D
100
AcDbEntity
100
AcDbBlockEnd
0
ENDSEC
0
SECTION
2
ENTITIES
0
LINE
5
100
100
AcDbEntity
8
CUTOUTS
100
AcDbLine
10
92.762499999999676
20
15.925000000000002
30
0
11
107.2624999999997
21
15.924999999999967
31
0
0
ARC
5
101
100
AcDbEntity
8
CUTOUTS
100
AcDbCircle
10
107.2624999999997
20
15.425000000000004
30
0
40
0.49999999999997158
210
-0
220
0
230
1
100
AcDbArc
50
0
51
89.99999999999838
0
LINE
5
102
100
AcDbEntity
8
CUTOUTS
100
AcDbLine
10
107.76249999999968
20
15.424999999999995
30
0
11
107.7624999999997
21
3.6249999999999982
31
0
0
ARC
5
103
100
AcDbEntity
8
CUTOUTS
100
AcDbCircle
10
107.26249999999973
20
3.6249999999999805
30
0
40
0.49999999999998934
210
0
220
0
230
1
100
AcDbArc
50
-90.000000000003254
51
0
0
LINE
5
104
100
AcDbEntity
8
CUTOUTS
100
AcDbLine
10
107.2624999999997
20
3.1249999999999911
30
0
11
92.762499999999676
21
3.1250000000000266
31
0
0
ARC
5
105
100
AcDbEntity
8
CUTOUTS
100
AcDbCircle
10
92.762499999999676
20
3.6249999999999893
30
0
40
0.49999999999997158
210
0
220
0
230
1
100
AcDbArc
50
180
51
269.99999999999676
0
LINE
5
106
100
AcDbEntity
8
CUTOUTS
100
AcDbLine
10
92.262499999999704
20
3.6249999999999982
30
0
11
92.262499999999633
21
15.424999999999995
31
0
0
ARC
5
107
100
AcDbEntity
8
CUTOUTS
100
AcDbCircle
10
92.762499999999633
20
15.425000000000013
30
0
40
0.49999999999998934
210
0
220
-0
230
1
100
AcDbArc
50
89.999999999995111
51
180
0
LINE
5
108
100
AcDbEntity
8
CUTOUTS
100
AcDbLine
10
133.95624999999973
20
15.424999999999995
30
0
11
133.95624999999973
21
3.6249999999999982
31
0
0
ARC
5
109
100
AcDbEntity
8
CUTOUTS
100
AcDbCircle
10
133.45624999999973
20
3.6249999999999805
30
0
40
0.49999999999998934
210
0
220
0
230
1
100
AcDbArc
50
-90.000000000006523
51
0
0
LINE
5
10A
100
AcDbEntity
8
CUTOUTS
100
AcDbLine
10
133.45624999999967
20
3.1249999999999911
30
0
11
118.95624999999973
21
3.1250000000000266
31
0
0
ARC
5
10B
100
AcDbEntity
8
CUTOUTS
100
AcDbCircle
10
118.95624999999973
20
3.6249999999999893
30
0
40
0.49999999999997158
210
0
220
0
230
1
100
AcDbArc
50
180
51
269.99999999999676
0
LINE
5
10C
100
AcDbEntity
8
CUTOUTS
100
AcDbLine
10
118.45624999999976
20
3.6249999999999982
30
0
11
118.45624999999968
21
15.424999999999995
31
0
0
ARC
5
10D
100
AcDbEntity
8
CUTOUTS
100
AcDbCircle
10
118.95624999999968
20
15.425000000000013
30
0
40
0.49999999999998934
210
0
220
-0
230
1
100
AcDbArc
50
89.999999999995111
51
180
0
LINE
5
10E
100
AcDbEntity
8
CUTOUTS
100
AcDbLine
10
118.95624999999973
20
15.925000000000002
30
0
11
133.45624999999967
21
15.925000000000038
31
0
0
ARC
5
10F
100
AcDbEntity
8
CUTOUTS
100
AcDbCircle
10
133.45624999999964
20
15.42499999999996
30
0
40
0.50000000000007816
210
0
220
-0
230
1
100
AcDbArc
50
0
51
89.999999999996746
0
LINE
5
110
100
AcDbEntity
8
CUTOUTS
100
AcDbLine
10
22.478749999999987
20
-32.949999999999953
30
0
11
22.478749999999987
21
-37.159999999999947
31
0
0
ARC
5
111
100
AcDbEntity
8
CUTOUTS
100
AcDbCircle
10
21.97874999999998
20
-37.159999999999947
30
0
40
0.50000000000000711
210
-0
220
0
230
1
100
AcDbArc
50
-90
51
0
0
LINE
5
112
100
AcDbEntity
8
CUTOUTS
100
AcDbLine
10
21.97874999999998
20
-37.659999999999954
30
0
11
20.308749999999964
21
-37.659999999999918
31
0
0
ARC
5
113
100
AcDbEntity
8
CUTOUTS
100
AcDbCircle
10
20.308749999999929
20
-37.159999999999947
30
0
40
0.49999999999993605
210
0
220
0
230
1
100
AcDbArc
50
180
51
270.00000000000409
0
LINE
5
114
100
AcDbEntity
8
CUTOUTS
100
AcDbLine
10
19.808749999999993
20
-37.159999999999947
30
0
11
19.808749999999957
21
-32.949999999999953
31
0
0
ARC
5
115
100
AcDbEntity
8
CUTOUTS
100
AcDbCircle
10
20.308749999999929
20
-32.949999999999953
30
0
40
0.49999999999997158
210
0
220
-0
230
1
100
AcDbArc
50
89.999999999995936
51
180
0
LINE
5
116
100
AcDbEntity
8
CUTOUTS
100
AcDbLine
10
20.308749999999964
20
-32.449999999999982
30
0
11
21.97874999999998
21
-32.449999999999946
31
0
0
ARC
5
117
100
AcDbEntity
8
CUTOUTS
100
AcDbCircle
10
21.97874999999998
20
-32.949999999999953
30
0
40
0.50000000000000711
210
0
220
-0
230
1
100
AcDbArc
50
0
51
90
0
LINE
5
118
100
AcDbEntity
8
CUTOUTS
100
AcDbLine
10
-7.6912500000000428
20
-32.449999999999946
30
0
11
-5.3062500000001656
21
-32.449999999999982
31
0
0
ARC
5
119
100
AcDbEntity
8
CUTOUTS
100
AcDbCircle
10
-5.3062500000001656
20
-32.949999999999953
30
0
40
0.49999999999997158
210
0
220
-0
230
1
100
AcDbArc
50
0
51
90
0
LINE
5
11A
100
AcDbEntity
8
CUTOUTS
100
AcDbLine
10
-4.806250000000194
20
-32.949999999999953
30
0
11
-4.8062500000001585
21
-37.159999999999947
31
0
0
ARC
5
11B
100
AcDbEntity
8
CUTOUTS
100
AcDbCircle
10
-5.3062500000001833
20
-37.159999999999933
30
0
40
0.50000000000002487
210
-0
220
0
230
1
100
AcDbArc
50
270.00000000000205
51
360
0
LINE
5
11C
100
AcDbEntity
8
CUTOUTS
100
AcDbLine
10
-5.3062500000001656
20
-37.659999999999954
30
0
11
-7.6912500000000428
21
-37.659999999999918
31
0
0
ARC
5
11D
100
AcDbEntity
8
CUTOUTS
100
AcDbCircle
10
-7.6912500000000428
20
-37.159999999999947
30
0
40
0.49999999999997158
210
0
220
0
230
1
100
AcDbArc
50
180
51
270
0
LINE
5
11E
100
AcDbEntity
8
CUTOUTS
100
AcDbLine
10
-8.1912500000000144
20
-37.159999999999947
30
0
11
-8.1912500000000499
21
-32.949999999999953
31
0
0
ARC
5
11F
100
AcDbEntity
8
CUTOUTS
100
AcDbCircle
10
-7.691250000000025
20
-32.949999999999974
30
0
40
0.50000000000002487
210
0
220
0
230
1
100
AcDbArc
50
90.000000000002032
51
180
0
LINE
5
120
100
AcDbEntity
8
CUTOUTS
100
AcDbLine
10
62.018749999999784
20
-34.974999999999959
30
0
11
47.518749999999784
21
-34.974999999999959
31
0
0
ARC
5
121
100
AcDbEntity
8
CUTOUTS
100
AcDbCircle
10
47.518749999999784
20
-34.474999999999952
30
0
40
0.50000000000000711
210
0
220
0
230
1
100
AcDbArc
50
180
51
270
0
LINE
5
122
100
AcDbEntity
8
CUTOUTS
100
AcDbLine
10
47.018749999999784
20
-34.474999999999952
30
0
11
47.018749999999784
21
-29.54999999999999
31
0
0
ARC
5
123
100
AcDbEntity
8
CUTOUTS
100
AcDbCircle
10
46.51874999999977
20
-29.54999999999999
30
0
40
0.50000000000000711
210
0
220
-0
230
1
100
AcDbArc
50
0
51
90
0
LINE
5
124
100
AcDbEntity
8
CUTOUTS
100
AcDbLine
10
46.51874999999977
20
-29.049999999999983
30
0
11
46.624999999999957
21
-29.049999999999983
31
0
0
ARC
5
125
100
AcDbEntity
8
CUTOUTS
100
AcDbCircle
10
46.624999999999957
20
-28.049999999999969
30
0
40
0.99999999999999645
210
0
220
-0
230
1
100
AcDbArc
50
90
51
270
0
LINE
5
126
100
AcDbEntity
8
CUTOUTS
100
AcDbLine
10
46.624999999999957
20
-27.049999999999976
30
0
11
46.51874999999977
21
-27.049999999999976
31
0
0
ARC
5
127
100
AcDbEntity
8
CUTOUTS
100
AcDbCircle
10
46.518749999999812
20
-26.550000000000004
30
0
40
0.49999999999997158
210
0
220
0
230
1
100
AcDbArc
50
-90.000000000004889
51
0
0
LINE
5
128
100
AcDbEntity
8
CUTOUTS
100
AcDbLine
10
47.018749999999784
20
-26.549999999999969
30
0
11
47.018749999999784
21
-22.67499999999999
31
0
0
ARC
5
129
100
AcDbEntity
8
CUTOUTS
100
AcDbCircle
10
47.518749999999756
20
-22.674999999999955
30
0
40
0.49999999999997158
210
0
220
-0
230
1
100
AcDbArc
50
89.999999999996746
51
180
0
LINE
5
12A
100
AcDbEntity
8
CUTOUTS
100
AcDbLine
10
47.518749999999784
20
-22.174999999999983
30
0
11
62.018749999999784
21
-22.174999999999983
31
0
0
ARC
5
12B
100
AcDbEntity
8
CUTOUTS
100
AcDbCircle
10
62.018749999999812
20
-22.674999999999976
30
0
40
0.49999999999997158
210
-0
220
0
230
1
100
AcDbArc
50
0
51
90.000000000003254
0
LINE
5
12C
100
AcDbEntity
8
CUTOUTS
100
AcDbLine
10
62.518749999999784
20
-22.67499999999999
30
0
11
62.518749999999784
21
-34.474999999999952
31
0
0
ARC
5
12D
100
AcDbEntity
8
CUTOUTS
100
AcDbCircle
10
62.018749999999784
20
-34.474999999999937
30
0
40
0.50000000000002487
210
-0
220
0
230
1
100
AcDbArc
50
270
51
360
0
LINE
5
12E
100
AcDbEntity
8
CUTOUTS
100
AcDbLine
10
80.356249999999733
20
-34.474999999999952
30
0
11
80.35624999999969
21
-22.67499999999999
31
0
0
ARC
5
12F
100
AcDbEntity
8
CUTOUTS
100
AcDbCircle
10
80.856249999999775
20
-22.675000000000026
30
0
40
0.50000000000007816
210
0
220
0
230
1
100
AcDbArc
50
90.000000000004889
51
180
0
LINE
5
130
100
AcDbEntity
8
CUTOUTS
100
AcDbLine
10
80.856249999999733
20
-22.174999999999947
30
0
11
95.356249999999733
21
-22.175000000000011
31
0
0
ARC
5
131
100
AcDbEntity
8
CUTOUTS
100
AcDbCircle
10
95.356249999999733
20
-22.674999999999983
30
0
40
0.49999999999997158
210
-0
220
0
230
1
100
AcDbArc
50
0
51
89.99999999999838
0
LINE
5
132
100
AcDbEntity
8
CUTOUTS
100
AcDbLine
10
95.856249999999704
20
-22.67499999999999
30
0
11
95.856249999999704
21
-34.474999999999952
31
0
0
ARC
5
133
100
AcDbEntity
8
CUTOUTS
100
AcDbCircle
10
95.356249999999733
20
-34.474999999999937
30
0
40
0.50000000000002487
210
-0
220
0
230
1
100
AcDbArc
50
270
51
360
0
LINE
5
134
100
AcDbEntity
8
CUTOUTS
100
AcDbLine
10
95.356249999999733
20
-34.974999999999959
30
0
11
80.856249999999733
21
-34.974999999999959
31
0
0
ARC
5
135
100
AcDbEntity
8
CUTOUTS
100
AcDbCircle
10
80.856249999999733
20
-34.474999999999952
30
0
40
0.50000000000000711
210
0
220
0
230
1
100
AcDbArc
50
180
51
270
0
LINE
5
136
100
AcDbEntity
8
CUTOUTS
100
AcDbLine
10
138.71874999999966
20
-22.67499999999999
30
0
11
138.71874999999969
21
-34.474999999999952
31
0
0
ARC
5
137
100
AcDbEntity
8
CUTOUTS
100
AcDbCircle
10
138.21874999999969
20
-34.474999999999937
30
0
40
0.50000000000002487
210
-0
220
0
230
1
100
AcDbArc
50
270
51
360
0
LINE
5
138
100
AcDbEntity
8
CUTOUTS
100
AcDbLine
10
138.21874999999969
20
-34.974999999999959
30
0
11
123.71874999999966
21
-34.974999999999923
31
0
0
ARC
5
139
100
AcDbEntity
8
CUTOUTS
100
AcDbCircle
10
123.71874999999966
20
-34.474999999999952
30
0
40
0.49999999999997158
210
0
220
0
230
1
100
AcDbArc
50
180
51
270
0
LINE
5
13A
100
AcDbEntity
8
CUTOUTS
100
AcDbLine
10
123.21874999999969
20
-34.474999999999952
30
0
11
123.21874999999962
21
-22.67499999999999
31
0
0
ARC
5
13B
100
AcDbEntity
8
CUTOUTS
100
AcDbCircle
10
123.71874999999962
20
-22.674999999999976
30
0
40
0.49999999999998934
210
0
220
-0
230
1
100
AcDbArc
50
89.999999999995111
51
180
0
LINE
5
13C
100
AcDbEntity
8
CUTOUTS
100
AcDbLine
10
123.71874999999966
20
-22.174999999999983
30
0
11
138.21874999999969
21
-22.174999999999983
31
0
0
ARC
5
13D
100
AcDbEntity
8
CUTOUTS
100
AcDbCircle
10
138.21874999999969
20
-22.674999999999983
30
0
40
0.49999999999997158
210
-0
220
0
230
1
100
AcDbArc
50
0
51
89.999999999996746
0
LINE
5
13E
100
AcDbEntity
8
CUTOUTS
100
AcDbLine
10
69.603749999999721
20
-37.659999999999954
30
0
11
67.933749999999748
21
-37.659999999999954
31
0
0
ARC
5
13F
100
AcDbEntity
8
CUTOUTS
100
AcDbCircle
10
67.933749999999748
20
-37.159999999999933
30
0
40
0.50000000000000711
210
0
220
0
230
1
100
AcDbArc
50
180
51
270
0
LINE
5
140
100
AcDbEntity
8
CUTOUTS
100
AcDbLine
10
67.433749999999733
20
-37.159999999999947
30
0
11
67.433749999999776
21
-32.949999999999953
31
0
0
ARC
5
141
100
AcDbEntity
8
CUTOUTS
100
AcDbCircle
10
67.933749999999748
20
-32.949999999999953
30
0
40
0.49999999999997158
210
0
220
-0
230
1
100
AcDbArc
50
90
51
180
0
LINE
5
142
100
AcDbEntity
8
CUTOUTS
100
AcDbLine
10
67.933749999999748
20
-32.449999999999982
30
0
11
69.603749999999721
21
-32.449999999999946
31
0
0
ARC
5
143
100
AcDbEntity
8
CUTOUTS
100
AcDbCircle
10
69.603749999999721
20
-32.949999999999953
30
0
40
0.50000000000000711
210
0
220
-0
230
1
100
AcDbArc
50
0
51
90
0
LINE
5
144
100
AcDbEntity
8
CUTOUTS
100
AcDbLine
10
70.103749999999735
20
-32.949999999999953
30
0
11
70.103749999999735
21
-37.159999999999947
31
0
0
ARC
5
145
100
AcDbEntity
8
CUTOUTS
100
AcDbCircle
10
69.603749999999721
20
-37.159999999999947
30
0
40
0.50000000000000711
210
-0
220
0
230
1
100
AcDbArc
50
-90
51
0
0
LINE
5
146
100
AcDbEntity
8
CUTOUTS
100
AcDbLine
10
99.906249999999716
20
-22.174999999999947
30
0
11
116.78749999999971
21
-22.175000000000011
31
0
0
ARC
5
147
100
AcDbEntity
8
CUTOUTS
100
AcDbCircle
10
116.78749999999971
20
-22.674999999999983
30
0
40
0.49999999999997158
210
-0
220
0
230
1
100
AcDbArc
50
0
51
89.99999999999838
0
LINE
5
148
100
AcDbEntity
8
CUTOUTS
100
AcDbLine
10
117.28749999999968
20
-22.67499999999999
30
0
11
117.28749999999975
21
-34.474999999999952
31
0
0
ARC
5
149
100
AcDbEntity
8
CUTOUTS
100
AcDbCircle
10
116.78749999999971
20
-34.474999999999937
30
0
40
0.50000000000002487
210
-0
220
0
230
1
100
AcDbArc
50
270
51
360
0
LINE
5
14A
100
AcDbEntity
8
CUTOUTS
100
AcDbLine
10
116.78749999999971
20
-34.974999999999959
30
0
11
99.906249999999716
21
-34.974999999999923
31
0
0
ARC
5
14B
100
AcDbEntity
8
CUTOUTS
100
AcDbCircle
10
99.906249999999716
20
-34.474999999999952
30
0
40
0.49999999999997158
210
0
220
0
230
1
100
AcDbArc
50
180
51
270
0
LINE
5
14C
100
AcDbEntity
8
CUTOUTS
100
AcDbLine
10
99.406249999999744
20
-34.474999999999952
30
0
11
99.406249999999673
21
-22.67499999999999
31
0
0
ARC
5
14D
100
AcDbEntity
8
CUTOUTS
100
AcDbCircle
10
99.906249999999744
20
-22.675000000000026
30
0
40
0.50000000000007816
210
0
220
0
230
1
100
AcDbArc
50
90.000000000003254
51
180
0
LINE
5
14E
100
AcDbEntity
8
CUTOUTS
100
AcDbLine
10
43.468749999999773
20
-22.67499999999999
30
0
11
43.468749999999773
21
-34.474999999999952
31
0
0
ARC
5
14F
100
AcDbEntity
8
CUTOUTS
100
AcDbCircle
10
42.968749999999801
20
-22.674999999999976
30
0
40
0.49999999999997158
210
-0
220
0
230
1
100
AcDbArc
50
0
51
90.000000000003254
0
LINE
5
150
100
AcDbEntity
8
CUTOUTS
100
AcDbLine
10
28.468749999999812
20
-22.174999999999947
30
0
11
42.968749999999773
21
-22.174999999999983
31
0
0
ARC
5
151
100
AcDbEntity
8
CUTOUTS
100
AcDbCircle
10
28.468749999999847
20
-22.675000000000026
30
0
40
0.50000000000007816
210
0
220
0
230
1
100
AcDbArc
50
90.000000000004079
51
180
0
LINE
5
152
100
AcDbEntity
8
CUTOUTS
100
AcDbLine
10
27.968749999999805
20
-32.449999999999967
30
0
11
27.968749999999769
21
-22.67499999999999
31
0
0
LINE
5
153
100
AcDbEntity
8
CUTOUTS
100
AcDbLine
10
26.808749999999808
20
-32.449999999999982
30
0
11
27.968749999999805
21
-32.449999999999967
31
0
0
ARC
5
154
100
AcDbEntity
8
CUTOUTS
100
AcDbCircle
10
26.808749999999772
20
-32.949999999999953
30
0
40
0.49999999999997158
210
0
220
-0
230
1
100
AcDbArc
50
89.999999999995936
51
180
0
LINE
5
155
100
AcDbEntity
8
CUTOUTS
100
AcDbLine
10
26.308749999999801
20
-37.159999999999947
30
0
11
26.308749999999801
21
-32.949999999999953
31
0
0
ARC
5
156
100
AcDbEntity
8
CUTOUTS
100
AcDbCircle
10
26.808749999999808
20
-37.159999999999947
30
0
40
0.50000000000000711
210
0
220
0
230
1
100
AcDbArc
50
180
51
270
0
LINE
5
157
100
AcDbEntity
8
CUTOUTS
100
AcDbLine
10
28.478749999999788
20
-37.659999999999954
30
0
11
26.808749999999808
21
-37.659999999999954
31
0
0
ARC
5
158
100
AcDbEntity
8
CUTOUTS
100
AcDbCircle
10
28.478749999999788
20
-37.159999999999933
30
0
40
0.50000000000002487
210
-0
220
0
230
1
100
AcDbArc
50
270
51
360
0
LINE
5
159
100
AcDbEntity
8
CUTOUTS
100
AcDbLine
10
28.978749999999796
20
-34.974999999999959
30
0
11
28.978749999999796
21
-37.159999999999947
31
0
0
LINE
5
15A
100
AcDbEntity
8
CUTOUTS
100
AcDbLine
10
39.433749999999762
20
-34.974999999999959
30
0
11
28.978749999999796
21
-34.974999999999959
31
0
0
LINE
5
15B
100
AcDbEntity
8
CUTOUTS
100
AcDbLine
10
39.433749999999762
20
-37.159999999999947
30
0
11
39.433749999999762
21
-34.974999999999959
31
0
0
ARC
5
15C
100
AcDbEntity
8
CUTOUTS
100
AcDbCircle
10
39.933749999999776
20
-37.159999999999933
30
0
40
0.50000000000000711
210
0
220
0
230
1
100
AcDbArc
50
180
51
270
0
LINE
5
15D
100
AcDbEntity
8
CUTOUTS
100
AcDbLine
10
41.603749999999749
20
-37.659999999999954
30
0
11
39.933749999999776
21
-37.659999999999954
31
0
0
ARC
5
15E
100
AcDbEntity
8
CUTOUTS
100
AcDbCircle
10
41.603749999999749
20
-37.159999999999947
30
0
40
0.50000000000000711
210
-0
220
0
230
1
100
AcDbArc
50
-90
51
0
0
LINE
5
15F
100
AcDbEntity
8
CUTOUTS
100
AcDbLine
10
42.103749999999764
20
-34.974999999999959
30
0
11
42.103749999999764
21
-37.159999999999947
31
0
0
LINE
5
160
100
AcDbEntity
8
CUTOUTS
100
AcDbLine
10
42.968749999999773
20
-34.974999999999959
30
0
11
42.103749999999764
21
-34.974999999999959
31
0
0
ARC
5
161
100
AcDbEntity
8
CUTOUTS
100
AcDbCircle
10
42.968749999999773
20
-34.474999999999937
30
0
40
0.50000000000002487
210
-0
220
0
230
1
100
AcDbArc
50
270
51
360
0
ARC
5
162
100
AcDbEntity
8
CUTOUTS
100
AcDbCircle
10
-23.706250000000146
20
-34.474999999999937
30
0
40
0.50000000000002487
210
-0
220
0
230
1
100
AcDbArc
50
270.00000000000205
51
360
0
LINE
5
163
100
AcDbEntity
8
CUTOUTS
100
AcDbLine
10
-23.206250000000157
20
-22.67499999999999
30
0
11
-23.206250000000122
21
-34.474999999999952
31
0
0
ARC
5
164
100
AcDbEntity
8
CUTOUTS
100
AcDbCircle
10
-23.706250000000129
20
-22.674999999999983
30
0
40
0.49999999999997158
210
-0
220
0
230
1
100
AcDbArc
50
0
51
90
0
LINE
5
165
100
AcDbEntity
8
CUTOUTS
100
AcDbLine
10
-40.587500000000119
20
-22.174999999999983
30
0
11
-23.706250000000129
21
-22.175000000000018
31
0
0
ARC
5
166
100
AcDbEntity
8
CUTOUTS
100
AcDbCircle
10
-40.587500000000119
20
-22.674999999999983
30
0
40
0.49999999999999822
210
0
220
-0
230
1
100
AcDbArc
50
90
51
180
0
LINE
5
167
100
AcDbEntity
8
CUTOUTS
100
AcDbLine
10
-41.087500000000134
20
-34.474999999999952
30
0
11
-41.087500000000134
21
-22.67499999999999
31
0
0
ARC
5
168
100
AcDbEntity
8
CUTOUTS
100
AcDbCircle
10
-40.587500000000105
20
-34.474999999999937
30
0
40
0.50000000000002487
210
0
220
0
230
1
100
AcDbArc
50
180
51
269.99999999999835
0
LINE
5
169
100
AcDbEntity
8
CUTOUTS
100
AcDbLine
10
-23.706250000000129
20
-34.974999999999959
30
0
11
-40.587500000000119
21
-34.974999999999959
31
0
0
ARC
5
16A
100
AcDbEntity
8
CUTOUTS
100
AcDbCircle
10
-50.112500000000125
20
-15.424999999999986
30
0
40
0.50000000000000711
210
0
220
0
230
1
100
AcDbArc
50
180
51
270
0
LINE
5
16B
100
AcDbEntity
8
CUTOUTS
100
AcDbLine
10
-35.612500000000168
20
-15.924999999999985
30
0
11
-50.112500000000125
21
-15.924999999999985
31
0
0
ARC
5
16C
100
AcDbEntity
8
CUTOUTS
100
AcDbCircle
10
-35.612500000000168
20
-15.424999999999986
30
0
40
0.49999999999999822
210
-0
220
0
230
1
100
AcDbArc
50
-90
51
0
0
LINE
5
16D
100
AcDbEntity
8
CUTOUTS
100
AcDbLine
10
-35.112500000000125
20
-3.6249999999999805
30
0
11
-35.112500000000168
21
-15.424999999999978
31
0
0
ARC
5
16E
100
AcDbEntity
8
CUTOUTS
100
AcDbCircle
10
-35.612500000000168
20
-3.6249999999999805
30
0
40
0.50000000000004263
210
0
220
-0
230
1
100
AcDbArc
50
0
51
90
0
LINE
5
16F
100
AcDbEntity
8
CUTOUTS
100
AcDbLine
10
-50.112500000000125
20
-3.1250000000000089
30
0
11
-35.612500000000168
21
-3.1249999999999378
31
0
0
ARC
5
170
100
AcDbEntity
8
CUTOUTS
100
AcDbCircle
10
-50.112500000000125
20
-3.6249999999999716
30
0
40
0.4999999999999627
210
0
220
-0
230
1
100
AcDbArc
50
90
51
180
0
LINE
5
171
100
AcDbEntity
8
CUTOUTS
100
AcDbLine
10
-50.612500000000139
20
-15.424999999999978
30
0
11
-50.612500000000082
21
-3.6249999999999805
31
0
0
LINE
5
172
100
AcDbEntity
8
CUTOUTS
100
AcDbLine
10
115.54124999999969
20
5.1499999999999968
30
0
11
115.54124999999969
21
0.94000000000000306
31
0
0
ARC
5
173
100
AcDbEntity
8
CUTOUTS
100
AcDbCircle
10
115.04124999999968
20
0.93999999999998529
30
0
40
0.49999999999998934
210
0
220
0
230
1
100
AcDbArc
50
-90.000000000003254
51
0
0
LINE
5
174
100
AcDbEntity
8
CUTOUTS
100
AcDbLine
10
115.04124999999965
20
0.43999999999999595
30
0
11
113.37124999999963
21
0.44000000000003148
31
0
0
ARC
5
175
100
AcDbEntity
8
CUTOUTS
100
AcDbCircle
10
113.37124999999963
20
0.93999999999999417
30
0
40
0.49999999999997158
210
0
220
0
230
1
100
AcDbArc
50
180
51
269.99999999999676
0
LINE
5
176
100
AcDbEntity
8
CUTOUTS
100
AcDbLine
10
112.87124999999966
20
0.94000000000000306
30
0
11
112.87124999999959
21
5.1499999999999968
31
0
0
ARC
5
177
100
AcDbEntity
8
CUTOUTS
100
AcDbCircle
10
113.37124999999959
20
5.1500000000000146
30
0
40
0.49999999999998934
210
0
220
-0
230
1
100
AcDbArc
50
89.999999999995111
51
180
0
LINE
5
178
100
AcDbEntity
8
CUTOUTS
100
AcDbLine
10
113.37124999999963
20
5.6500000000000039
30
0
11
115.04124999999965
21
5.6500000000000394
31
0
0
ARC
5
179
100
AcDbEntity
8
CUTOUTS
100
AcDbCircle
10
115.04124999999961
20
5.1499999999999613
30
0
40
0.50000000000007816
210
0
220
-0
230
1
100
AcDbArc
50
0
51
89.999999999995111
0
ARC
5
17A
100
AcDbEntity
8
CUTOUTS
100
AcDbCircle
10
-68.950000000000117
20
34.474999999999973
30
0
40
0.49999999999999822
210
0
220
-0
230
1
100
AcDbArc
50
0
51
90
0
LINE
5
17B
100
AcDbEntity
8
CUTOUTS
100
AcDbLine
10
-83.450000000000102
20
34.97499999999998
30
0
11
-68.950000000000117
21
34.974999999999966
31
0
0
ARC
5
17C
100
AcDbEntity
8
CUTOUTS
100
AcDbCircle
10
-83.450000000000102
20
34.474999999999973
30
0
40
0.50000000000000711
210
0
220
-0
230
1
100
AcDbArc
50
90
51
180
0
LINE
5
17D
100
AcDbEntity
8
CUTOUTS
100
AcDbLine
10
-83.950000000000088
20
22.674999999999976
30
0
11
-83.950000000000088
21
34.474999999999973
31
0
0
ARC
5
17E
100
AcDbEntity
8
CUTOUTS
100
AcDbCircle
10
-83.450000000000102
20
22.674999999999986
30
0
40
0.50000000000000711
210
0
220
0
230
1
100
AcDbArc
50
180
51
269.99999999999835
0
LINE
5
17F
100
AcDbEntity
8
CUTOUTS
100
AcDbLine
10
-68.950000000000117
20
22.174999999999969
30
0
11
-83.450000000000117
21
22.174999999999969
31
0
0
ARC
5
180
100
AcDbEntity
8
CUTOUTS
100
AcDbCircle
10
-68.950000000000117
20
22.674999999999976
30
0
40
0.50000000000000711
210
0
220
0
230
1
100
AcDbArc
50
-90
51
0
0
LINE
5
181
100
AcDbEntity
8
CUTOUTS
100
AcDbLine
10
-68.450000000000117
20
34.474999999999973
30
0
11
-68.450000000000117
21
22.674999999999976
31
0
0
LINE
5
182
100
AcDbEntity
8
CUTOUTS
100
AcDbLine
10
-87.500000000000085
20
34.474999999999973
30
0
11
-87.500000000000085
21
22.674999999999976
31
0
0
ARC
5
183
100
AcDbEntity
8
CUTOUTS
100
AcDbCircle
10
-88.000000000000085
20
22.674999999999976
30
0
40
0.50000000000000711
210
-0
220
0
230
1
100
AcDbArc
50
-90
51
0
0
LINE
5
184
100
AcDbEntity
8
CUTOUTS
100
AcDbLine
10
-88.000000000000099
20
22.174999999999969
30
0
11
-102.50000000000006
21
22.174999999999969
31
0
0
ARC
5
185
100
AcDbEntity
8
CUTOUTS
100
AcDbCircle
10
-102.50000000000007
20
22.674999999999969
30
0
40
0.50000000000000711
210
0
220
0
230
1
100
AcDbArc
50
180
51
270.00000000000489
0
LINE
5
186
100
AcDbEntity
8
CUTOUTS
100
AcDbLine
10
-103.00000000000009
20
22.674999999999976
30
0
11
-103.00000000000009
21
34.474999999999973
31
0
0
ARC
5
187
100
AcDbEntity
8
CUTOUTS
100
AcDbCircle
10
-102.50000000000007
20
34.474999999999973
30
0
40
0.50000000000000266
210
0
220
-0
230
1
100
AcDbArc
50
90
51
180
0
LINE
5
188
100
AcDbEntity
8
CUTOUTS
100
AcDbLine
10
-102.50000000000007
20
34.97499999999998
30
0
11
-88.000000000000099
21
34.97499999999998
31
0
0
ARC
5
189
100
AcDbEntity
8
CUTOUTS
100
AcDbCircle
10
-88.000000000000085
20
34.474999999999973
30
0
40
0.50000000000000711
210
0
220
-0
230
1
100
AcDbArc
50
0
51
90
0
LINE
5
18A
100
AcDbEntity
8
CUTOUTS
100
AcDbLine
10
-106.55000000000007
20
34.474999999999973
30
0
11
-106.55000000000007
21
22.674999999999976
31
0
0
ARC
5
18B
100
AcDbEntity
8
CUTOUTS
100
AcDbCircle
10
-107.05000000000007
20
22.674999999999979
30
0
40
0.50000000000001155
210
-0
220
0
230
1
100
AcDbArc
50
270
51
360
0
LINE
5
18C
100
AcDbEntity
8
CUTOUTS
100
AcDbLine
10
-107.05000000000007
20
22.174999999999969
30
0
11
-121.55000000000007
21
22.174999999999969
31
0
0
ARC
5
18D
100
AcDbEntity
8
CUTOUTS
100
AcDbCircle
10
-121.55000000000004
20
22.674999999999983
30
0
40
0.50000000000000711
210
0
220
0
230
1
100
AcDbArc
50
180
51
269.99999999999676
0
LINE
5
18E
100
AcDbEntity
8
CUTOUTS
100
AcDbLine
10
-122.05000000000005
20
22.674999999999976
30
0
11
-122.05000000000007
21
34.474999999999973
31
0
0
ARC
5
18F
100
AcDbEntity
8
CUTOUTS
100
AcDbCircle
10
-121.55000000000007
20
34.474999999999966
30
0
40
0.50000000000001155
210
0
220
-0
230
1
100
AcDbArc
50
90
51
180
0
LINE
5
190
100
AcDbEntity
8
CUTOUTS
100
AcDbLine
10
-121.55000000000007
20
34.97499999999998
30
0
11
-107.05000000000007
21
34.97499999999998
31
0
0
ARC
5
191
100
AcDbEntity
8
CUTOUTS
100
AcDbCircle
10
-107.05000000000007
20
34.474999999999966
30
0
40
0.50000000000000711
210
0
220
-0
230
1
100
AcDbArc
50
0
51
89.99999999999838
0
LINE
5
192
100
AcDbEntity
8
CUTOUTS
100
AcDbLine
10
-30.350000000000126
20
34.474999999999973
30
0
11
-30.350000000000161
21
22.674999999999976
31
0
0
ARC
5
193
100
AcDbEntity
8
CUTOUTS
100
AcDbCircle
10
-30.850000000000168
20
22.674999999999979
30
0
40
0.50000000000001155
210
-0
220
0
230
1
100
AcDbArc
50
270
51
360
0
LINE
5
194
100
AcDbEntity
8
CUTOUTS
100
AcDbLine
10
-30.850000000000168
20
22.174999999999969
30
0
11
-45.350000000000122
21
22.174999999999969
31
0
0
ARC
5
195
100
AcDbEntity
8
CUTOUTS
100
AcDbCircle
10
-45.350000000000122
20
22.674999999999979
30
0
40
0.50000000000000711
210
0
220
0
230
1
100
AcDbArc
50
180
51
269.99999999999835
0
LINE
5
196
100
AcDbEntity
8
CUTOUTS
100
AcDbLine
10
-45.850000000000136
20
22.674999999999976
30
0
11
-45.850000000000136
21
34.474999999999973
31
0
0
ARC
5
197
100
AcDbEntity
8
CUTOUTS
100
AcDbCircle
10
-45.350000000000122
20
34.474999999999966
30
0
40
0.50000000000001155
210
0
220
-0
230
1
100
AcDbArc
50
90
51
180
0
LINE
5
198
100
AcDbEntity
8
CUTOUTS
100
AcDbLine
10
-45.350000000000122
20
34.97499999999998
30
0
11
-30.850000000000168
21
34.975000000000016
31
0
0
ARC
5
199
100
AcDbEntity
8
CUTOUTS
100
AcDbCircle
10
-30.850000000000168
20
34.47499999999998
30
0
40
0.50000000000004263
210
-0
220
0
230
1
100
AcDbArc
50
0
51
90
0
ARC
5
19A
100
AcDbEntity
8
CUTOUTS
100
AcDbCircle
10
50.112499999999812
20
3.6249999999999627
30
0
40
0.49999999999997158
210
0
220
0
230
1
100
AcDbArc
50
-90.000000000004889
51
0
0
LINE
5
19B
100
AcDbEntity
8
CUTOUTS
100
AcDbLine
10
50.612499999999784
20
15.424999999999995
30
0
11
50.612499999999784
21
3.6249999999999982
31
0
0
ARC
5
19C
100
AcDbEntity
8
CUTOUTS
100
AcDbCircle
10
50.112499999999812
20
15.425000000000031
30
0
40
0.49999999999997158
210
-0
220
0
230
1
100
AcDbArc
50
0
51
90.000000000004889
0
LINE
5
19D
100
AcDbEntity
8
CUTOUTS
100
AcDbLine
10
35.612499999999784
20
15.925000000000002
30
0
11
50.11249999999977
21
15.925000000000002
31
0
0
ARC
5
19E
100
AcDbEntity
8
CUTOUTS
100
AcDbCircle
10
35.612499999999741
20
15.425000000000013
30
0
40
0.49999999999998934
210
0
220
-0
230
1
100
AcDbArc
50
89.999999999995111
51
180
0
LINE
5
19F
100
AcDbEntity
8
CUTOUTS
100
AcDbLine
10
35.11249999999977
20
3.6249999999999982
30
0
11
35.112499999999741
21
15.424999999999995
31
0
0
ARC
5
1A0
100
AcDbEntity
8
CUTOUTS
100
AcDbCircle
10
35.612499999999741
20
3.6249999999999805
30
0
40
0.49999999999997158
210
0
220
0
230
1
100
AcDbArc
50
180
51
270.00000000000489
0
LINE
5
1A1
100
AcDbEntity
8
CUTOUTS
100
AcDbLine
10
50.11249999999977
20
3.1249999999999911
30
0
11
35.612499999999784
21
3.1250000000000089
31
0
0
LINE
5
1A2
100
AcDbEntity
8
CUTOUTS
100
AcDbLine
10
31.562499999999805
20
15.424999999999995
30
0
11
31.562499999999805
21
3.6249999999999982
31
0
0
ARC
5
1A3
100
AcDbEntity
8
CUTOUTS
100
AcDbCircle
10
31.062499999999833
20
3.6249999999999805
30
0
40
0.49999999999998934
210
0
220
0
230
1
100
AcDbArc
50
-90.000000000004079
51
0
0
LINE
5
1A4
100
AcDbEntity
8
CUTOUTS
100
AcDbLine
10
31.062499999999797
20
3.1249999999999911
30
0
11
16.562499999999805
21
3.1249999999999911
31
0
0
ARC
5
1A5
100
AcDbEntity
8
CUTOUTS
100
AcDbCircle
10
16.562499999999805
20
3.6249999999999893
30
0
40
0.50000000000000711
210
0
220
0
230
1
100
AcDbArc
50
180
51
270
0
LINE
5
1A6
100
AcDbEntity
8
CUTOUTS
100
AcDbLine
10
16.062499999999797
20
3.6249999999999982
30
0
11
16.062499999999797
21
15.424999999999995
31
0
0
ARC
5
1A7
100
AcDbEntity
8
CUTOUTS
100
AcDbCircle
10
16.562499999999805
20
15.425000000000004
30
0
40
0.49999999999999822
210
0
220
-0
230
1
100
AcDbArc
50
90
51
180
0
LINE
5
1A8
100
AcDbEntity
8
CUTOUTS
100
AcDbLine
10
16.562499999999805
20
15.925000000000002
30
0
11
31.062499999999797
21
15.925000000000002
31
0
0
ARC
5
1A9
100
AcDbEntity
8
CUTOUTS
100
AcDbCircle
10
31.062499999999833
20
15.425000000000013
30
0
40
0.49999999999997158
210
-0
220
0
230
1
100
AcDbArc
50
0
51
90.000000000004079
0
LINE
5
1AA
100
AcDbEntity
8
CUTOUTS
100
AcDbLine
10
54.162499999999753
20
3.6249999999999982
30
0
11
54.162499999999753
21
15.424999999999995
31
0
0
ARC
5
1AB
100
AcDbEntity
8
CUTOUTS
100
AcDbCircle
10
54.662499999999724
20
15.425000000000031
30
0
40
0.49999999999997158
210
0
220
-0
230
1
100
AcDbArc
50
89.999999999996746
51
180
0
LINE
5
1AC
100
AcDbEntity
8
CUTOUTS
100
AcDbLine
10
54.662499999999753
20
15.925000000000002
30
0
11
69.16249999999971
21
15.925000000000002
31
0
0
ARC
5
1AD
100
AcDbEntity
8
CUTOUTS
100
AcDbCircle
10
69.162499999999753
20
15.425000000000031
30
0
40
0.49999999999997158
210
-0
220
0
230
1
100
AcDbArc
50
0
51
90.000000000004889
0
LINE
5
1AE
100
AcDbEntity
8
CUTOUTS
100
AcDbLine
10
69.662499999999724
20
15.424999999999995
30
0
11
69.662499999999724
21
3.6249999999999982
31
0
0
ARC
5
1AF
100
AcDbEntity
8
CUTOUTS
100
AcDbCircle
10
69.162499999999753
20
3.6249999999999627
30
0
40
0.49999999999997158
210
0
220
0
230
1
100
AcDbArc
50
-90.000000000004889
51
0
0
LINE
5
1B0
100
AcDbEntity
8
CUTOUTS
100
AcDbLine
10
69.16249999999971
20
3.1249999999999911
30
0
11
54.662499999999753
21
3.1249999999999911
31
0
0
ARC
5
1B1
100
AcDbEntity
8
CUTOUTS
100
AcDbCircle
10
54.662499999999724
20
3.6249999999999627
30
0
40
0.49999999999997158
210
0
220
0
230
1
100
AcDbArc
50
180
51
270.00000000000324
0
ARC
5
1B2
100
AcDbEntity
8
CUTOUTS
100
AcDbCircle
10
-7.0375000000001542
20
3.6249999999999893
30
0
40
0.49999999999999822
210
-0
220
0
230
1
100
AcDbArc
50
-90
51
0
0
LINE
5
1B3
100
AcDbEntity
8
CUTOUTS
100
AcDbLine
10
-6.5375000000001826
20
15.424999999999995
30
0
11
-6.5375000000001471
21
3.6249999999999982
31
0
0
ARC
5
1B4
100
AcDbEntity
8
CUTOUTS
100
AcDbCircle
10
-7.0375000000001542
20
15.425000000000004
30
0
40
0.49999999999997158
210
-0
220
0
230
1
100
AcDbArc
50
0
51
90
0
LINE
5
1B5
100
AcDbEntity
8
CUTOUTS
100
AcDbLine
10
-21.537500000000183
20
15.925000000000002
30
0
11
-7.0375000000001542
21
15.924999999999976
31
0
0
ARC
5
1B6
100
AcDbEntity
8
CUTOUTS
100
AcDbCircle
10
-21.537500000000183
20
15.425000000000004
30
0
40
0.49999999999999822
210
0
220
-0
230
1
100
AcDbArc
50
90
51
180
0
LINE
5
1B7
100
AcDbEntity
8
CUTOUTS
100
AcDbLine
10
-22.037500000000154
20
3.6249999999999982
30
0
11
-22.03750000000019
21
15.424999999999995
31
0
0
ARC
5
1B8
100
AcDbEntity
8
CUTOUTS
100
AcDbCircle
10
-21.537500000000183
20
3.6249999999999893
30
0
40
0.49999999999997158
210
0
220
0
230
1
100
AcDbArc
50
180
51
270
0
LINE
5
1B9
100
AcDbEntity
8
CUTOUTS
100
AcDbLine
10
-7.0375000000001542
20
3.1249999999999911
30
0
11
-21.537500000000183
21
3.1250000000000178
31
0
0
LINE
5
1BA
100
AcDbEntity
8
CUTOUTS
100
AcDbLine
10
-81.068750000000108
20
15.925000000000002
30
0
11
-66.568750000000122
21
15.925000000000002
31
0
0
ARC
5
1BB
100
AcDbEntity
8
CUTOUTS
100
AcDbCircle
10
-66.568750000000108
20
15.425000000000013
30
0
40
0.49999999999998934
210
-0
220
0
230
1
100
AcDbArc
50
0
51
90.000000000001634
0
LINE
5
1BC
100
AcDbEntity
8
CUTOUTS
100
AcDbLine
10
-66.068750000000108
20
15.424999999999995
30
0
11
-66.068750000000108
21
3.6249999999999982
31
0
0
ARC
5
1BD
100
AcDbEntity
8
CUTOUTS
100
AcDbCircle
10
-66.568750000000108
20
3.6249999999999805
30
0
40
0.49999999999998934
210
0
220
0
230
1
100
AcDbArc
50
-90.000000000001634
51
0
0
LINE
5
1BE
100
AcDbEntity
8
CUTOUTS
100
AcDbLine
10
-66.568750000000122
20
3.1249999999999911
30
0
11
-81.068750000000108
21
3.1249999999999911
31
0
0
ARC
5
1BF
100
AcDbEntity
8
CUTOUTS
100
AcDbCircle
10
-81.068750000000094
20
3.625000000000016
30
0
40
0.50000000000000711
210
0
220
0
230
1
100
AcDbArc
50
180
51
269.99999999999835
0
LINE
5
1C0
100
AcDbEntity
8
CUTOUTS
100
AcDbLine
10
-81.568750000000108
20
3.6249999999999982
30
0
11
-81.568750000000122
21
15.424999999999995
31
0
0
ARC
5
1C1
100
AcDbEntity
8
CUTOUTS
100
AcDbCircle
10
-81.068750000000136
20
15.425000000000013
30
0
40
0.49999999999998934
210
0
220
-0
230
1
100
AcDbArc
50
89.999999999996746
51
180
0
LINE
5
1C2
100
AcDbEntity
8
CUTOUTS
100
AcDbLine
10
-125.60000000000005
20
15.424999999999995
30
0
11
-125.60000000000004
21
3.6249999999999982
31
0
0
ARC
5
1C3
100
AcDbEntity
8
CUTOUTS
100
AcDbCircle
10
-126.10000000000002
20
3.6249999999999893
30
0
40
0.49999999999999822
210
-0
220
0
230
1
100
AcDbArc
50
-90
51
0
0
LINE
5
1C4
100
AcDbEntity
8
CUTOUTS
100
AcDbLine
10
-126.10000000000005
20
3.1249999999999911
30
0
11
-140.60000000000005
21
3.1250000000000089
31
0
0
ARC
5
1C5
100
AcDbEntity
8
CUTOUTS
100
AcDbCircle
10
-140.60000000000005
20
3.6250000000000071
30
0
40
0.49999999999998934
210
0
220
0
230
1
100
AcDbArc
50
180
51
270
0
LINE
5
1C6
100
AcDbEntity
8
CUTOUTS
100
AcDbLine
10
-141.10000000000002
20
3.6249999999999982
30
0
11
-141.10000000000005
21
15.424999999999995
31
0
0
ARC
5
1C7
100
AcDbEntity
8
CUTOUTS
100
AcDbCircle
10
-140.60000000000005
20
15.425000000000004
30
0
40
0.49999999999999822
210
0
220
-0
230
1
100
AcDbArc
50
90
51
180
0
LINE
5
1C8
100
AcDbEntity
8
CUTOUTS
100
AcDbLine
10
-140.60000000000005
20
15.925000000000002
30
0
11
-126.10000000000005
21
15.924999999999985
31
0
0
ARC
5
1C9
100
AcDbEntity
8
CUTOUTS
100
AcDbCircle
10
-126.10000000000007
20
15.424999999999986
30
0
40
0.50000000000000711
210
0
220
-0
230
1
100
AcDbArc
50
0
51
89.99999999999838
0
ARC
5
1CA
100
AcDbEntity
8
CUTOUTS
100
AcDbCircle
10
-40.587500000000119
20
15.425000000000004
30
0
40
0.49999999999999822
210
0
220
-0
230
1
100
AcDbArc
50
90
51
180
0
LINE
5
1CB
100
AcDbEntity
8
CUTOUTS
100
AcDbLine
10
-41.087500000000162
20
3.6249999999999982
30
0
11
-41.087500000000134
21
15.424999999999995
31
0
0
ARC
5
1CC
100
AcDbEntity
8
CUTOUTS
100
AcDbCircle
10
-40.587500000000119
20
3.6249999999999982
30
0
40
0.50000000000004263
210
0
220
0
230
1
100
AcDbArc
50
180
51
270
0
LINE
5
1CD
100
AcDbEntity
8
CUTOUTS
100
AcDbLine
10
-26.087500000000166
20
3.1249999999999911
30
0
11
-40.587500000000119
21
3.1249999999999911
31
0
0
ARC
5
1CE
100
AcDbEntity
8
CUTOUTS
100
AcDbCircle
10
-26.087500000000166
20
3.6249999999999893
30
0
40
0.49999999999999822
210
-0
220
0
230
1
100
AcDbArc
50
-90
51
0
0
LINE
5
1CF
100
AcDbEntity
8
CUTOUTS
100
AcDbLine
10
-25.587500000000123
20
15.424999999999995
30
0
11
-25.587500000000123
21
3.6249999999999982
31
0
0
ARC
5
1D0
100
AcDbEntity
8
CUTOUTS
100
AcDbCircle
10
-26.087500000000166
20
15.424999999999995
30
0
40
0.50000000000004263
210
0
220
-0
230
1
100
AcDbArc
50
0
51
90
0
LINE
5
1D1
100
AcDbEntity
8
CUTOUTS
100
AcDbLine
10
-40.587500000000119
20
15.925000000000002
30
0
11
-26.087500000000166
21
15.925000000000038
31
0
0
LINE
5
1D2
100
AcDbEntity
8
CUTOUTS
100
AcDbLine
10
-106.55000000000007
20
15.424999999999995
30
0
11
-106.55000000000007
21
3.6249999999999982
31
0
0
ARC
5
1D3
100
AcDbEntity
8
CUTOUTS
100
AcDbCircle
10
-107.05000000000007
20
3.6249999999999893
30
0
40
0.49999999999999822
210
-0
220
0
230
1
100
AcDbArc
50
-90
51
0
0
LINE
5
1D4
100
AcDbEntity
8
CUTOUTS
100
AcDbLine
10
-107.05000000000007
20
3.1249999999999911
30
0
11
-121.55000000000007
21
3.1250000000000089
31
0
0
ARC
5
1D5
100
AcDbEntity
8
CUTOUTS
100
AcDbCircle
10
-121.55000000000004
20
3.6250000000000071
30
0
40
0.50000000000000711
210
0
220
0
230
1
100
AcDbArc
50
180
51
269.99999999999676
0
LINE
5
1D6
100
AcDbEntity
8
CUTOUTS
100
AcDbLine
10
-122.05000000000005
20
3.6249999999999982
30
0
11
-122.05000000000005
21
15.424999999999995
31
0
0
ARC
5
1D7
100
AcDbEntity
8
CUTOUTS
100
AcDbCircle
10
-121.55000000000007
20
15.425000000000004
30
0
40
0.49999999999999822
210
0
220
-0
230
1
100
AcDbArc
50
90
51
180
0
LINE
5
1D8
100
AcDbEntity
8
CUTOUTS
100
AcDbLine
10
-121.55000000000007
20
15.925000000000002
30
0
11
-107.05000000000007
21
15.925000000000002
31
0
0
ARC
5
1D9
100
AcDbEntity
8
CUTOUTS
100
AcDbCircle
10
-107.05000000000007
20
15.425000000000004
30
0
40
0.50000000000000711
210
-0
220
0
230
1
100
AcDbArc
50
0
51
90
0
ARC
5
1DA
100
AcDbEntity
8
CUTOUTS
100
AcDbCircle
10
-88.000000000000085
20
15.425000000000013
30
0
40
0.49999999999998934
210
-0
220
0
230
1
100
AcDbArc
50
0
51
90.000000000001634
0
LINE
5
1DB
100
AcDbEntity
8
CUTOUTS
100
AcDbLine
10
-102.50000000000007
20
15.925000000000002
30
0
11
-88.000000000000099
21
15.925000000000002
31
0
0
ARC
5
1DC
100
AcDbEntity
8
CUTOUTS
100
AcDbCircle
10
-102.50000000000009
20
15.425000000000013
30
0
40
0.49999999999998934
210
0
220
-0
230
1
100
AcDbArc
50
89.99999999999838
51
180
0
LINE
5
1DD
100
AcDbEntity
8
CUTOUTS
100
AcDbLine
10
-103.00000000000009
20
3.6249999999999982
30
0
11
-103.00000000000009
21
15.424999999999995
31
0
0
ARC
5
1DE
100
AcDbEntity
8
CUTOUTS
100
AcDbCircle
10
-102.50000000000009
20
3.6249999999999805
30
0
40
0.49999999999998934
210
0
220
0
230
1
100
AcDbArc
50
180
51
270.00000000000324
0
LINE
5
1DF
100
AcDbEntity
8
CUTOUTS
100
AcDbLine
10
-88.000000000000099
20
3.1249999999999911
30
0
11
-102.50000000000006
21
3.1249999999999911
31
0
0
ARC
5
1E0
100
AcDbEntity
8
CUTOUTS
100
AcDbCircle
10
-88.000000000000085
20
3.6249999999999805
30
0
40
0.49999999999998934
210
0
220
0
230
1
100
AcDbArc
50
-90.000000000001634
51
0
0
LINE
5
1E1
100
AcDbEntity
8
CUTOUTS
100
AcDbLine
10
-87.500000000000085
20
15.424999999999995
30
0
11
-87.500000000000085
21
3.6249999999999982
31
0
0
LINE
5
1E2
100
AcDbEntity
8
CUTOUTS
100
AcDbLine
10
-60.137500000000102
20
3.6249999999999982
30
0
11
-60.137500000000145
21
15.424999999999995
31
0
0
ARC
5
1E3
100
AcDbEntity
8
CUTOUTS
100
AcDbCircle
10
-59.637500000000131
20
15.425000000000004
30
0
40
0.49999999999999822
210
0
220
-0
230
1
100
AcDbArc
50
90
51
180
0
LINE
5
1E4
100
AcDbEntity
8
CUTOUTS
100
AcDbLine
10
-59.637500000000131
20
15.925000000000002
30
0
11
-45.137500000000145
21
15.925000000000002
31
0
0
ARC
5
1E5
100
AcDbEntity
8
CUTOUTS
100
AcDbCircle
10
-45.137500000000145
20
15.425000000000004
30
0
40
0.50000000000000711
210
-0
220
0
230
1
100
AcDbArc
50
0
51
90
0
LINE
5
1E6
100
AcDbEntity
8
CUTOUTS
100
AcDbLine
10
-44.637500000000131
20
15.424999999999995
30
0
11
-44.637500000000131
21
3.6249999999999982
31
0
0
ARC
5
1E7
100
AcDbEntity
8
CUTOUTS
100
AcDbCircle
10
-45.137500000000145
20
3.6249999999999893
30
0
40
0.49999999999999822
210
-0
220
0
230
1
100
AcDbArc
50
-90
51
0
0
LINE
5
1E8
100
AcDbEntity
8
CUTOUTS
100
AcDbLine
10
-45.137500000000145
20
3.1249999999999911
30
0
11
-59.637500000000131
21
3.1249999999999911
31
0
0
ARC
5
1E9
100
AcDbEntity
8
CUTOUTS
100
AcDbCircle
10
-59.637500000000131
20
3.6249999999999893
30
0
40
0.49999999999997158
210
0
220
0
230
1
100
AcDbArc
50
180
51
270
0
ARC
5
1EA
100
AcDbEntity
8
CUTOUTS
100
AcDbCircle
10
12.012499999999786
20
15.425000000000004
30
0
40
0.50000000000000711
210
-0
220
0
230
1
100
AcDbArc
50
0
51
90
0
LINE
5
1EB
100
AcDbEntity
8
CUTOUTS
100
AcDbLine
10
-2.4875000000001712
20
15.925000000000002
30
0
11
12.012499999999786
21
15.925000000000002
31
0
0
ARC
5
1EC
100
AcDbEntity
8
CUTOUTS
100
AcDbCircle
10
-2.4875000000001712
20
15.425000000000004
30
0
40
0.49999999999999822
210
0
220
-0
230
1
100
AcDbArc
50
90
51
180
0
LINE
5
1ED
100
AcDbEntity
8
CUTOUTS
100
AcDbLine
10
-2.9875000000002139
20
3.6249999999999982
30
0
11
-2.9875000000001783
21
15.424999999999995
31
0
0
ARC
5
1EE
100
AcDbEntity
8
CUTOUTS
100
AcDbCircle
10
-2.4875000000001712
20
3.6249999999999982
30
0
40
0.50000000000004263
210
0
220
0
230
1
100
AcDbArc
50
180
51
270
0
LINE
5
1EF
100
AcDbEntity
8
CUTOUTS
100
AcDbLine
10
12.012499999999786
20
3.1249999999999911
30
0
11
-2.4875000000001712
21
3.1249999999999911
31
0
0
ARC
5
1F0
100
AcDbEntity
8
CUTOUTS
100
AcDbCircle
10
12.012499999999786
20
3.6249999999999893
30
0
40
0.49999999999999822
210
-0
220
0
230
1
100
AcDbArc
50
-90
51
0
0
LINE
5
1F1
100
AcDbEntity
8
CUTOUTS
100
AcDbLine
10
12.512499999999793
20
15.424999999999995
30
0
11
12.512499999999793
21
3.6249999999999982
31
0
0
LINE
5
1F2
100
AcDbEntity
8
CUTOUTS
100
AcDbLine
10
-125.60000000000005
20
-22.67499999999999
30
0
11
-125.60000000000004
21
-34.474999999999952
31
0
0
ARC
5
1F3
100
AcDbEntity
8
CUTOUTS
100
AcDbCircle
10
-126.10000000000007
20
-34.474999999999937
30
0
40
0.50000000000002487
210
-0
220
0
230
1
100
AcDbArc
50
270.00000000000159
51
360
0
LINE
5
1F4
100
AcDbEntity
8
CUTOUTS
100
AcDbLine
10
-126.10000000000005
20
-34.974999999999959
30
0
11
-140.60000000000005
21
-34.974999999999945
31
0
0
ARC
5
1F5
100
AcDbEntity
8
CUTOUTS
100
AcDbCircle
10
-140.60000000000005
20
-34.474999999999952
30
0
40
0.49999999999998934
210
0
220
0
230
1
100
AcDbArc
50
180
51
270
0
LINE
5
1F6
100
AcDbEntity
8
CUTOUTS
100
AcDbLine
10
-141.10000000000002
20
-34.474999999999952
30
0
11
-141.10000000000005
21
-22.67499999999999
31
0
0
ARC
5
1F7
100
AcDbEntity
8
CUTOUTS
100
AcDbCircle
10
-140.60000000000005
20
-22.674999999999983
30
0
40
0.49999999999999822
210
0
220
-0
230
1
100
AcDbArc
50
90
51
180
0
LINE
5
1F8
100
AcDbEntity
8
CUTOUTS
100
AcDbLine
10
-140.60000000000005
20
-22.174999999999983
30
0
11
-126.10000000000005
21
-22.175000000000004
31
0
0
ARC
5
1F9
100
AcDbEntity
8
CUTOUTS
100
AcDbCircle
10
-126.10000000000007
20
-22.675000000000001
30
0
40
0.50000000000000711
210
0
220
-0
230
1
100
AcDbArc
50
0
51
89.99999999999838
0
LINE
5
1FA
100
AcDbEntity
8
CUTOUTS
100
AcDbLine
10
78.413749999999723
20
-37.659999999999954
30
0
11
76.74374999999975
21
-37.659999999999954
31
0
0
ARC
5
1FB
100
AcDbEntity
8
CUTOUTS
100
AcDbCircle
10
76.74374999999975
20
-37.159999999999933
30
0
40
0.50000000000000711
210
0
220
0
230
1
100
AcDbArc
50
180
51
270
0
LINE
5
1FC
100
AcDbEntity
8
CUTOUTS
100
AcDbLine
10
76.243749999999736
20
-37.159999999999947
30
0
11
76.243749999999778
21
-32.949999999999953
31
0
0
ARC
5
1FD
100
AcDbEntity
8
CUTOUTS
100
AcDbCircle
10
76.74374999999975
20
-32.949999999999953
30
0
40
0.49999999999997158
210
0
220
-0
230
1
100
AcDbArc
50
90
51
180
0
LINE
5
1FE
100
AcDbEntity
8
CUTOUTS
100
AcDbLine
10
76.74374999999975
20
-32.449999999999982
30
0
11
78.413749999999723
21
-32.449999999999982
31
0
0
ARC
5
1FF
100
AcDbEntity
8
CUTOUTS
100
AcDbCircle
10
78.413749999999723
20
-32.949999999999953
30
0
40
0.50000000000000711
210
0
220
-0
230
1
100
AcDbArc
50
0
51
90
0
LINE
5
200
100
AcDbEntity
8
CUTOUTS
100
AcDbLine
10
78.913749999999737
20
-32.949999999999953
30
0
11
78.913749999999737
21
-37.159999999999947
31
0
0
ARC
5
201
100
AcDbEntity
8
CUTOUTS
100
AcDbCircle
10
78.413749999999723
20
-37.159999999999947
30
0
40
0.50000000000000711
210
-0
220
0
230
1
100
AcDbArc
50
-90
51
0
0
LINE
5
202
100
AcDbEntity
8
CUTOUTS
100
AcDbLine
10
123.71874999999966
20
-3.1250000000000089
30
0
11
138.21874999999969
21
-3.1250000000000089
31
0
0
ARC
5
203
100
AcDbEntity
8
CUTOUTS
100
AcDbCircle
10
138.21874999999969
20
-3.6249999999999716
30
0
40
0.49999999999997158
210
-0
220
0
230
1
100
AcDbArc
50
0
51
89.999999999996746
0
LINE
5
204
100
AcDbEntity
8
CUTOUTS
100
AcDbLine
10
138.71874999999966
20
-3.6249999999999805
30
0
11
138.71874999999969
21
-15.424999999999978
31
0
0
ARC
5
205
100
AcDbEntity
8
CUTOUTS
100
AcDbCircle
10
138.21874999999972
20
-15.424999999999995
30
0
40
0.49999999999998934
210
0
220
0
230
1
100
AcDbArc
50
-90.000000000003254
51
0
0
LINE
5
206
100
AcDbEntity
8
CUTOUTS
100
AcDbLine
10
138.21874999999969
20
-15.924999999999985
30
0
11
123.71874999999966
21
-15.924999999999949
31
0
0
ARC
5
207
100
AcDbEntity
8
CUTOUTS
100
AcDbCircle
10
123.71874999999966
20
-15.424999999999986
30
0
40
0.49999999999997158
210
0
220
0
230
1
100
AcDbArc
50
180
51
269.99999999999676
0
LINE
5
208
100
AcDbEntity
8
CUTOUTS
100
AcDbLine
10
123.21874999999969
20
-15.424999999999978
30
0
11
123.21874999999969
21
-3.6249999999999805
31
0
0
ARC
5
209
100
AcDbEntity
8
CUTOUTS
100
AcDbCircle
10
123.71874999999966
20
-3.6249999999999716
30
0
40
0.4999999999999627
210
0
220
-0
230
1
100
AcDbArc
50
90
51
180
0
LINE
5
20A
100
AcDbEntity
8
CUTOUTS
100
AcDbLine
10
-12.021250000000183
20
-32.949999999999953
30
0
11
-12.021250000000183
21
-37.159999999999947
31
0
0
ARC
5
20B
100
AcDbEntity
8
CUTOUTS
100
AcDbCircle
10
-12.521250000000173
20
-37.159999999999933
30
0
40
0.50000000000002487
210
-0
220
0
230
1
100
AcDbArc
50
270.00000000000205
51
360
0
LINE
5
20C
100
AcDbEntity
8
CUTOUTS
100
AcDbLine
10
-12.521250000000155
20
-37.659999999999954
30
0
11
-14.191250000000171
21
-37.659999999999918
31
0
0
ARC
5
20D
100
AcDbEntity
8
CUTOUTS
100
AcDbCircle
10
-14.191250000000171
20
-37.159999999999947
30
0
40
0.49999999999997158
210
0
220
0
230
1
100
AcDbArc
50
180
51
270
0
LINE
5
20E
100
AcDbEntity
8
CUTOUTS
100
AcDbLine
10
-14.691250000000142
20
-37.159999999999947
30
0
11
-14.691250000000178
21
-32.949999999999953
31
0
0
ARC
5
20F
100
AcDbEntity
8
CUTOUTS
100
AcDbCircle
10
-14.191250000000153
20
-32.949999999999974
30
0
40
0.50000000000002487
210
0
220
0
230
1
100
AcDbArc
50
90.000000000002032
51
180
0
LINE
5
210
100
AcDbEntity
8
CUTOUTS
100
AcDbLine
10
-14.191250000000171
20
-32.449999999999946
30
0
11
-12.521250000000155
21
-32.449999999999982
31
0
0
ARC
5
211
100
AcDbEntity
8
CUTOUTS
100
AcDbCircle
10
-12.521250000000155
20
-32.949999999999953
30
0
40
0.49999999999997158
210
0
220
-0
230
1
100
AcDbArc
50
0
51
90
0
LINE
5
212
100
AcDbEntity
8
CUTOUTS
100
AcDbLine
10
-59.637500000000131
20
-22.174999999999983
30
0
11
-45.137500000000145
21
-22.174999999999983
31
0
0
ARC
5
213
100
AcDbEntity
8
CUTOUTS
100
AcDbCircle
10
-45.137500000000145
20
-22.674999999999983
30
0
40
0.50000000000000711
210
-0
220
0
230
1
100
AcDbArc
50
0
51
90
0
LINE
5
214
100
AcDbEntity
8
CUTOUTS
100
AcDbLine
10
-44.637500000000131
20
-22.67499999999999
30
0
11
-44.637500000000131
21
-34.474999999999952
31
0
0
ARC
5
215
100
AcDbEntity
8
CUTOUTS
100
AcDbCircle
10
-45.137500000000159
20
-34.474999999999937
30
0
40
0.50000000000002487
210
-0
220
0
230
1
100
AcDbArc
50
270.00000000000159
51
360
0
LINE
5
216
100
AcDbEntity
8
CUTOUTS
100
AcDbLine
10
-45.137500000000145
20
-34.974999999999959
30
0
11
-59.637500000000131
21
-34.974999999999923
31
0
0
ARC
5
217
100
AcDbEntity
8
CUTOUTS
100
AcDbCircle
10
-59.637500000000131
20
-34.474999999999952
30
0
40
0.49999999999997158
210
0
220
0
230
1
100
AcDbArc
50
180
51
270
0
LINE
5
218
100
AcDbEntity
8
CUTOUTS
100
AcDbLine
10
-60.137500000000102
20
-34.474999999999952
30
0
11
-60.137500000000145
21
-22.67499999999999
31
0
0
ARC
5
219
100
AcDbEntity
8
CUTOUTS
100
AcDbCircle
10
-59.637500000000131
20
-22.674999999999983
30
0
40
0.49999999999999822
210
0
220
-0
230
1
100
AcDbArc
50
90
51
180
0
LINE
5
21A
100
AcDbEntity
8
CUTOUTS
100
AcDbLine
10
59.637499999999747
20
-15.924999999999985
30
0
11
45.137499999999747
21
-15.924999999999985
31
0
0
ARC
5
21B
100
AcDbEntity
8
CUTOUTS
100
AcDbCircle
10
45.137499999999719
20
-15.425000000000013
30
0
40
0.49999999999997158
210
0
220
0
230
1
100
AcDbArc
50
180
51
270.00000000000324
0
LINE
5
21C
100
AcDbEntity
8
CUTOUTS
100
AcDbLine
10
44.637499999999747
20
-15.424999999999978
30
0
11
44.637499999999747
21
-3.6249999999999805
31
0
0
ARC
5
21D
100
AcDbEntity
8
CUTOUTS
100
AcDbCircle
10
45.137499999999719
20
-3.6249999999999716
30
0
40
0.4999999999999627
210
0
220
-0
230
1
100
AcDbArc
50
89.999999999996746
51
180
0
LINE
5
21E
100
AcDbEntity
8
CUTOUTS
100
AcDbLine
10
45.137499999999747
20
-3.1250000000000089
30
0
11
59.637499999999747
21
-3.1249999999999911
31
0
0
ARC
5
21F
100
AcDbEntity
8
CUTOUTS
100
AcDbCircle
10
59.637499999999775
20
-3.6249999999999627
30
0
40
0.49999999999997158
210
-0
220
0
230
1
100
AcDbArc
50
0
51
90.000000000003254
0
LINE
5
220
100
AcDbEntity
8
CUTOUTS
100
AcDbLine
10
60.137499999999747
20
-3.6249999999999805
30
0
11
60.13749999999979
21
-15.424999999999978
31
0
0
ARC
5
221
100
AcDbEntity
8
CUTOUTS
100
AcDbCircle
10
59.637499999999775
20
-15.424999999999995
30
0
40
0.49999999999998934
210
0
220
0
230
1
100
AcDbArc
50
-90.000000000003254
51
0
0
LINE
5
222
100
AcDbEntity
8
CUTOUTS
100
AcDbLine
10
2.9874999999998231
20
-3.6249999999999805
30
0
11
2.9874999999998586
21
-15.424999999999978
31
0
0
ARC
5
223
100
AcDbEntity
8
CUTOUTS
100
AcDbCircle
10
2.4874999999998515
20
-15.424999999999986
30
0
40
0.49999999999999822
210
-0
220
0
230
1
100
AcDbArc
50
-90
51
0
0
LINE
5
224
100
AcDbEntity
8
CUTOUTS
100
AcDbLine
10
2.4874999999998515
20
-15.924999999999985
30
0
11
-12.012500000000177
21
-15.924999999999949
31
0
0
ARC
5
225
100
AcDbEntity
8
CUTOUTS
100
AcDbCircle
10
-12.012500000000177
20
-15.424999999999986
30
0
40
0.49999999999997158
210
0
220
0
230
1
100
AcDbArc
50
180
51
270
0
LINE
5
226
100
AcDbEntity
8
CUTOUTS
100
AcDbLine
10
-12.512500000000149
20
-15.424999999999978
30
0
11
-12.512500000000131
21
-3.6249999999999805
31
0
0
ARC
5
227
100
AcDbEntity
8
CUTOUTS
100
AcDbCircle
10
-12.012500000000177
20
-3.6249999999999716
30
0
40
0.4999999999999627
210
0
220
-0
230
1
100
AcDbArc
50
90
51
180
0
LINE
5
228
100
AcDbEntity
8
CUTOUTS
100
AcDbLine
10
-12.012500000000177
20
-3.1250000000000089
30
0
11
2.4874999999998515
21
-3.1250000000000089
31
0
0
ARC
5
229
100
AcDbEntity
8
CUTOUTS
100
AcDbCircle
10
2.4874999999998515
20
-3.6249999999999716
30
0
40
0.49999999999997158
210
-0
220
0
230
1
100
AcDbArc
50
0
51
90
0
LINE
5
22A
100
AcDbEntity
8
CUTOUTS
100
AcDbLine
10
83.237499999999741
20
-3.1250000000000089
30
0
11
97.737499999999699
21
-3.1250000000000089
31
0
0
ARC
5
22B
100
AcDbEntity
8
CUTOUTS
100
AcDbCircle
10
97.737499999999699
20
-3.6249999999999716
30
0
40
0.49999999999997158
210
-0
220
0
230
1
100
AcDbArc
50
0
51
89.99999999999838
0
LINE
5
22C
100
AcDbEntity
8
CUTOUTS
100
AcDbLine
10
98.23749999999967
20
-3.6249999999999805
30
0
11
98.23749999999967
21
-15.424999999999978
31
0
0
ARC
5
22D
100
AcDbEntity
8
CUTOUTS
100
AcDbCircle
10
97.737499999999727
20
-15.424999999999995
30
0
40
0.49999999999998934
210
0
220
0
230
1
100
AcDbArc
50
-90.000000000003254
51
0
0
LINE
5
22E
100
AcDbEntity
8
CUTOUTS
100
AcDbLine
10
97.737499999999699
20
-15.924999999999985
30
0
11
83.237499999999741
21
-15.924999999999985
31
0
0
ARC
5
22F
100
AcDbEntity
8
CUTOUTS
100
AcDbCircle
10
83.237499999999699
20
-15.424999999999995
30
0
40
0.49999999999997158
210
0
220
0
230
1
100
AcDbArc
50
180
51
270.00000000000489
0
LINE
5
230
100
AcDbEntity
8
CUTOUTS
100
AcDbLine
10
82.737499999999727
20
-15.424999999999978
30
0
11
82.73749999999977
21
-3.6249999999999805
31
0
0
ARC
5
231
100
AcDbEntity
8
CUTOUTS
100
AcDbCircle
10
83.237499999999741
20
-3.6249999999999716
30
0
40
0.4999999999999627
210
0
220
-0
230
1
100
AcDbArc
50
90
51
180
0
LINE
5
232
100
AcDbEntity
8
CUTOUTS
100
AcDbLine
10
117.28749999999968
20
-3.6249999999999805
30
0
11
117.28749999999971
21
-15.424999999999978
31
0
0
ARC
5
233
100
AcDbEntity
8
CUTOUTS
100
AcDbCircle
10
116.78749999999974
20
-15.424999999999995
30
0
40
0.49999999999998934
210
0
220
0
230
1
100
AcDbArc
50
-90.000000000003254
51
0
0
LINE
5
234
100
AcDbEntity
8
CUTOUTS
100
AcDbLine
10
116.78749999999971
20
-15.924999999999985
30
0
11
102.28749999999968
21
-15.924999999999985
31
0
0
ARC
5
235
100
AcDbEntity
8
CUTOUTS
100
AcDbCircle
10
102.28749999999968
20
-15.424999999999986
30
0
40
0.49999999999997158
210
0
220
0
230
1
100
AcDbArc
50
180
51
269.99999999999676
0
LINE
5
236
100
AcDbEntity
8
CUTOUTS
100
AcDbLine
10
101.78749999999971
20
-15.424999999999978
30
0
11
101.78749999999971
21
-3.6249999999999805
31
0
0
ARC
5
237
100
AcDbEntity
8
CUTOUTS
100
AcDbCircle
10
102.28749999999968
20
-3.6249999999999716
30
0
40
0.4999999999999627
210
0
220
-0
230
1
100
AcDbArc
50
90
51
180
0
LINE
5
238
100
AcDbEntity
8
CUTOUTS
100
AcDbLine
10
102.28749999999968
20
-3.1250000000000089
30
0
11
116.78749999999971
21
-3.1250000000000089
31
0
0
ARC
5
239
100
AcDbEntity
8
CUTOUTS
100
AcDbCircle
10
116.78749999999971
20
-3.6249999999999716
30
0
40
0.49999999999997158
210
-0
220
0
230
1
100
AcDbArc
50
0
51
89.99999999999838
0
LINE
5
23A
100
AcDbEntity
8
CUTOUTS
100
AcDbLine
10
79.18749999999973
20
-3.6249999999999805
30
0
11
79.18749999999973
21
-15.424999999999978
31
0
0
ARC
5
23B
100
AcDbEntity
8
CUTOUTS
100
AcDbCircle
10
78.687499999999758
20
-15.425000000000013
30
0
40
0.49999999999997158
210
0
220
0
230
1
100
AcDbArc
50
-90.000000000004889
51
0
0
LINE
5
23C
100
AcDbEntity
8
CUTOUTS
100
AcDbLine
10
78.687499999999716
20
-15.924999999999985
30
0
11
64.187499999999758
21
-15.924999999999985
31
0
0
ARC
5
23D
100
AcDbEntity
8
CUTOUTS
100
AcDbCircle
10
64.18749999999973
20
-15.425000000000013
30
0
40
0.49999999999997158
210
0
220
0
230
1
100
AcDbArc
50
180
51
270.00000000000324
0
LINE
5
23E
100
AcDbEntity
8
CUTOUTS
100
AcDbLine
10
63.687499999999758
20
-15.424999999999978
30
0
11
63.687499999999758
21
-3.6249999999999805
31
0
0
ARC
5
23F
100
AcDbEntity
8
CUTOUTS
100
AcDbCircle
10
64.18749999999973
20
-3.6249999999999716
30
0
40
0.4999999999999627
210
0
220
-0
230
1
100
AcDbArc
50
89.999999999996746
51
180
0
LINE
5
240
100
AcDbEntity
8
CUTOUTS
100
AcDbLine
10
64.187499999999758
20
-3.1250000000000089
30
0
11
78.687499999999716
21
-3.1250000000000089
31
0
0
ARC
5
241
100
AcDbEntity
8
CUTOUTS
100
AcDbCircle
10
78.687499999999758
20
-3.6249999999999449
30
0
40
0.49999999999997158
210
-0
220
0
230
1
100
AcDbArc
50
0
51
90.000000000004889
0
LINE
5
242
100
AcDbEntity
8
CUTOUTS
100
AcDbLine
10
40.587499999999764
20
-15.924999999999985
30
0
11
26.08749999999981
21
-15.924999999999985
31
0
0
ARC
5
243
100
AcDbEntity
8
CUTOUTS
100
AcDbCircle
10
26.087499999999775
20
-15.425000000000013
30
0
40
0.49999999999997158
210
0
220
0
230
1
100
AcDbArc
50
180
51
270.00000000000409
0
LINE
5
244
100
AcDbEntity
8
CUTOUTS
100
AcDbLine
10
25.587499999999803
20
-15.424999999999978
30
0
11
25.587499999999839
21
-3.6249999999999805
31
0
0
ARC
5
245
100
AcDbEntity
8
CUTOUTS
100
AcDbCircle
10
26.087499999999775
20
-3.6249999999999716
30
0
40
0.4999999999999627
210
0
220
-0
230
1
100
AcDbArc
50
89.999999999995936
51
180
0
LINE
5
246
100
AcDbEntity
8
CUTOUTS
100
AcDbLine
10
26.08749999999981
20
-3.1250000000000089
30
0
11
40.587499999999764
21
-3.1249999999999734
31
0
0
ARC
5
247
100
AcDbEntity
8
CUTOUTS
100
AcDbCircle
10
40.587499999999807
20
-3.6249999999999449
30
0
40
0.49999999999997158
210
-0
220
0
230
1
100
AcDbArc
50
0
51
90.000000000004889
0
LINE
5
248
100
AcDbEntity
8
CUTOUTS
100
AcDbLine
10
41.087499999999778
20
-3.6249999999999805
30
0
11
41.087499999999778
21
-15.424999999999978
31
0
0
ARC
5
249
100
AcDbEntity
8
CUTOUTS
100
AcDbCircle
10
40.587499999999807
20
-15.425000000000013
30
0
40
0.49999999999997158
210
0
220
0
230
1
100
AcDbArc
50
-90.000000000004889
51
0
0
LINE
5
24A
100
AcDbEntity
8
CUTOUTS
100
AcDbLine
10
22.037499999999799
20
-3.6249999999999805
30
0
11
22.037499999999799
21
-15.424999999999978
31
0
0
ARC
5
24B
100
AcDbEntity
8
CUTOUTS
100
AcDbCircle
10
21.537499999999827
20
-15.424999999999995
30
0
40
0.49999999999998934
210
0
220
0
230
1
100
AcDbArc
50
-90.000000000004079
51
0
0
LINE
5
24C
100
AcDbEntity
8
CUTOUTS
100
AcDbLine
10
21.537499999999792
20
-15.924999999999985
30
0
11
7.0374999999998344
21
-15.924999999999985
31
0
0
ARC
5
24D
100
AcDbEntity
8
CUTOUTS
100
AcDbCircle
10
7.0374999999998344
20
-15.424999999999978
30
0
40
0.50000000000004263
210
0
220
0
230
1
100
AcDbArc
50
180
51
270
0
LINE
5
24E
100
AcDbEntity
8
CUTOUTS
100
AcDbLine
10
6.5374999999997918
20
-15.424999999999978
30
0
11
6.5374999999998806
21
-3.6249999999999805
31
0
0
ARC
5
24F
100
AcDbEntity
8
CUTOUTS
100
AcDbCircle
10
7.0374999999998344
20
-3.6249999999999716
30
0
40
0.4999999999999627
210
0
220
-0
230
1
100
AcDbArc
50
90
51
180
0
LINE
5
250
100
AcDbEntity
8
CUTOUTS
100
AcDbLine
10
7.0374999999998344
20
-3.1250000000000089
30
0
11
21.537499999999792
21
-3.1249999999999734
31
0
0
ARC
5
251
100
AcDbEntity
8
CUTOUTS
100
AcDbCircle
10
21.537499999999827
20
-3.6249999999999627
30
0
40
0.49999999999997158
210
-0
220
0
230
1
100
AcDbArc
50
0
51
90.000000000004079
0
LINE
5
252
100
AcDbEntity
8
CUTOUTS
100
AcDbLine
10
14.893749999999795
20
-22.67499999999999
30
0
11
14.89374999999983
21
-34.474999999999952
31
0
0
ARC
5
253
100
AcDbEntity
8
CUTOUTS
100
AcDbCircle
10
14.393749999999805
20
-34.474999999999937
30
0
40
0.50000000000002487
210
-0
220
0
230
1
100
AcDbArc
50
270.00000000000205
51
360
0
LINE
5
254
100
AcDbEntity
8
CUTOUTS
100
AcDbLine
10
14.393749999999823
20
-34.974999999999959
30
0
11
-0.10625000000016982
21
-34.974999999999959
31
0
0
ARC
5
255
100
AcDbEntity
8
CUTOUTS
100
AcDbCircle
10
-0.10625000000015206
20
-34.474999999999937
30
0
40
0.50000000000002487
210
0
220
0
230
1
100
AcDbArc
50
180
51
269.99999999999795
0
LINE
5
256
100
AcDbEntity
8
CUTOUTS
100
AcDbLine
10
-0.60625000000017693
20
-34.474999999999952
30
0
11
-0.60625000000021245
21
-22.67499999999999
31
0
0
ARC
5
257
100
AcDbEntity
8
CUTOUTS
100
AcDbCircle
10
-0.10625000000016982
20
-22.67499999999999
30
0
40
0.50000000000004263
210
0
220
-0
230
1
100
AcDbArc
50
90
51
180
0
LINE
5
258
100
AcDbEntity
8
CUTOUTS
100
AcDbLine
10
-0.10625000000016982
20
-22.174999999999947
30
0
11
14.393749999999823
21
-22.175000000000018
31
0
0
ARC
5
259
100
AcDbEntity
8
CUTOUTS
100
AcDbCircle
10
14.393749999999823
20
-22.674999999999983
30
0
40
0.49999999999997158
210
-0
220
0
230
1
100
AcDbArc
50
0
51
90
0
LINE
5
25A
100
AcDbEntity
8
CUTOUTS
100
AcDbLine
10
-81.568750000000108
20
-34.474999999999952
30
0
11
-81.568750000000122
21
-22.67499999999999
31
0
0
ARC
5
25B
100
AcDbEntity
8
CUTOUTS
100
AcDbCircle
10
-81.068750000000136
20
-22.674999999999976
30
0
40
0.49999999999998934
210
0
220
-0
230
1
100
AcDbArc
50
89.999999999996746
51
180
0
LINE
5
25C
100
AcDbEntity
8
CUTOUTS
100
AcDbLine
10
-81.068750000000108
20
-22.174999999999983
30
0
11
-66.568750000000122
21
-22.174999999999983
31
0
0
ARC
5
25D
100
AcDbEntity
8
CUTOUTS
100
AcDbCircle
10
-66.568750000000108
20
-22.674999999999976
30
0
40
0.49999999999998934
210
-0
220
0
230
1
100
AcDbArc
50
0
51
90.000000000001634
0
LINE
5
25E
100
AcDbEntity
8
CUTOUTS
100
AcDbLine
10
-66.068750000000108
20
-22.67499999999999
30
0
11
-66.068750000000108
21
-34.474999999999952
31
0
0
ARC
5
25F
100
AcDbEntity
8
CUTOUTS
100
AcDbCircle
10
-66.568750000000122
20
-34.474999999999937
30
0
40
0.50000000000002487
210
-0
220
0
230
1
100
AcDbArc
50
270
51
360
0
LINE
5
260
100
AcDbEntity
8
CUTOUTS
100
AcDbLine
10
-66.568750000000122
20
-34.974999999999959
30
0
11
-81.068750000000108
21
-34.974999999999959
31
0
0
ARC
5
261
100
AcDbEntity
8
CUTOUTS
100
AcDbCircle
10
-81.068750000000108
20
-34.474999999999952
30
0
40
0.49999999999998934
210
0
220
0
230
1
100
AcDbArc
50
180
51
270
0
LINE
5
262
100
AcDbEntity
8
CUTOUTS
100
AcDbLine
10
-117.94000000000005
20
-37.659999999999954
30
0
11
-119.61000000000004
21
-37.659999999999954
31
0
0
ARC
5
263
100
AcDbEntity
8
CUTOUTS
100
AcDbCircle
10
-117.94000000000008
20
-37.159999999999933
30
0
40
0.50000000000002487
210
-0
220
0
230
1
100
AcDbArc
50
270.00000000000324
51
360
0
LINE
5
264
100
AcDbEntity
8
CUTOUTS
100
AcDbLine
10
-117.44000000000005
20
-34.974999999999959
30
0
11
-117.44000000000005
21
-37.159999999999947
31
0
0
LINE
5
265
100
AcDbEntity
8
CUTOUTS
100
AcDbLine
10
-92.11000000000007
20
-34.974999999999959
30
0
11
-117.44000000000005
21
-34.974999999999959
31
0
0
LINE
5
266
100
AcDbEntity
8
CUTOUTS
100
AcDbLine
10
-92.11000000000007
20
-37.159999999999947
30
0
11
-92.11000000000007
21
-34.974999999999959
31
0
0
ARC
5
267
100
AcDbEntity
8
CUTOUTS
100
AcDbCircle
10
-91.610000000000085
20
-37.159999999999947
30
0
40
0.49999999999998934
210
0
220
0
230
1
100
AcDbArc
50
180
51
270.00000000000159
0
LINE
5
268
100
AcDbEntity
8
CUTOUTS
100
AcDbLine
10
-89.940000000000083
20
-37.659999999999954
30
0
11
-91.61000000000007
21
-37.659999999999954
31
0
0
ARC
5
269
100
AcDbEntity
8
CUTOUTS
100
AcDbCircle
10
-89.940000000000111
20
-37.159999999999933
30
0
40
0.50000000000002487
210
-0
220
0
230
1
100
AcDbArc
50
270
51
360
0
LINE
5
26A
100
AcDbEntity
8
CUTOUTS
100
AcDbLine
10
-89.440000000000083
20
-34.974999999999959
30
0
11
-89.440000000000083
21
-37.159999999999947
31
0
0
LINE
5
26B
100
AcDbEntity
8
CUTOUTS
100
AcDbLine
10
-88.000000000000099
20
-34.974999999999959
30
0
11
-89.440000000000083
21
-34.974999999999959
31
0
0
ARC
5
26C
100
AcDbEntity
8
CUTOUTS
100
AcDbCircle
10
-88.000000000000114
20
-34.474999999999937
30
0
40
0.50000000000002487
210
-0
220
0
230
1
100
AcDbArc
50
270
51
360
0
LINE
5
26D
100
AcDbEntity
8
CUTOUTS
100
AcDbLine
10
-87.500000000000085
20
-22.67499999999999
30
0
11
-87.500000000000085
21
-34.474999999999952
31
0
0
ARC
5
26E
100
AcDbEntity
8
CUTOUTS
100
AcDbCircle
10
-88.000000000000085
20
-22.674999999999976
30
0
40
0.49999999999998934
210
-0
220
0
230
1
100
AcDbArc
50
0
51
90.000000000001634
0
LINE
5
26F
100
AcDbEntity
8
CUTOUTS
100
AcDbLine
10
-121.55000000000007
20
-22.174999999999983
30
0
11
-88.000000000000099
21
-22.174999999999983
31
0
0
ARC
5
270
100
AcDbEntity
8
CUTOUTS
100
AcDbCircle
10
-121.55000000000007
20
-22.674999999999983
30
0
40
0.49999999999999822
210
0
220
-0
230
1
100
AcDbArc
50
90
51
180
0
LINE
5
271
100
AcDbEntity
8
CUTOUTS
100
AcDbLine
10
-122.05000000000005
20
-34.474999999999952
30
0
11
-122.05000000000005
21
-22.67499999999999
31
0
0
ARC
5
272
100
AcDbEntity
8
CUTOUTS
100
AcDbCircle
10
-121.55000000000007
20
-34.474999999999952
30
0
40
0.49999999999998934
210
0
220
0
230
1
100
AcDbArc
50
180
51
270
0
LINE
5
273
100
AcDbEntity
8
CUTOUTS
100
AcDbLine
10
-120.11000000000008
20
-34.974999999999959
30
0
11
-121.55000000000007
21
-34.974999999999945
31
0
0
LINE
5
274
100
AcDbEntity
8
CUTOUTS
100
AcDbLine
10
-120.11000000000007
20
-37.159999999999947
30
0
11
-120.11000000000008
21
-34.974999999999959
31
0
0
ARC
5
275
100
AcDbEntity
8
CUTOUTS
100
AcDbCircle
10
-119.61000000000004
20
-37.159999999999933
30
0
40
0.50000000000002487
210
0
220
0
230
1
100
AcDbArc
50
180
51
270
0
ARC
5
276
100
AcDbEntity
8
CUTOUTS
100
AcDbCircle
10
83.449999999999761
20
34.474999999999994
30
0
40
0.49999999999997158
210
-0
220
0
230
1
100
AcDbArc
50
0
51
90.000000000004889
0
LINE
5
277
100
AcDbEntity
8
CUTOUTS
100
AcDbLine
10
68.949999999999733
20
34.97499999999998
30
0
11
83.449999999999719
21
34.97499999999998
31
0
0
ARC
5
278
100
AcDbEntity
8
CUTOUTS
100
AcDbCircle
10
68.949999999999733
20
34.47499999999998
30
0
40
0.49999999999999822
210
0
220
-0
230
1
100
AcDbArc
50
90
51
180
0
LINE
5
279
100
AcDbEntity
8
CUTOUTS
100
AcDbLine
10
68.449999999999719
20
22.674999999999976
30
0
11
68.449999999999719
21
34.474999999999973
31
0
0
ARC
5
27A
100
AcDbEntity
8
CUTOUTS
100
AcDbCircle
10
68.949999999999733
20
22.674999999999965
30
0
40
0.50000000000000711
210
0
220
0
230
1
100
AcDbArc
50
180
51
270
0
LINE
5
27B
100
AcDbEntity
8
CUTOUTS
100
AcDbLine
10
83.449999999999719
20
22.174999999999969
30
0
11
68.949999999999733
21
22.174999999999969
31
0
0
ARC
5
27C
100
AcDbEntity
8
CUTOUTS
100
AcDbCircle
10
83.449999999999761
20
22.674999999999947
30
0
40
0.49999999999998046
210
0
220
0
230
1
100
AcDbArc
50
-90.000000000004889
51
0
0
LINE
5
27D
100
AcDbEntity
8
CUTOUTS
100
AcDbLine
10
83.949999999999733
20
34.474999999999973
30
0
11
83.949999999999733
21
22.674999999999976
31
0
0
ARC
5
27E
100
AcDbEntity
8
CUTOUTS
100
AcDbCircle
10
45.34999999999981
20
22.674999999999947
30
0
40
0.49999999999998046
210
0
220
0
230
1
100
AcDbArc
50
-90.000000000004889
51
0
0
LINE
5
27F
100
AcDbEntity
8
CUTOUTS
100
AcDbLine
10
45.849999999999781
20
34.474999999999973
30
0
11
45.849999999999781
21
22.674999999999976
31
0
0
ARC
5
280
100
AcDbEntity
8
CUTOUTS
100
AcDbCircle
10
45.34999999999981
20
34.474999999999994
30
0
40
0.49999999999997158
210
-0
220
0
230
1
100
AcDbArc
50
0
51
90.000000000004889
0
LINE
5
281
100
AcDbEntity
8
CUTOUTS
100
AcDbLine
10
30.849999999999778
20
34.97499999999998
30
0
11
45.349999999999767
21
34.974999999999966
31
0
0
ARC
5
282
100
AcDbEntity
8
CUTOUTS
100
AcDbCircle
10
30.849999999999778
20
34.47499999999998
30
0
40
0.49999999999999822
210
0
220
-0
230
1
100
AcDbArc
50
90
51
180
0
LINE
5
283
100
AcDbEntity
8
CUTOUTS
100
AcDbLine
10
30.34999999999977
20
22.674999999999976
30
0
11
30.34999999999977
21
34.474999999999973
31
0
0
ARC
5
284
100
AcDbEntity
8
CUTOUTS
100
AcDbCircle
10
30.849999999999778
20
22.674999999999965
30
0
40
0.50000000000000711
210
0
220
0
230
1
100
AcDbArc
50
180
51
270
0
LINE
5
285
100
AcDbEntity
8
CUTOUTS
100
AcDbLine
10
45.349999999999767
20
22.174999999999969
30
0
11
30.849999999999778
21
22.174999999999958
31
0
0
ARC
5
286
100
AcDbEntity
8
CUTOUTS
100
AcDbCircle
10
102.49999999999966
20
34.474999999999952
30
0
40
0.50000000000007816
210
0
220
-0
230
1
100
AcDbArc
50
0
51
89.999999999995111
0
LINE
5
287
100
AcDbEntity
8
CUTOUTS
100
AcDbLine
10
87.999999999999744
20
34.97499999999998
30
0
11
102.4999999999997
21
34.97499999999998
31
0
0
ARC
5
288
100
AcDbEntity
8
CUTOUTS
100
AcDbCircle
10
87.999999999999744
20
34.47499999999998
30
0
40
0.49999999999999822
210
0
220
-0
230
1
100
AcDbArc
50
90
51
180
0
LINE
5
289
100
AcDbEntity
8
CUTOUTS
100
AcDbLine
10
87.499999999999773
20
22.674999999999976
30
0
11
87.49999999999973
21
34.474999999999973
31
0
0
ARC
5
28A
100
AcDbEntity
8
CUTOUTS
100
AcDbCircle
10
87.999999999999744
20
22.674999999999969
30
0
40
0.49999999999997158
210
0
220
0
230
1
100
AcDbArc
50
180
51
270
0
LINE
5
28B
100
AcDbEntity
8
CUTOUTS
100
AcDbLine
10
102.4999999999997
20
22.174999999999969
30
0
11
87.999999999999744
21
22.175000000000004
31
0
0
ARC
5
28C
100
AcDbEntity
8
CUTOUTS
100
AcDbCircle
10
102.4999999999997
20
22.674999999999965
30
0
40
0.49999999999999822
210
-0
220
0
230
1
100
AcDbArc
50
-90
51
0
0
LINE
5
28D
100
AcDbEntity
8
CUTOUTS
100
AcDbLine
10
102.99999999999974
20
34.474999999999973
30
0
11
102.9999999999997
21
22.674999999999976
31
0
0
LINE
5
28E
100
AcDbEntity
8
CUTOUTS
100
AcDbLine
10
122.04999999999976
20
34.474999999999973
30
0
11
122.04999999999976
21
22.674999999999976
31
0
0
ARC
5
28F
100
AcDbEntity
8
CUTOUTS
100
AcDbCircle
10
121.54999999999971
20
22.674999999999965
30
0
40
0.49999999999999822
210
-0
220
0
230
1
100
AcDbArc
50
-90
51
0
0
LINE
5
290
100
AcDbEntity
8
CUTOUTS
100
AcDbLine
10
121.54999999999971
20
22.174999999999969
30
0
11
107.04999999999976
21
22.174999999999933
31
0
0
ARC
5
291
100
AcDbEntity
8
CUTOUTS
100
AcDbCircle
10
107.04999999999978
20
22.67499999999999
30
0
40
0.50000000000007816
210
0
220
0
230
1
100
AcDbArc
50
180
51
269.99999999999676
0
LINE
5
292
100
AcDbEntity
8
CUTOUTS
100
AcDbLine
10
106.54999999999971
20
22.674999999999976
30
0
11
106.54999999999974
21
34.474999999999973
31
0
0
ARC
5
293
100
AcDbEntity
8
CUTOUTS
100
AcDbCircle
10
107.04999999999976
20
34.47499999999998
30
0
40
0.49999999999999822
210
0
220
-0
230
1
100
AcDbArc
50
90
51
180
0
LINE
5
294
100
AcDbEntity
8
CUTOUTS
100
AcDbLine
10
107.04999999999976
20
34.97499999999998
30
0
11
121.54999999999971
21
34.975000000000016
31
0
0
ARC
5
295
100
AcDbEntity
8
CUTOUTS
100
AcDbCircle
10
121.54999999999967
20
34.474999999999952
30
0
40
0.50000000000007816
210
0
220
-0
230
1
100
AcDbArc
50
0
51
89.999999999995111
0
ARC
5
296
100
AcDbEntity
8
CUTOUTS
100
AcDbCircle
10
140.59999999999962
20
34.474999999999952
30
0
40
0.50000000000007816
210
0
220
-0
230
1
100
AcDbArc
50
0
51
89.999999999996746
0
LINE
5
297
100
AcDbEntity
8
CUTOUTS
100
AcDbLine
10
126.09999999999977
20
34.97499999999998
30
0
11
140.59999999999965
21
34.97499999999998
31
0
0
ARC
5
298
100
AcDbEntity
8
CUTOUTS
100
AcDbCircle
10
126.09999999999977
20
34.47499999999998
30
0
40
0.49999999999999822
210
0
220
-0
230
1
100
AcDbArc
50
90
51
180
0
LINE
5
299
100
AcDbEntity
8
CUTOUTS
100
AcDbLine
10
125.59999999999972
20
22.674999999999976
30
0
11
125.59999999999975
21
34.474999999999973
31
0
0
ARC
5
29A
100
AcDbEntity
8
CUTOUTS
100
AcDbCircle
10
126.0999999999998
20
22.67499999999999
30
0
40
0.50000000000007816
210
0
220
0
230
1
100
AcDbArc
50
180
51
269.99999999999676
0
LINE
5
29B
100
AcDbEntity
8
CUTOUTS
100
AcDbLine
10
140.59999999999965
20
22.174999999999969
30
0
11
126.09999999999977
21
22.174999999999969
31
0
0
ARC
5
29C
100
AcDbEntity
8
CUTOUTS
100
AcDbCircle
10
140.59999999999965
20
22.674999999999965
30
0
40
0.49999999999999822
210
-0
220
0
230
1
100
AcDbArc
50
-90
51
0
0
LINE
5
29D
100
AcDbEntity
8
CUTOUTS
100
AcDbLine
10
141.09999999999968
20
34.474999999999973
30
0
11
141.09999999999968
21
22.674999999999976
31
0
0
LINE
5
29E
100
AcDbEntity
8
CUTOUTS
100
AcDbLine
10
7.7499999999998259
20
34.474999999999973
30
0
11
7.7499999999998259
21
22.674999999999976
31
0
0
ARC
5
29F
100
AcDbEntity
8
CUTOUTS
100
AcDbCircle
10
7.2499999999998188
20
22.674999999999979
30
0
40
0.50000000000001155
210
-0
220
0
230
1
100
AcDbArc
50
270
51
360
0
LINE
5
2A0
100
AcDbEntity
8
CUTOUTS
100
AcDbLine
10
7.2499999999998188
20
22.174999999999969
30
0
11
-7.2500000000001741
21
22.175000000000004
31
0
0
ARC
5
2A1
100
AcDbEntity
8
CUTOUTS
100
AcDbCircle
10
-7.2500000000001741
20
22.674999999999969
30
0
40
0.49999999999997158
210
0
220
0
230
1
100
AcDbArc
50
180
51
270
0
LINE
5
2A2
100
AcDbEntity
8
CUTOUTS
100
AcDbLine
10
-7.7500000000001457
20
22.674999999999976
30
0
11
-7.7500000000001812
21
34.474999999999973
31
0
0
ARC
5
2A3
100
AcDbEntity
8
CUTOUTS
100
AcDbCircle
10
-7.2500000000001741
20
34.474999999999966
30
0
40
0.50000000000001155
210
0
220
-0
230
1
100
AcDbArc
50
90
51
180
0
LINE
5
2A4
100
AcDbEntity
8
CUTOUTS
100
AcDbLine
10
-7.2500000000001741
20
34.97499999999998
30
0
11
7.2499999999998188
21
34.97499999999998
31
0
0
ARC
5
2A5
100
AcDbEntity
8
CUTOUTS
100
AcDbCircle
10
7.2499999999998188
20
34.474999999999966
30
0
40
0.50000000000000711
210
0
220
-0
230
1
100
AcDbArc
50
0
51
90
0
ARC
5
2A6
100
AcDbEntity
8
CUTOUTS
100
AcDbCircle
10
-26.30000000000015
20
34.474999999999966
30
0
40
0.50000000000001155
210
0
220
-0
230
1
100
AcDbArc
50
90
51
180
0
LINE
5
2A7
100
AcDbEntity
8
CUTOUTS
100
AcDbLine
10
-26.800000000000157
20
22.674999999999976
30
0
11
-26.800000000000157
21
34.474999999999973
31
0
0
ARC
5
2A8
100
AcDbEntity
8
CUTOUTS
100
AcDbCircle
10
-26.30000000000015
20
22.674999999999979
30
0
40
0.50000000000000711
210
0
220
0
230
1
100
AcDbArc
50
180
51
270
0
LINE
5
2A9
100
AcDbEntity
8
CUTOUTS
100
AcDbLine
10
-11.800000000000157
20
22.174999999999969
30
0
11
-26.30000000000015
21
22.174999999999969
31
0
0
ARC
5
2AA
100
AcDbEntity
8
CUTOUTS
100
AcDbCircle
10
-11.800000000000157
20
22.674999999999979
30
0
40
0.50000000000001155
210
-0
220
0
230
1
100
AcDbArc
50
270
51
360
0
LINE
5
2AB
100
AcDbEntity
8
CUTOUTS
100
AcDbLine
10
-11.300000000000185
20
34.474999999999973
30
0
11
-11.30000000000015
21
22.674999999999976
31
0
0
ARC
5
2AC
100
AcDbEntity
8
CUTOUTS
100
AcDbCircle
10
-11.800000000000157
20
34.474999999999973
30
0
40
0.49999999999997158
210
-0
220
0
230
1
100
AcDbArc
50
0
51
90
0
LINE
5
2AD
100
AcDbEntity
8
CUTOUTS
100
AcDbLine
10
-26.30000000000015
20
34.97499999999998
30
0
11
-11.800000000000157
21
34.974999999999945
31
0
0
LINE
5
2AE
100
AcDbEntity
8
CUTOUTS
100
AcDbLine
10
-140.60000000000005
20
34.97499999999998
30
0
11
-126.10000000000005
21
34.974999999999959
31
0
0
ARC
5
2AF
100
AcDbEntity
8
CUTOUTS
100
AcDbCircle
10
-126.10000000000005
20
34.474999999999966
30
0
40
0.49999999999998934
210
0
220
-0
230
1
100
AcDbArc
50
0
51
90
0
LINE
5
2B0
100
AcDbEntity
8
CUTOUTS
100
AcDbLine
10
-125.60000000000005
20
34.474999999999973
30
0
11
-125.60000000000008
21
22.674999999999976
31
0
0
ARC
5
2B1
100
AcDbEntity
8
CUTOUTS
100
AcDbCircle
10
-126.10000000000005
20
22.674999999999979
30
0
40
0.50000000000001155
210
-0
220
0
230
1
100
AcDbArc
50
270
51
360
0
LINE
5
2B2
100
AcDbEntity
8
CUTOUTS
100
AcDbLine
10
-126.10000000000005
20
22.174999999999969
30
0
11
-140.60000000000005
21
22.174999999999969
31
0
0
ARC
5
2B3
100
AcDbEntity
8
CUTOUTS
100
AcDbCircle
10
-140.60000000000005
20
22.674999999999979
30
0
40
0.49999999999998934
210
0
220
0
230
1
100
AcDbArc
50
180
51
270
0
LINE
5
2B4
100
AcDbEntity
8
CUTOUTS
100
AcDbLine
10
-141.10000000000002
20
22.674999999999976
30
0
11
-141.10000000000005
21
34.474999999999973
31
0
0
ARC
5
2B5
100
AcDbEntity
8
CUTOUTS
100
AcDbCircle
10
-140.60000000000005
20
34.474999999999966
30
0
40
0.50000000000001155
210
0
220
-0
230
1
100
AcDbArc
50
90
51
180
0
ARC
5
2B6
100
AcDbEntity
8
CUTOUTS
100
AcDbCircle
10
-49.900000000000148
20
34.474999999999966
30
0
40
0.50000000000000711
210
0
220
-0
230
1
100
AcDbArc
50
0
51
89.99999999999838
0
LINE
5
2B7
100
AcDbEntity
8
CUTOUTS
100
AcDbLine
10
-64.400000000000134
20
34.97499999999998
30
0
11
-49.900000000000148
21
34.97499999999998
31
0
0
ARC
5
2B8
100
AcDbEntity
8
CUTOUTS
100
AcDbCircle
10
-64.400000000000148
20
34.474999999999973
30
0
40
0.50000000000000711
210
0
220
-0
230
1
100
AcDbArc
50
89.99999999999838
51
180
0
LINE
5
2B9
100
AcDbEntity
8
CUTOUTS
100
AcDbLine
10
-64.900000000000105
20
22.674999999999976
30
0
11
-64.900000000000148
21
34.474999999999973
31
0
0
ARC
5
2BA
100
AcDbEntity
8
CUTOUTS
100
AcDbCircle
10
-64.400000000000148
20
22.674999999999969
30
0
40
0.4999999999999627
210
0
220
0
230
1
100
AcDbArc
50
180
51
270
0
LINE
5
2BB
100
AcDbEntity
8
CUTOUTS
100
AcDbLine
10
-49.900000000000148
20
22.174999999999969
30
0
11
-64.400000000000134
21
22.175000000000004
31
0
0
ARC
5
2BC
100
AcDbEntity
8
CUTOUTS
100
AcDbCircle
10
-49.900000000000148
20
22.674999999999979
30
0
40
0.50000000000001155
210
-0
220
0
230
1
100
AcDbArc
50
270
51
360
0
LINE
5
2BD
100
AcDbEntity
8
CUTOUTS
100
AcDbLine
10
-49.400000000000134
20
34.474999999999973
30
0
11
-49.400000000000134
21
22.674999999999976
31
0
0
LINE
5
2BE
100
AcDbEntity
8
CUTOUTS
100
AcDbLine
10
64.399999999999778
20
22.174999999999969
30
0
11
49.899999999999793
21
22.174999999999969
31
0
0
ARC
5
2BF
100
AcDbEntity
8
CUTOUTS
100
AcDbCircle
10
49.899999999999793
20
22.674999999999965
30
0
40
0.50000000000000711
210
0
220
0
230
1
100
AcDbArc
50
180
51
270
0
LINE
5
2C0
100
AcDbEntity
8
CUTOUTS
100
AcDbLine
10
49.399999999999778
20
22.674999999999976
30
0
11
49.399999999999778
21
34.474999999999973
31
0
0
ARC
5
2C1
100
AcDbEntity
8
CUTOUTS
100
AcDbCircle
10
49.899999999999793
20
34.47499999999998
30
0
40
0.49999999999999822
210
0
220
-0
230
1
100
AcDbArc
50
90
51
180
0
LINE
5
2C2
100
AcDbEntity
8
CUTOUTS
100
AcDbLine
10
49.899999999999793
20
34.97499999999998
30
0
11
64.399999999999778
21
34.97499999999998
31
0
0
ARC
5
2C3
100
AcDbEntity
8
CUTOUTS
100
AcDbCircle
10
64.399999999999821
20
34.474999999999994
30
0
40
0.49999999999997158
210
-0
220
0
230
1
100
AcDbArc
50
0
51
90.000000000004889
0
LINE
5
2C4
100
AcDbEntity
8
CUTOUTS
100
AcDbLine
10
64.899999999999793
20
34.474999999999973
30
0
11
64.899999999999793
21
22.674999999999976
31
0
0
ARC
5
2C5
100
AcDbEntity
8
CUTOUTS
100
AcDbCircle
10
64.399999999999821
20
22.674999999999947
30
0
40
0.49999999999998046
210
0
220
0
230
1
100
AcDbArc
50
-90.000000000004889
51
0
0
ARC
5
2C6
100
AcDbEntity
8
CUTOUTS
100
AcDbCircle
10
11.799999999999802
20
34.474999999999966
30
0
40
0.50000000000001155
210
0
220
-0
230
1
100
AcDbArc
50
90
51
180
0
LINE
5
2C7
100
AcDbEntity
8
CUTOUTS
100
AcDbLine
10
11.299999999999795
20
22.674999999999976
30
0
11
11.299999999999795
21
34.474999999999973
31
0
0
ARC
5
2C8
100
AcDbEntity
8
CUTOUTS
100
AcDbCircle
10
11.799999999999802
20
22.674999999999979
30
0
40
0.50000000000000711
210
0
220
0
230
1
100
AcDbArc
50
180
51
270
0
LINE
5
2C9
100
AcDbEntity
8
CUTOUTS
100
AcDbLine
10
26.299999999999795
20
22.174999999999969
30
0
11
11.799999999999802
21
22.174999999999972
31
0
0
ARC
5
2CA
100
AcDbEntity
8
CUTOUTS
100
AcDbCircle
10
26.299999999999795
20
22.674999999999965
30
0
40
0.49999999999999822
210
-0
220
0
230
1
100
AcDbArc
50
-90
51
0
0
LINE
5
2CB
100
AcDbEntity
8
CUTOUTS
100
AcDbLine
10
26.799999999999802
20
34.474999999999973
30
0
11
26.799999999999802
21
22.674999999999976
31
0
0
ARC
5
2CC
100
AcDbEntity
8
CUTOUTS
100
AcDbCircle
10
26.299999999999795
20
34.47499999999998
30
0
40
0.50000000000000711
210
-0
220
0
230
1
100
AcDbArc
50
0
51
90
0
LINE
5
2CD
100
AcDbEntity
8
CUTOUTS
100
AcDbLine
10
11.799999999999802
20
34.97499999999998
30
0
11
26.299999999999795
21
34.974999999999987
31
0
0
ARC
5
2CE
100
AcDbEntity
8
CUTOUTS
100
AcDbCircle
10
88.212499999999721
20
3.6249999999999805
30
0
40
0.49999999999998934
210
0
220
0
230
1
100
AcDbArc
50
-90.000000000003254
51
0
0
LINE
5
2CF
100
AcDbEntity
8
CUTOUTS
100
AcDbLine
10
88.712499999999736
20
15.424999999999995
30
0
11
88.712499999999736
21
3.6249999999999982
31
0
0
ARC
5
2D0
100
AcDbEntity
8
CUTOUTS
100
AcDbCircle
10
88.21249999999965
20
15.42499999999996
30
0
40
0.50000000000007816
210
0
220
-0
230
1
100
AcDbArc
50
0
51
89.999999999995111
0
LINE
5
2D1
100
AcDbEntity
8
CUTOUTS
100
AcDbLine
10
73.712499999999736
20
15.925000000000002
30
0
11
88.212499999999693
21
15.925000000000038
31
0
0
ARC
5
2D2
100
AcDbEntity
8
CUTOUTS
100
AcDbCircle
10
73.712499999999693
20
15.425000000000013
30
0
40
0.49999999999998934
210
0
220
-0
230
1
100
AcDbArc
50
89.999999999995111
51
180
0
LINE
5
2D3
100
AcDbEntity
8
CUTOUTS
100
AcDbLine
10
73.212499999999721
20
3.6249999999999982
30
0
11
73.212499999999693
21
15.424999999999995
31
0
0
ARC
5
2D4
100
AcDbEntity
8
CUTOUTS
100
AcDbCircle
10
73.712499999999693
20
3.6249999999999805
30
0
40
0.49999999999997158
210
0
220
0
230
1
100
AcDbArc
50
180
51
270.00000000000489
0
LINE
5
2D5
100
AcDbEntity
8
CUTOUTS
100
AcDbLine
10
88.212499999999693
20
3.1249999999999911
30
0
11
73.712499999999736
21
3.1250000000000089
31
0
0
ARC
5
2D6
100
AcDbEntity
8
CUTOUTS
100
AcDbCircle
10
-56.221250000000126
20
-18.109999999999982
30
0
40
0.49999999999999822
210
-0
220
0
230
1
100
AcDbArc
50
-90
51
0
0
LINE
5
2D7
100
AcDbEntity
8
CUTOUTS
100
AcDbLine
10
-55.721250000000126
20
-13.899999999999979
30
0
11
-55.721250000000083
21
-18.109999999999971
31
0
0
ARC
5
2D8
100
AcDbEntity
8
CUTOUTS
100
AcDbCircle
10
-56.221250000000126
20
-13.89999999999997
30
0
40
0.50000000000000711
210
-0
220
0
230
1
100
AcDbArc
50
0
51
90
0
LINE
5
2D9
100
AcDbEntity
8
CUTOUTS
100
AcDbLine
10
-57.891250000000113
20
-13.399999999999972
30
0
11
-56.221250000000126
21
-13.399999999999963
31
0
0
ARC
5
2DA
100
AcDbEntity
8
CUTOUTS
100
AcDbCircle
10
-57.891250000000113
20
-13.89999999999997
30
0
40
0.49999999999999822
210
0
220
-0
230
1
100
AcDbArc
50
90
51
180
0
LINE
5
2DB
100
AcDbEntity
8
CUTOUTS
100
AcDbLine
10
-58.391250000000113
20
-18.109999999999971
30
0
11
-58.391250000000113
21
-13.899999999999979
31
0
0
ARC
5
2DC
100
AcDbEntity
8
CUTOUTS
100
AcDbCircle
10
-57.891250000000113
20
-18.109999999999982
30
0
40
0.50000000000000711
210
0
220
0
230
1
100
AcDbArc
50
180
51
270
0
LINE
5
2DD
100
AcDbEntity
8
CUTOUTS
100
AcDbLine
10
-56.221250000000126
20
-18.609999999999978
30
0
11
-57.891250000000113
21
-18.609999999999978
31
0
0
LINE
5
2DE
100
AcDbEntity
8
CUTOUTS
100
AcDbLine
10
-125.60000000000005
20
-3.6249999999999805
30
0
11
-125.60000000000004
21
-15.424999999999978
31
0
0
ARC
5
2DF
100
AcDbEntity
8
CUTOUTS
100
AcDbCircle
10
-126.10000000000002
20
-15.424999999999986
30
0
40
0.49999999999999822
210
-0
220
0
230
1
100
AcDbArc
50
-90
51
0
0
LINE
5
2E0
100
AcDbEntity
8
CUTOUTS
100
AcDbLine
10
-126.10000000000005
20
-15.924999999999985
30
0
11
-140.60000000000005
21
-15.924999999999967
31
0
0
ARC
5
2E1
100
AcDbEntity
8
CUTOUTS
100
AcDbCircle
10
-140.60000000000005
20
-15.424999999999969
30
0
40
0.49999999999998934
210
0
220
0
230
1
100
AcDbArc
50
180
51
270
0
LINE
5
2E2
100
AcDbEntity
8
CUTOUTS
100
AcDbLine
10
-141.10000000000002
20
-15.424999999999978
30
0
11
-141.10000000000002
21
-3.6249999999999805
31
0
0
ARC
5
2E3
100
AcDbEntity
8
CUTOUTS
100
AcDbCircle
10
-140.60000000000005
20
-3.6249999999999805
30
0
40
0.49999999999997158
210
0
220
-0
230
1
100
AcDbArc
50
90
51
180
0
LINE
5
2E4
100
AcDbEntity
8
CUTOUTS
100
AcDbLine
10
-140.60000000000005
20
-3.1250000000000089
30
0
11
-126.10000000000005
21
-3.1249999999999911
31
0
0
ARC
5
2E5
100
AcDbEntity
8
CUTOUTS
100
AcDbCircle
10
-126.10000000000007
20
-3.6249999999999893
30
0
40
0.50000000000000711
210
0
220
-0
230
1
100
AcDbArc
50
0
51
89.99999999999838
0
ARC
5
2E6
100
AcDbEntity
8
CUTOUTS
100
AcDbCircle
10
-61.806250000000119
20
-3.6249999999999716
30
0
40
0.50000000000000711
210
-0
220
0
230
1
100
AcDbArc
50
0
51
90
0
LINE
5
2E7
100
AcDbEntity
8
CUTOUTS
100
AcDbLine
10
-76.306250000000105
20
-3.1250000000000089
30
0
11
-61.806250000000119
21
-3.1250000000000089
31
0
0
ARC
5
2E8
100
AcDbEntity
8
CUTOUTS
100
AcDbCircle
10
-76.306250000000119
20
-3.6249999999999716
30
0
40
0.4999999999999627
210
0
220
-0
230
1
100
AcDbArc
50
89.99999999999838
51
180
0
LINE
5
2E9
100
AcDbEntity
8
CUTOUTS
100
AcDbLine
10
-76.806250000000119
20
-15.424999999999978
30
0
11
-76.806250000000077
21
-3.6249999999999805
31
0
0
ARC
5
2EA
100
AcDbEntity
8
CUTOUTS
100
AcDbCircle
10
-76.306250000000119
20
-15.424999999999995
30
0
40
0.49999999999998934
210
0
220
0
230
1
100
AcDbArc
50
180
51
270.00000000000159
0
LINE
5
2EB
100
AcDbEntity
8
CUTOUTS
100
AcDbLine
10
-61.806250000000119
20
-15.924999999999985
30
0
11
-76.306250000000105
21
-15.924999999999985
31
0
0
ARC
5
2EC
100
AcDbEntity
8
CUTOUTS
100
AcDbCircle
10
-61.806250000000119
20
-15.424999999999986
30
0
40
0.49999999999999822
210
-0
220
0
230
1
100
AcDbArc
50
-90
51
0
0
LINE
5
2ED
100
AcDbEntity
8
CUTOUTS
100
AcDbLine
10
-61.306250000000105
20
-3.6249999999999805
30
0
11
-61.306250000000105
21
-15.424999999999978
31
0
0
ARC
5
2EE
100
AcDbEntity
8
CUTOUTS
100
AcDbCircle
10
-88.000000000000085
20
-15.424999999999995
30
0
40
0.49999999999998934
210
0
220
0
230
1
100
AcDbArc
50
-90.000000000001634
51
0
0
LINE
5
2EF
100
AcDbEntity
8
CUTOUTS
100
AcDbLine
10
-87.500000000000085
20
-3.6249999999999805
30
0
11
-87.500000000000085
21
-15.424999999999978
31
0
0
ARC
5
2F0
100
AcDbEntity
8
CUTOUTS
100
AcDbCircle
10
-88.000000000000085
20
-3.6249999999999627
30
0
40
0.49999999999998934
210
-0
220
0
230
1
100
AcDbArc
50
0
51
90.000000000001634
0
LINE
5
2F1
100
AcDbEntity
8
CUTOUTS
100
AcDbLine
10
-102.50000000000007
20
-3.1250000000000089
30
0
11
-88.000000000000099
21
-3.1249999999999734
31
0
0
ARC
5
2F2
100
AcDbEntity
8
CUTOUTS
100
AcDbCircle
10
-102.50000000000007
20
-3.6249999999999716
30
0
40
0.4999999999999627
210
0
220
-0
230
1
100
AcDbArc
50
90
51
180
0
LINE
5
2F3
100
AcDbEntity
8
CUTOUTS
100
AcDbLine
10
-103.0000000000001
20
-15.424999999999978
30
0
11
-103.00000000000004
21
-3.6249999999999805
31
0
0
ARC
5
2F4
100
AcDbEntity
8
CUTOUTS
100
AcDbCircle
10
-102.50000000000009
20
-15.424999999999995
30
0
40
0.50000000000000711
210
0
220
0
230
1
100
AcDbArc
50
180
51
270.00000000000324
0
LINE
5
2F5
100
AcDbEntity
8
CUTOUTS
100
AcDbLine
10
-88.000000000000099
20
-15.924999999999985
30
0
11
-102.50000000000006
21
-15.925000000000002
31
0
0
ARC
5
2F6
100
AcDbEntity
8
CUTOUTS
100
AcDbCircle
10
-107.05000000000007
20
-3.6249999999999716
30
0
40
0.50000000000000711
210
-0
220
0
230
1
100
AcDbArc
50
0
51
90
0
LINE
5
2F7
100
AcDbEntity
8
CUTOUTS
100
AcDbLine
10
-121.55000000000007
20
-3.1250000000000089
30
0
11
-107.05000000000007
21
-3.1249999999999734
31
0
0
ARC
5
2F8
100
AcDbEntity
8
CUTOUTS
100
AcDbCircle
10
-121.55000000000007
20
-3.6249999999999716
30
0
40
0.4999999999999627
210
0
220
-0
230
1
100
AcDbArc
50
90
51
180
0
LINE
5
2F9
100
AcDbEntity
8
CUTOUTS
100
AcDbLine
10
-122.05000000000005
20
-15.424999999999978
30
0
11
-122.05000000000004
21
-3.6249999999999805
31
0
0
ARC
5
2FA
100
AcDbEntity
8
CUTOUTS
100
AcDbCircle
10
-121.55000000000004
20
-15.424999999999969
30
0
40
0.50000000000000711
210
0
220
0
230
1
100
AcDbArc
50
180
51
269.99999999999676
0
LINE
5
2FB
100
AcDbEntity
8
CUTOUTS
100
AcDbLine
10
-107.05000000000007
20
-15.924999999999985
30
0
11
-121.55000000000007
21
-15.924999999999967
31
0
0
ARC
5
2FC
100
AcDbEntity
8
CUTOUTS
100
AcDbCircle
10
-107.05000000000007
20
-15.424999999999986
30
0
40
0.49999999999999822
210
-0
220
0
230
1
100
AcDbArc
50
-90
51
0
0
LINE
5
2FD
100
AcDbEntity
8
CUTOUTS
100
AcDbLine
10
-106.55000000000007
20
-3.6249999999999805
30
0
11
-106.55000000000007
21
-15.424999999999978
31
0
0
ARC
5
2FE
100
AcDbEntity
8
CUTOUTS
100
AcDbCircle
10
-31.062500000000153
20
-3.6249999999999716
30
0
40
0.4999999999999627
210
0
220
-0
230
1
100
AcDbArc
50
90
51
180
0
LINE
5
2FF
100
AcDbEntity
8
CUTOUTS
100
AcDbLine
10
-31.56250000000016
20
-15.424999999999978
30
0
11
-31.562500000000107
21
-3.6249999999999805
31
0
0
ARC
5
300
100
AcDbEntity
8
CUTOUTS
100
AcDbCircle
10
-31.062500000000153
20
-15.424999999999986
30
0
40
0.50000000000000711
210
0
220
0
230
1
100
AcDbArc
50
180
51
270
0
LINE
5
301
100
AcDbEntity
8
CUTOUTS
100
AcDbLine
10
-16.56250000000016
20
-15.924999999999985
30
0
11
-31.062500000000153
21
-15.924999999999985
31
0
0
ARC
5
302
100
AcDbEntity
8
CUTOUTS
100
AcDbCircle
10
-16.56250000000016
20
-15.424999999999986
30
0
40
0.49999999999999822
210
-0
220
0
230
1
100
AcDbArc
50
-90
51
0
0
LINE
5
303
100
AcDbEntity
8
CUTOUTS
100
AcDbLine
10
-16.062500000000153
20
-3.6249999999999805
30
0
11
-16.062500000000153
21
-15.424999999999978
31
0
0
ARC
5
304
100
AcDbEntity
8
CUTOUTS
100
AcDbCircle
10
-16.56250000000016
20
-3.6249999999999716
30
0
40
0.50000000000000711
210
-0
220
0
230
1
100
AcDbArc
50
0
51
90
0
LINE
5
305
100
AcDbEntity
8
CUTOUTS
100
AcDbLine
10
-31.062500000000153
20
-3.1250000000000089
30
0
11
-16.56250000000016
21
-3.1249999999999734
31
0
0
ARC
5
306
100
AcDbEntity
8
CUTOUTS
100
AcDbCircle
10
-80.221250000000111
20
-13.899999999999997
30
0
40
0.50000000000000711
210
0
220
-0
230
1
100
AcDbArc
50
0
51
89.999999999996746
0
LINE
5
307
100
AcDbEntity
8
CUTOUTS
100
AcDbLine
10
-81.891250000000099
20
-13.399999999999972
30
0
11
-80.221250000000083
21
-13.39999999999999
31
0
0
ARC
5
308
100
AcDbEntity
8
CUTOUTS
100
AcDbCircle
10
-81.891250000000113
20
-13.899999999999961
30
0
40
0.49999999999998934
210
0
220
-0
230
1
100
AcDbArc
50
89.99999999999838
51
180
0
LINE
5
309
100
AcDbEntity
8
CUTOUTS
100
AcDbLine
10
-82.391250000000099
20
-18.109999999999971
30
0
11
-82.391250000000099
21
-13.899999999999979
31
0
0
ARC
5
30A
100
AcDbEntity
8
CUTOUTS
100
AcDbCircle
10
-81.891250000000113
20
-18.109999999999992
30
0
40
0.49999999999998934
210
0
220
0
230
1
100
AcDbArc
50
180
51
270.00000000000159
0
LINE
5
30B
100
AcDbEntity
8
CUTOUTS
100
AcDbLine
10
-80.221250000000097
20
-18.609999999999978
30
0
11
-81.891250000000099
21
-18.609999999999978
31
0
0
ARC
5
30C
100
AcDbEntity
8
CUTOUTS
100
AcDbCircle
10
-80.221250000000083
20
-18.109999999999992
30
0
40
0.49999999999998934
210
0
220
0
230
1
100
AcDbArc
50
-90.000000000001634
51
0
0
LINE
5
30D
100
AcDbEntity
8
CUTOUTS
100
AcDbLine
10
-79.721250000000111
20
-13.899999999999979
30
0
11
-79.721250000000111
21
-18.109999999999971
31
0
0
LINE
5
30E
100
AcDbEntity
8
PERIMETER
100
AcDbLine
10
142.87499999999972
20
38.099999999999959
30
0
11
-142.87500000000003
21
38.099999999999959
31
0
0
LINE
5
30F
100
AcDbEntity
8
PERIMETER
100
AcDbLine
10
-142.87500000000003
20
38.099999999999959
30
0
11
-142.87500000000003
21
2.1500006090849944
31
0
0
ARC
5
310
100
AcDbEntity
8
PERIMETER
100
AcDbCircle
10
-142.37500000000003
20
2.1500006090849944
30
0
40
0.50000000000000711
210
0
220
0
230
1
100
AcDbArc
50
180
51
270
0
LINE
5
311
100
AcDbEntity
8
PERIMETER
100
AcDbLine
10
-142.37500000000003
20
1.6500006090849961
30
0
11
-140.47500000000005
21
1.6500000000000359
31
0
0
ARC
5
312
100
AcDbEntity
8
PERIMETER
100
AcDbCircle
10
-140.47500000000002
20
0.65000000000003944
30
0
40
0.99999999999999645
210
-0
220
0
230
1
100
AcDbArc
50
-90
51
90
0
LINE
5
313
100
AcDbEntity
8
PERIMETER
100
AcDbLine
10
-140.47500000000002
20
-0.34999999999995701
30
0
11
-142.37500000000003
21
-0.34999999999995701
31
0
0
ARC
5
314
100
AcDbEntity
8
PERIMETER
100
AcDbCircle
10
-142.37500000000003
20
-0.84999999999995524
30
0
40
0.49999999999999822
210
0
220
-0
230
1
100
AcDbArc
50
90
51
180
0
LINE
5
315
100
AcDbEntity
8
PERIMETER
100
AcDbLine
10
-142.87500000000003
20
-0.84999999999995524
30
0
11
-142.87500000000003
21
-38.099999999999959
31
0
0
LINE
5
316
100
AcDbEntity
8
PERIMETER
100
AcDbLine
10
-142.87500000000003
20
-38.099999999999959
30
0
11
142.87499999999972
21
-38.099999999999959
31
0
0
LINE
5
317
100
AcDbEntity
8
PERIMETER
100
AcDbLine
10
142.87499999999972
20
-38.099999999999959
30
0
11
142.875
21
-0.84999999999999076
31
0
0
ARC
5
318
100
AcDbEntity
8
PERIMETER
100
AcDbCircle
10
142.37500000000003
20
-0.84999999999996412
30
0
40
0.49999999999997158
210
-0
220
0
230
1
100
AcDbArc
50
0
51
90.000000000003254
0
LINE
5
319
100
AcDbEntity
8
PERIMETER
100
AcDbLine
10
142.375
20
-0.34999999999999254
30
0
11
140.47500000000002
21
-0.35000124052163351
31
0
0
ARC
5
31A
100
AcDbEntity
8
PERIMETER
100
AcDbCircle
10
140.47500000000002
20
0.65000000000002167
30
0
40
1.0000012405216676
210
0
220
0
230
1
100
AcDbArc
50
177.54177591573975
51
270
0
ARC
5
31B
100
AcDbEntity
8
PERIMETER
100
AcDbCircle
10
139.04124999999971
20
0.93999999999996753
30
0
40
0.49999999999997158
210
-0
220
0
230
1
100
AcDbArc
50
270
51
330.3818018534958
0
LINE
5
31C
100
AcDbEntity
8
PERIMETER
100
AcDbLine
10
139.04124999999971
20
0.43999999999999595
30
0
11
137.37124999999969
21
0.43999999999999595
31
0
0
ARC
5
31D
100
AcDbEntity
8
PERIMETER
100
AcDbCircle
10
137.37124999999972
20
0.94000000000003858
30
0
40
0.50000000000007816
210
0
220
0
230
1
100
AcDbArc
50
180
51
269.99999999999676
0
LINE
5
31E
100
AcDbEntity
8
PERIMETER
100
AcDbLine
10
136.87124999999963
20
0.94000000000000306
30
0
11
136.87124999999969
21
5.1499999999999968
31
0
0
ARC
5
31F
100
AcDbEntity
8
PERIMETER
100
AcDbCircle
10
137.37124999999966
20
5.1500000000000146
30
0
40
0.49999999999998934
210
0
220
-0
230
1
100
AcDbArc
50
89.999999999996746
51
180
0
LINE
5
320
100
AcDbEntity
8
PERIMETER
100
AcDbLine
10
137.37124999999969
20
5.6500000000000039
30
0
11
139.04124999999971
21
5.6499999999999684
31
0
0
ARC
5
321
100
AcDbEntity
8
PERIMETER
100
AcDbCircle
10
139.04124999999971
20
5.1500000000000057
30
0
40
0.49999999999997158
210
-0
220
0
230
1
100
AcDbArc
50
0
51
90
0
LINE
5
322
100
AcDbEntity
8
PERIMETER
100
AcDbLine
10
139.54124999999968
20
5.1499999999999968
30
0
11
139.54124999999968
21
1.0079293485372176
31
0
0
ARC
5
323
100
AcDbEntity
8
PERIMETER
100
AcDbCircle
10
140.47500000000002
20
0.65000000000002167
30
0
40
1.0000012405216907
210
0
220
-0
230
1
100
AcDbArc
50
90
51
159.0269426790552
0
LINE
5
324
100
AcDbEntity
8
PERIMETER
100
AcDbLine
10
140.47500000000002
20
1.6500012405217124
30
0
11
142.375
21
1.6500012405217124
31
0
0
ARC
5
325
100
AcDbEntity
8
PERIMETER
100
AcDbCircle
10
142.37500000000003
20
2.150001240521684
30
0
40
0.49999999999997158
210
0
220
0
230
1
100
AcDbArc
50
-90.000000000003254
51
0
0
LINE
5
326
100
AcDbEntity
8
PERIMETER
100
AcDbLine
10
142.875
20
2.1500012405217106
30
0
11
142.87499999999972
21
38.099999999999959
31
0
0
ENDSEC
0
SECTION
2
OBJECTS
0
DICTIONARY
5
C
100
AcDbDictionary
3
ACAD_GROUP
350
D
3
ACAD_MLINESTYLE
350
17
0
DICTIONARY
5
D
100
AcDbDictionary
0
DICTIONARY
5
1A
330
C
100
AcDbDictionary
0
DICTIONARY
5
17
100
AcDbDictionary
0
ENDSEC
0
EOF
